{
.appVersion = "1075";
DisplayStrings = (
"0123456789/six.alt1/nine.alt1 \012/zero.osf/one.osf/two.osf/zero.osf/zero.osf/two.osf/two.osf/three.osf/two.osf/two.osf/zero.osf/zero.osf/four.osf/five.osf/six.osf/seven.osf/eight.osf/nine.osf/six.osf.alt1/nine.osf.alt1",
"ABCDEF\012GHIJKLM\012NOPQRS\012TUVWXYZ\012abcdefghij\012klmnopqr\012stuvwxyz\012bdpq&",
"/bullet rn/pi \U00A7&\U00A7S~-/endash/emdash ><",
"/lira \U00A3",
"O\U00D3/Obreve/Ocaron \U00D4/Ocircumflexacute/Ocircumflexdotbelow/Ocircumflexgrave/Ocircumflexhookabove \012\012/Odblgrave \U00D6/Odotaccent/Odotbelow \U00D2/Ohookabove/Ohorn/Ohornacute/Ohorndotbelow/Ohorngrave/Ohornhookabove/Ohorntilde/Ohungarumlaut/Oinvertedbreve/Omacron/Oogonek \U00D8\012\012/Omacronacute/Omacrongrave \U00D5/Otildeacute/Otildedieresis/Otildemacron/Ocircumflextilde/Odieresismacron",
"0123456789\012/zero.osf/one.osf/two.osf/three.osf/four.osf/five.osf/six.osf/seven.osf/eight.osf/nine.osf \012\012\012/zerosuperior \U00B9\U00B2\U00B3/foursuperior/fivesuperior/sixsuperior/sevensuperior/eightsuperior/ninesuperior \012\U00BD\U00BC\U00BE/oneeighth/threeeighths/fiveeighths/seveneighths",
"\U00C6/AEacute/AEmacron/Uhorn/Uhornacute/Uhorndotbelow/Uhorngrave/Uhornhookabove/Uhorntilde",
oomooeoonooroohoo/Hbar,
"\U00E6",
"e\U00E9/ebreve/ecaron/ecedilla/ecedillabreve \U00EA/ecircumflexacute/ecircumflexdotbelow \012\012/ecircumflexgrave/ecircumflexhookabove/ecircumflextilde/edblgrave \U00EB/edotaccent/edotbelow \U00E8/ehookabove/einvertedbreve \012\012e/emacron/emacronacute/emacrongrave/eogonek/etilde",
"u\U00FA/ubreve/ucaron \U00FB/udblgrave \U00FC\012\012/udotbelow \U00F9/uhookabove/horncomb/ohorn/uhorn/uhorn/uhornacute/uhorndotbelow/uhorngrave/uhornhookabove/uhorntilde \012\012/uhungarumlaut/uinvertedbreve/umacron/umacrondieresis/uogonek/uring/utilde/utildeacute",
"a\U00E6/aeacute/aemacron e",
/Omega,
/Delta/Sigma/Omega/mu/pi,
/kcaron
);
copyright = "Copyright 2016 The Rokkit Project Authors (contact@sansoxygen.com)";
customParameters = (
{

glyphs = (
{
glyphname = A;
layers = (
{
associatedMasterId = "98C086B7-81AA-4491-8494-0C6A76849168";
layerId = "D7E554E2-12AE-47C0-93F2-4A82AEFA7302";
name = b;
width = 675;
},
{
anchors = (
{
name = bottom;
position = "{306, 0}";
},
{
name = ogonek;
position = "{533, 0}";
},
{
name = top;
position = "{310, 563}";
}
);
layerId = "BE4F947C-73D7-4684-AEED-17801393DA53";
paths = (
{
closed = 1;
nodes = (
"222 0 LINE",
"222 53 LINE",
"147 53 LINE",
"198 212 LINE",
"412 212 LINE",
"466 53 LINE",
"389 53 LINE",
"389 0 LINE",
"613 0 LINE",
"613 53 LINE",
"541 53 LINE",
"382 510 LINE",
"467 510 LINE",
"467 563 LINE",
"152 563 LINE",
"152 510 LINE",
"235 510 LINE",
"72 53 LINE",
"0 53 LINE",
"0 0 LINE"
);
},
{
closed = 1;
nodes = (
"303 509 LINE",
"309 509 LINE",
"396 265 LINE",
"214 265 LINE"
);
}
);
width = 613;
},
{
anchors = (
{
name = bottom;
position = "{301, 0}";
},
{
name = ogonek;
position = "{520, 0}";
},
{
name = top;
position = "{301, 563}";
}
);
layerId = "98C086B7-81AA-4491-8494-0C6A76849168";
paths = (
{
closed = 1;
nodes = (
"184 0 LINE",
"184 22 LINE",
"111 22 LINE",
"184 228 LINE",
"417 228 LINE",
"489 22 LINE",
"417 22 LINE",
"417 0 LINE",
"596 0 LINE",
"596 22 LINE",
"521 22 LINE",
"328 541 LINE",
"411 541 LINE",
"411 563 LINE",
"193 563 LINE",
"193 541 LINE",
"274 541 LINE",
"81 22 LINE",
"5 22 LINE",
"5 0 LINE"
);
},
{
closed = 1;
nodes = (
"299 538 LINE",
"301 538 LINE",
"410 249 LINE",
"190 249 LINE"
);
}
);
width = 596;
},
{
anchors = (
{
name = bottom;
position = "{348, 0}";
},
{
name = ogonek;
position = "{615, 0}";
},
{
name = top;
position = "{365, 583}";
}
);
guideLines = (
{
position = "{200, 461}";
}
);
layerId = "EFCDB4D9-E20B-4A8D-9DB5-150AD166B0AE";
paths = (
{
closed = 1;
nodes = (
"293 0 LINE",
"293 120 LINE",
"238 120 LINE",
"261 200 LINE",
"449 200 LINE",
"473 120 LINE",
"403 120 LINE",
"403 0 LINE",
"718 0 LINE",
"718 120 LINE",
"660 120 LINE",
"529 463 LINE",
"603 463 LINE",
"603 583 LINE",
"124 583 LINE",
"124 463 LINE",
"198 463 LINE",
"74 120 LINE",
"10 120 LINE",
"10 0 LINE"
);
},
{
closed = 1;
nodes = (
"350 457 LINE",
"363 457 LINE",
"412 310 LINE",
"297 310 LINE"
);
}
);
width = 728;
},
{
anchors = (
{
name = top;
position = "{397, 563}";
}
);
associatedMasterId = "EFCDB4D9-E20B-4A8D-9DB5-150AD166B0AE";
layerId = "3C7084F7-CEDE-4ADB-9C28-DB9638F52045";
name = "Bold Aug 18 16, 16:59";
paths = (
{
closed = 1;
nodes = (
"334 0 LINE",
"334 109 LINE",
"252 109 LINE",
"285 201 LINE",
"465 201 LINE",
"496 109 LINE",
"403 109 LINE",
"403 0 LINE",
"803 0 LINE",
"803 109 LINE",
"724 109 LINE",
"578 453 LINE",
"649 453 LINE",
"649 563 LINE",
"172 563 LINE",
"172 453 LINE",
"252 453 LINE",
"103 109 LINE",
"25 109 LINE",
"25 0 LINE"
);
},
{
closed = 1;
nodes = (
"374 443 LINE",
"379 443 LINE",
"439 278 LINE",
"308 278 LINE"
);
}
);
width = 829;
},
{
anchors = (
{
name = top;
position = "{338, 563}";
}
);
associatedMasterId = "BE4F947C-73D7-4684-AEED-17801393DA53";
layerId = "05CD6E41-D712-476E-9DA4-A02D24B30F11";
name = "Regular Aug 18 16, 17:57";
paths = (
{
closed = 1;
nodes = (
"250 0 LINE",
"250 53 LINE",
"175 53 LINE",
"231 217 LINE",
"435 217 LINE",
"492 53 LINE",
"417 53 LINE",
"417 0 LINE",
"646 0 LINE",
"646 53 LINE",
"578 53 LINE",
"410 510 LINE",
"475 510 LINE",
"475 563 LINE",
"200 563 LINE",
"200 510 LINE",
"263 510 LINE",
"100 53 LINE",
"28 53 LINE",
"28 0 LINE"
);
},
{
closed = 1;
nodes = (
"331 509 LINE",
"337 509 LINE",
"419 270 LINE",
"247 270 LINE"
);
}
);
width = 675;
},
{
anchors = (
{
name = top;
position = "{338, 563}";
}
);
associatedMasterId = "98C086B7-81AA-4491-8494-0C6A76849168";
layerId = "63D8137C-0243-4940-A837-45908EC5C0C6";
name = "Light Aug 18 16, 17:57";
paths = (
{
closed = 1;
nodes = (
"221 0 LINE",
"221 22 LINE",
"148 22 LINE",
"227 235 LINE",
"448 235 LINE",
"526 22 LINE",
"454 22 LINE",
"454 0 LINE",
"633 0 LINE",
"633 22 LINE",
"558 22 LINE",
"365 541 LINE",
"438 541 LINE",
"438 563 LINE",
"240 563 LINE",
"240 541 LINE",
"311 541 LINE",
"118 22 LINE",
"42 22 LINE",
"42 0 LINE"
);
},
{
closed = 1;
nodes = (
"336 538 LINE",
"338 538 LINE",
"441 256 LINE",
"233 256 LINE"
);
}
);
width = 675;
},
{
anchors = (
{
name = top;
position = "{359, 563}";
}
);
associatedMasterId = "EFCDB4D9-E20B-4A8D-9DB5-150AD166B0AE";
layerId = "62CE0035-84BD-45E3-ADAC-5B444D601920";
name = "Bold Aug 19 16, 17:17";
paths = (
{
closed = 1;
nodes = (
"364 463 LINE",
"369 463 LINE",
"473 120 LINE",
"413 120 LINE",
"413 0 LINE",
"730 0 LINE",
"730 120 LINE",
"676 120 LINE",
"541 463 LINE",
"595 463 LINE",
"595 583 LINE",
"154 583 LINE",
"154 463 LINE",
"208 463 LINE",
"74 120 LINE",
"20 120 LINE",
"20 0 LINE",
"303 0 LINE",
"303 120 LINE",
"253 120 LINE"
);
},
{
closed = 1;
nodes = (
"258 200 LINE",
"470 200 LINE",
"470 310 LINE",
"258 310 LINE"
);
}
);
width = 750;
}
);
unicode = 0041;
userData = {
com.typemytype.robofont.layerData = {
b = {
anchors = (
);
components = (
);
contours = (
);
lib = {
};
name = A;
unicodes = (
);
width = 1383;
};
};
org.robofab.postScriptHintData = {
};
};
},
{
glyphname = AE;
layers = (
{
associatedMasterId = "98C086B7-81AA-4491-8494-0C6A76849168";
layerId = "EDDC02CD-CF2E-4670-9D9C-FA8AD2329010";
name = b;
width = 1095;
},
{
anchors = (
{
name = bottom;
position = "{485, 0}";
},
{
name = ogonek;
position = "{866, 0}";
},
{
name = top;
position = "{580, 563}";
}
);
layerId = "BE4F947C-73D7-4684-AEED-17801393DA53";
paths = (
{
closed = 1;
nodes = (
"252 0 LINE",
"252 53 LINE",
"181 53 LINE",
"272 203 LINE",
"476 203 LINE",
"476 53 LINE",
"409 53 LINE",
"409 0 LINE",
"545 0 LINE",
"545 563 LINE",
"297 563 LINE",
"297 510 LINE",
"377 510 LINE",
"100 53 LINE",
"22 53 LINE",
"22 0 LINE"
);
},
{
closed = 1;
nodes = (
"453 510 LINE",
"474 510 LINE",
"475 258 LINE",
"300 258 LINE"
);
},
{
closed = 1;
nodes = (
"886 0 LINE",
"886 182 LINE",
"823 182 LINE",
"823 53 LINE",
"545 53 LINE",
"545 264 LINE",
"730 264 LINE",
"730 197 LINE",
"771 197 LINE",
"771 385 LINE",
"730 385 LINE",
"730 319 LINE",
"545 319 LINE",
"545 510 LINE",
"823 510 LINE",
"823 393 LINE",
"886 393 LINE",
"886 563 LINE",
"396 563 LINE",
"396 510 LINE",
"474 510 LINE",
"474 53 LINE",
"396 53 LINE",
"396 0 LINE"
);
}
);
width = 970;
},
{
anchors = (
{
name = bottom;
position = "{495, 0}";
},
{
name = ogonek;
position = "{844, 0}";
},
{
name = top;
position = "{565, 563}";
}
);
layerId = "98C086B7-81AA-4491-8494-0C6A76849168";
paths = (
{
closed = 1;
nodes = (
"225 0 LINE",
"225 22 LINE",
"153 22 LINE",
"259 212 LINE",
"493 212 LINE",
"522 22 LINE",
"443 22 LINE",
"443 0 LINE",
"556 0 LINE",
"517 266 LINE",
"514 288 LINE",
"477 563 LINE",
"345 563 LINE",
"345 541 LINE",
"413 541 LINE",
"118 22 LINE",
"32 22 LINE",
"32 0 LINE"
);
},
{
closed = 1;
nodes = (
"441 541 LINE",
"446 541 LINE",
"491 233 LINE",
"271 233 LINE"
);
},
{
closed = 1;
nodes = (
"852 0 LINE",
"852 152 LINE",
"826 152 LINE",
"826 22 LINE",
"549 22 LINE",
"508 285 LINE",
"714 285 LINE",
"714 206 LINE",
"736 206 LINE",
"736 380 LINE",
"713 380 LINE",
"713 307 LINE",
"508 307 LINE",
"479 541 LINE",
"826 541 LINE",
"826 412 LINE",
"852 412 LINE",
"852 563 LINE",
"393 563 LINE",
"393 541 LINE",
"478 541 LINE",
"526 0 LINE"
);
}
);
width = 979;
},
{
anchors = (
{
name = bottom;
position = "{471, 0}";
},
{
name = ogonek;
position = "{881, 0}";
},
{
name = top;
position = "{534, 583}";
}
);
layerId = "EFCDB4D9-E20B-4A8D-9DB5-150AD166B0AE";
paths = (
{
closed = 1;
nodes = (
"283 0 LINE",
"283 120 LINE",
"233 120 LINE",
"270 200 LINE",
"427 200 LINE",
"428 120 LINE",
"378 120 LINE",
"378 0 LINE",
"569 0 LINE",
"533 583 LINE",
"173 583 LINE",
"173 463 LINE",
"237 463 LINE",
"54 120 LINE",
"0 120 LINE",
"0 0 LINE"
);
},
{
closed = 1;
nodes = (
"411 482 LINE",
"429 482 LINE",
"428 310 LINE",
"314 310 LINE"
);
},
{
closed = 1;
nodes = (
"885 0 LINE",
"885 204 LINE",
"765 204 LINE",
"765 121 LINE",
"569 121 LINE",
"569 242 LINE",
"629 242 LINE",
"629 192 LINE",
"728 192 LINE",
"728 402 LINE",
"628 402 LINE",
"628 352 LINE",
"569 352 LINE",
"569 463 LINE",
"765 463 LINE",
"765 382 LINE",
"885 382 LINE",
"885 583 LINE",
"378 583 LINE",
"378 483 LINE",
"428 483 LINE",
"428 120 LINE",
"378 120 LINE",
"378 0 LINE"
);
}
);
width = 992;
},
{
anchors = (
{
name = top;
position = "{624, 563}";
}
);
associatedMasterId = "EFCDB4D9-E20B-4A8D-9DB5-150AD166B0AE";
layerId = "E440280E-875A-4C95-BAB9-8116B97AE349";
name = "Bold Aug 18 16, 16:59";
paths = (
{
closed = 1;
nodes = (
"322 0 LINE",
"322 109 LINE",
"285 109 LINE",
"329 202 LINE",
"470 202 LINE",
"470 109 LINE",
"405 109 LINE",
"405 0 LINE",
"957 0 LINE",
"957 191 LINE",
"858 191 LINE",
"858 109 LINE",
"673 109 LINE",
"673 256 LINE",
"734 256 LINE",
"734 183 LINE",
"801 183 LINE",
"801 385 LINE",
"734 385 LINE",
"734 305 LINE",
"673 305 LINE",
"673 453 LINE",
"857 453 LINE",
"857 375 LINE",
"956 375 LINE",
"956 563 LINE",
"231 563 LINE",
"231 453 LINE",
"289 453 LINE",
"102 109 LINE",
"19 109 LINE",
"19 0 LINE"
);
},
{
closed = 1;
nodes = (
"458 453 LINE",
"470 453 LINE",
"470 266 LINE",
"361 266 LINE"
);
}
);
width = 979;
},
{
anchors = (
{
name = top;
position = "{580, 563}";
}
);
associatedMasterId = "BE4F947C-73D7-4684-AEED-17801393DA53";
layerId = "F48CACD9-4737-42A1-A81F-BA47A02CB1B8";
name = "Regular Aug 18 16, 17:57";
paths = (
{
closed = 1;
nodes = (
"252 0 LINE",
"252 53 LINE",
"184 53 LINE",
"271 205 LINE",
"476 205 LINE",
"485 53 LINE",
"409 53 LINE",
"409 0 LINE",
"912 0 LINE",
"902 179 LINE",
"840 179 LINE",
"848 53 LINE",
"566 53 LINE",
"554 259 LINE",
"732 259 LINE",
"738 191 LINE",
"779 191 LINE",
"767 381 LINE",
"727 381 LINE",
"731 315 LINE",
"553 315 LINE",
"541 510 LINE",
"813 510 LINE",
"822 385 LINE",
"884 385 LINE",
"875 563 LINE",
"317 563 LINE",
"317 510 LINE",
"378 510 LINE",
"98 53 LINE",
"22 53 LINE",
"22 0 LINE"
);
},
{
closed = 1;
nodes = (
"451 510 LINE",
"460 510 LINE",
"475 255 LINE",
"297 255 LINE"
);
}
);
width = 970;
},
{
anchors = (
{
name = top;
position = "{609, 563}";
}
);
associatedMasterId = "98C086B7-81AA-4491-8494-0C6A76849168";
layerId = "A0452B0E-ED69-4A0D-A1F0-39176CFC385E";
name = "Light Aug 18 16, 17:57";
paths = (
{
closed = 1;
nodes = (
"269 0 LINE",
"269 22 LINE",
"197 22 LINE",
"303 212 LINE",
"537 212 LINE",
"566 22 LINE",
"487 22 LINE",
"487 0 LINE",
"983 0 LINE",
"954 191 LINE",
"929 191 LINE",
"954 22 LINE",
"597 22 LINE",
"561 266 LINE",
"775 266 LINE",
"792 171 LINE",
"813 171 LINE",
"779 372 LINE",
"758 372 LINE",
"771 288 LINE",
"558 288 LINE",
"521 541 LINE",
"852 541 LINE",
"877 371 LINE",
"902 371 LINE",
"875 563 LINE",
"389 563 LINE",
"389 541 LINE",
"457 541 LINE",
"162 22 LINE",
"76 22 LINE",
"76 0 LINE"
);
},
{
closed = 1;
nodes = (
"485 541 LINE",
"490 541 LINE",
"535 233 LINE",
"315 233 LINE"
);
}
);
width = 1077;
},
{
anchors = (
{
name = top;
position = "{624, 563}";
}
);
associatedMasterId = "EFCDB4D9-E20B-4A8D-9DB5-150AD166B0AE";
layerId = "A2761135-10EE-4C1B-BFAC-0FF9D7EA72FB";
name = "Bold Aug 19 16, 17:50";
paths = (
{
closed = 1;
nodes = (
"322 0 LINE",
"322 109 LINE",
"285 109 LINE",
"329 202 LINE",
"470 202 LINE",
"470 109 LINE",
"405 109 LINE",
"405 0 LINE",
"957 0 LINE",
"957 191 LINE",
"858 191 LINE",
"858 109 LINE",
"673 109 LINE",
"673 256 LINE",
"734 256 LINE",
"734 183 LINE",
"801 183 LINE",
"801 385 LINE",
"734 385 LINE",
"734 305 LINE",
"673 305 LINE",
"673 453 LINE",
"857 453 LINE",
"857 375 LINE",
"956 375 LINE",
"956 563 LINE",
"231 563 LINE",
"231 453 LINE",
"289 453 LINE",
"102 109 LINE",
"19 109 LINE",
"19 0 LINE"
);
},
{
closed = 1;
nodes = (
"458 453 LINE",
"470 453 LINE",
"470 266 LINE",
"361 266 LINE"
);
}
);
width = 979;
},
{
anchors = (
{
name = bottom;
position = "{1068, 0}";
},
{
name = top;
position = "{776, 583}";
}
);
associatedMasterId = "EFCDB4D9-E20B-4A8D-9DB5-150AD166B0AE";
layerId = "5B36C08E-B1DB-4805-815A-6CF292D20DA7";
name = "Bold Sep 2 16, 15:41";
paths = (
{
closed = 1;
nodes = (
"435 583 LINE",
"435 463 LINE",
"489 463 LINE",
"306 120 LINE",
"252 120 LINE",
"252 0 LINE",
"535 0 LINE",
"535 120 LINE",
"485 120 LINE",
"645 463 LINE",
"650 583 LINE"
);
},
{
closed = 1;
nodes = (
"934 187 LINE",
"1033 187 LINE",
"1015 407 LINE",
"915 407 LINE"
);
},
{
closed = 1;
nodes = (
"850 463 LINE",
"1045 463 LINE",
"1054 372 LINE",
"1175 372 LINE",
"1159 583 LINE",
"600 583 LINE",
"600 463 LINE",
"650 463 LINE",
"670 120 LINE",
"620 120 LINE",
"620 0 LINE",
"1200 0 LINE",
"1185 224 LINE",
"1064 224 LINE",
"1072 121 LINE",
"870 121 LINE"
);
},
{
closed = 1;
nodes = (
"946 352 LINE",
"847 352 LINE",
"854 242 LINE",
"947 242 LINE"
);
},
{
closed = 1;
nodes = (
"484 200 LINE",
"698 200 LINE",
"684 310 LINE",
"531 310 LINE"
);
}
);
width = 1425;
}
);
unicode = 00C6;
userData = {
com.typemytype.robofont.layerData = {
b = {
anchors = (
);
components = (
);
contours = (
);
lib = {
};
name = AE;
unicodes = (
);
width = 2243;
};
};
org.robofab.postScriptHintData = {
};
};
},
{
glyphname = B;
layers = (
{
associatedMasterId = "98C086B7-81AA-4491-8494-0C6A76849168";
layerId = "166D4EAB-D3CF-4FAC-98E7-8FCD624FEF55";
name = b;
paths = (
{
closed = 1;
nodes = (
"172 535 LINE",
"361 535 LINE SMOOTH",
"448 535 OFFCURVE",
"490 480 OFFCURVE",
"490 424 CURVE SMOOTH",
"490 367 OFFCURVE",
"453 310 OFFCURVE",
"383 310 CURVE SMOOTH",
"172 310 LINE"
);
},
{
closed = 1;
nodes = (
"172 280 LINE",
"387 280 LINE SMOOTH",
"478 280 OFFCURVE",
"523 214 OFFCURVE",
"523 156 CURVE SMOOTH",
"523 91 OFFCURVE",
"481 28 OFFCURVE",
"394 28 CURVE SMOOTH",
"172 28 LINE"
);
},
{
closed = 1;
nodes = (
"394 0 LINE SMOOTH",
"503 0 OFFCURVE",
"560 77 OFFCURVE",
"560 154 CURVE SMOOTH",
"560 214 OFFCURVE",
"524 277 OFFCURVE",
"449 298 CURVE",
"502 327 OFFCURVE",
"527 375 OFFCURVE",
"527 425 CURVE SMOOTH",
"527 494 OFFCURVE",
"471 563 OFFCURVE",
"361 563 CURVE SMOOTH",
"60 563 LINE",
"60 535 LINE",
"136 535 LINE",
"136 28 LINE",
"66 28 LINE",
"66 0 LINE"
);
}
);
width = 661;
},
{
anchors = (
{
name = top;
position = "{258, 563}";
}
);
layerId = "BE4F947C-73D7-4684-AEED-17801393DA53";
paths = (
{
closed = 1;
nodes = (
"342 0 LINE SMOOTH",
"492 0 OFFCURVE",
"544 79 OFFCURVE",
"544 159 CURVE SMOOTH",
"544 227 OFFCURVE",
"505 281 OFFCURVE",
"429 300 CURVE",
"480 317 OFFCURVE",
"514 361 OFFCURVE",
"514 423 CURVE SMOOTH",
"514 515 OFFCURVE",
"446 563 OFFCURVE",
"321 563 CURVE SMOOTH",
"42 563 LINE",
"42 510 LINE",
"120 510 LINE",
"120 53 LINE",
"42 53 LINE",
"42 0 LINE"
);
},
{
closed = 1;
nodes = (
"202 268 LINE",
"325 268 LINE SMOOTH",
"418 268 OFFCURVE",
"461 225 OFFCURVE",
"461 162 CURVE SMOOTH",
"461 94 OFFCURVE",
"422 53 OFFCURVE",
"328 53 CURVE SMOOTH",
"202 53 LINE"
);
},
{
closed = 1;
nodes = (
"202 510 LINE",
"298 510 LINE",
"393 510 OFFCURVE",
"433 486 OFFCURVE",
"433 420 CURVE SMOOTH",
"433 360 OFFCURVE",
"399 323 OFFCURVE",
"316 323 CURVE SMOOTH",
"202 323 LINE"
);
}
);
width = 606;
},
{
anchors = (
{
name = top;
position = "{265, 563}";
}
);
layerId = "98C086B7-81AA-4491-8494-0C6A76849168";
paths = (
{
closed = 1;
nodes = (
"317 0 LINE SMOOTH",
"446 0 OFFCURVE",
"557 21 OFFCURVE",
"557 150 CURVE SMOOTH",
"557 213 OFFCURVE",
"530 282 OFFCURVE",
"438 298 CURVE",
"491 308 OFFCURVE",
"523 358 OFFCURVE",
"523 426 CURVE SMOOTH",
"523 517 OFFCURVE",
"465 563 OFFCURVE",
"358 563 CURVE SMOOTH",
"40 563 LINE",
"40 541 LINE",
"125 541 LINE",
"125 22 LINE",
"40 22 LINE",
"40 0 LINE"
);
},
{
closed = 1;
nodes = (
"155 285 LINE",
"388 285 LINE SMOOTH",
"485 285 OFFCURVE",
"529 224 OFFCURVE",
"529 151 CURVE SMOOTH",
"529 32 OFFCURVE",
"423 22 OFFCURVE",
"315 22 CURVE SMOOTH",
"155 22 LINE"
);
},
{
closed = 1;
nodes = (
"155 541 LINE",
"355 541 LINE",
"446 541 OFFCURVE",
"495 506 OFFCURVE",
"495 425 CURVE SMOOTH",
"495 357 OFFCURVE",
"464 307 OFFCURVE",
"386 307 CURVE SMOOTH",
"155 307 LINE"
);
}
);
width = 638;
},
{
anchors = (
{
name = top;
position = "{348, 583}";
}
);
layerId = "EFCDB4D9-E20B-4A8D-9DB5-150AD166B0AE";
paths = (
{
closed = 1;
nodes = (
"404 0 LINE SMOOTH",
"564 0 OFFCURVE",
"644 54 OFFCURVE",
"644 166 CURVE SMOOTH",
"644 242 OFFCURVE",
"612 304 OFFCURVE",
"503 321 CURVE",
"588 337 OFFCURVE",
"623 372 OFFCURVE",
"623 442 CURVE SMOOTH",
"623 523 OFFCURVE",
"560 583 OFFCURVE",
"404 583 CURVE SMOOTH",
"50 583 LINE",
"50 463 LINE",
"100 463 LINE",
"100 120 LINE",
"50 120 LINE",
"50 0 LINE"
);
},
{
closed = 1;
nodes = (
"300 254 LINE",
"363 254 LINE SMOOTH",
"422 254 OFFCURVE",
"446 231 OFFCURVE",
"446 188 CURVE SMOOTH",
"446 146 OFFCURVE",
"422 121 OFFCURVE",
"363 121 CURVE SMOOTH",
"300 121 LINE"
);
},
{
closed = 1;
nodes = (
"300 463 LINE",
"357 463 LINE SMOOTH",
"401 463 OFFCURVE",
"420 445 OFFCURVE",
"420 414 CURVE SMOOTH",
"420 382 OFFCURVE",
"400 364 OFFCURVE",
"357 364 CURVE SMOOTH",
"300 364 LINE"
);
}
);
width = 680;
},
{
anchors = (
{
name = top;
position = "{314, 563}";
}
);
associatedMasterId = "EFCDB4D9-E20B-4A8D-9DB5-150AD166B0AE";
layerId = "E2FAE716-ABDF-4A87-9C90-71D3679C4BFC";
name = "Bold Aug 18 16, 16:59";
paths = (
{
closed = 1;
nodes = (
"402 0 LINE SMOOTH",
"631 0 OFFCURVE",
"689 80 OFFCURVE",
"689 174 CURVE SMOOTH",
"689 225 OFFCURVE",
"666 295 OFFCURVE",
"541 311 CURVE",
"624 323 OFFCURVE",
"659 368 OFFCURVE",
"659 438 CURVE SMOOTH",
"659 503 OFFCURVE",
"595 563 OFFCURVE",
"438 563 CURVE SMOOTH",
"20 563 LINE",
"20 453 LINE",
"104 453 LINE",
"104 109 LINE",
"20 109 LINE",
"20 0 LINE"
);
},
{
closed = 1;
nodes = (
"306 260 LINE",
"389 260 LINE SMOOTH",
"478 260 OFFCURVE",
"480 215 OFFCURVE",
"480 186 CURVE SMOOTH",
"480 149 OFFCURVE",
"461 110 OFFCURVE",
"391 110 CURVE SMOOTH",
"306 110 LINE"
);
},
{
closed = 1;
nodes = (
"306 453 LINE",
"396 455 LINE SMOOTH",
"436 453 OFFCURVE",
"454 436 OFFCURVE",
"454 407 CURVE SMOOTH",
"454 367 OFFCURVE",
"433 354 OFFCURVE",
"384 354 CURVE SMOOTH",
"306 354 LINE"
);
}
);
width = 730;
},
{
anchors = (
{
name = top;
position = "{255, 563}";
}
);
associatedMasterId = "BE4F947C-73D7-4684-AEED-17801393DA53";
layerId = "2BDE60EE-E5DA-44EA-B3D4-2D768DAF8A41";
name = "Regular Aug 18 16, 17:57";
paths = (
{
closed = 1;
nodes = (
"339 0 LINE SMOOTH",
"489 0 OFFCURVE",
"541 79 OFFCURVE",
"541 159 CURVE SMOOTH",
"541 227 OFFCURVE",
"502 281 OFFCURVE",
"426 300 CURVE",
"477 317 OFFCURVE",
"511 361 OFFCURVE",
"511 423 CURVE SMOOTH",
"511 515 OFFCURVE",
"443 563 OFFCURVE",
"318 563 CURVE SMOOTH",
"39 563 LINE",
"39 510 LINE",
"117 510 LINE",
"117 53 LINE",
"39 53 LINE",
"39 0 LINE"
);
},
{
closed = 1;
nodes = (
"199 268 LINE",
"322 268 LINE SMOOTH",
"415 268 OFFCURVE",
"458 225 OFFCURVE",
"458 162 CURVE SMOOTH",
"458 94 OFFCURVE",
"419 53 OFFCURVE",
"325 53 CURVE SMOOTH",
"199 53 LINE"
);
},
{
closed = 1;
nodes = (
"199 510 LINE",
"295 510 LINE",
"390 510 OFFCURVE",
"430 486 OFFCURVE",
"430 420 CURVE SMOOTH",
"430 360 OFFCURVE",
"396 323 OFFCURVE",
"313 323 CURVE SMOOTH",
"199 323 LINE"
);
}
);
width = 580;
},
{
anchors = (
{
name = top;
position = "{285, 563}";
}
);
associatedMasterId = "98C086B7-81AA-4491-8494-0C6A76849168";
layerId = "D42E2806-FD52-47A6-89B3-D1A809878D7F";
name = "Light Aug 18 16, 17:57";
paths = (
{
closed = 1;
nodes = (
"424 0 LINE SMOOTH",
"520 0 OFFCURVE",
"577 64 OFFCURVE",
"577 154 CURVE SMOOTH",
"577 217 OFFCURVE",
"550 282 OFFCURVE",
"458 298 CURVE",
"511 308 OFFCURVE",
"543 358 OFFCURVE",
"543 426 CURVE SMOOTH",
"543 517 OFFCURVE",
"485 563 OFFCURVE",
"378 563 CURVE SMOOTH",
"60 563 LINE",
"60 541 LINE",
"145 541 LINE",
"145 22 LINE",
"60 22 LINE",
"60 0 LINE"
);
},
{
closed = 1;
nodes = (
"175 285 LINE",
"408 285 LINE SMOOTH",
"505 285 OFFCURVE",
"548 228 OFFCURVE",
"548 155 CURVE SMOOTH",
"548 75 OFFCURVE",
"500 22 OFFCURVE",
"422 22 CURVE SMOOTH",
"175 22 LINE"
);
},
{
closed = 1;
nodes = (
"175 541 LINE",
"375 541 LINE",
"466 541 OFFCURVE",
"515 506 OFFCURVE",
"515 425 CURVE SMOOTH",
"515 357 OFFCURVE",
"484 307 OFFCURVE",
"406 307 CURVE SMOOTH",
"175 307 LINE"
);
}
);
width = 633;
}
);
unicode = 0042;
userData = {
com.typemytype.robofont.layerData = {
b = {
anchors = (
);
components = (
);
contours = (
{
points = (
{
segmentType = line;
smooth = 0;
x = 353;
y = 1095;
},
{
segmentType = line;
smooth = 1;
x = 740;
y = 1095;
},
{
smooth = 0;
x = 917;
y = 1095;
},
{
smooth = 0;
x = 1004;
y = 983;
},
{
segmentType = curve;
smooth = 1;
x = 1004;
y = 868;
},
{
smooth = 0;
x = 1004;
y = 751;
},
{
smooth = 0;
x = 928;
y = 634;
},
{
segmentType = curve;
smooth = 1;
x = 784;
y = 634;
},
{
segmentType = line;
smooth = 0;
x = 353;
y = 634;
}
);
},
{
points = (
{
segmentType = line;
smooth = 0;
x = 353;
y = 573;
},
{
segmentType = line;
smooth = 1;
x = 793;
y = 573;
},
{
smooth = 0;
x = 979;
y = 573;
},
{
smooth = 0;
x = 1072;
y = 439;
},
{
segmentType = curve;
smooth = 1;
x = 1072;
y = 320;
},
{
smooth = 0;
x = 1072;
y = 187;
},
{
smooth = 0;
x = 985;
y = 58;
},
{
segmentType = curve;
smooth = 1;
x = 807;
y = 58;
},
{
segmentType = line;
smooth = 0;
x = 353;
y = 58;
}
);
},
{
points = (
{
segmentType = line;
smooth = 1;
x = 807;
y = 0;
},
{
smooth = 0;
x = 1031;
y = 0;
},
{
smooth = 0;
x = 1146;
y = 158;
},
{
segmentType = curve;
smooth = 1;
x = 1146;
y = 316;
},
{
smooth = 0;
x = 1146;
y = 439;
},
{
smooth = 0;
x = 1074;
y = 568;
},
{
segmentType = curve;
smooth = 0;
x = 919;
y = 611;
},
{
smooth = 0;
x = 1029;
y = 669;
},
{
smooth = 0;
x = 1079;
y = 769;
},
{
segmentType = curve;
smooth = 1;
x = 1079;
y = 870;
},
{
smooth = 0;
x = 1079;
y = 1012;
},
{
smooth = 0;
x = 964;
y = 1154;
},
{
segmentType = curve;
smooth = 1;
x = 740;
y = 1154;
},
{
segmentType = line;
smooth = 0;
x = 122;
y = 1154;
},
{
segmentType = line;
smooth = 0;
x = 122;
y = 1095;
},
{
segmentType = line;
smooth = 0;
x = 278;
y = 1095;
},
{
segmentType = line;
smooth = 0;
x = 278;
y = 58;
},
{
segmentType = line;
smooth = 0;
x = 135;
y = 58;
},
{
segmentType = line;
smooth = 0;
x = 135;
y = 0;
}
);
}
);
lib = {
};
name = B;
unicodes = (
);
width = 1354;
};
};
org.robofab.postScriptHintData = {
};
};
},
{
glyphname = C;
layers = (
{
associatedMasterId = "98C086B7-81AA-4491-8494-0C6A76849168";
layerId = "25609C3F-2295-4DB1-B32F-98BB4D71B28B";
name = b;
width = 689;
},
{
anchors = (
{
name = bottom;
position = "{337, 0}";
},
{
name = top;
position = "{349, 563}";
}
);
layerId = "BE4F947C-73D7-4684-AEED-17801393DA53";
paths = (
{
closed = 1;
nodes = (
"458 -10 OFFCURVE",
"548 29 OFFCURVE",
"606 152 CURVE",
"555 180 LINE",
"515 89 OFFCURVE",
"442 52 OFFCURVE",
"349 52 CURVE SMOOTH",
"224 52 OFFCURVE",
"131 141 OFFCURVE",
"131 283 CURVE SMOOTH",
"131 412 OFFCURVE",
"215 513 OFFCURVE",
"349 513 CURVE SMOOTH",
"438 513 OFFCURVE",
"500 477 OFFCURVE",
"542 391 CURVE",
"596 393 LINE",
"596 563 LINE",
"536 563 LINE",
"536 441 LINE",
"558 441 LINE",
"532 519 OFFCURVE",
"453 573 OFFCURVE",
"345 573 CURVE SMOOTH",
"165 573 OFFCURVE",
"49 450 OFFCURVE",
"49 282 CURVE SMOOTH",
"49 109 OFFCURVE",
"168 -10 OFFCURVE",
"344 -11 CURVE SMOOTH"
);
}
);
width = 644;
},
{
anchors = (
{
name = bottom;
position = "{384, 0}";
},
{
name = top;
position = "{372, 563}";
}
);
layerId = "98C086B7-81AA-4491-8494-0C6A76849168";
paths = (
{
closed = 1;
nodes = (
"476 -11 OFFCURVE",
"563 26 OFFCURVE",
"621 125 CURVE",
"602 138 LINE",
"548 42 OFFCURVE",
"456 13 OFFCURVE",
"369 13 CURVE SMOOTH",
"244 13 OFFCURVE",
"113 101 OFFCURVE",
"113 283 CURVE SMOOTH",
"113 424 OFFCURVE",
"205 549 OFFCURVE",
"369 549 CURVE SMOOTH",
"489 549 OFFCURVE",
"550 500 OFFCURVE",
"599 399 CURVE",
"620 406 LINE",
"620 563 LINE",
"593 563 LINE",
"593 428 LINE",
"607 422 LINE",
"563 514 OFFCURVE",
"502 572 OFFCURVE",
"369 572 CURVE SMOOTH",
"198 572 OFFCURVE",
"83 444 OFFCURVE",
"83 284 CURVE SMOOTH",
"83 80 OFFCURVE",
"234 -11 OFFCURVE",
"368 -11 CURVE SMOOTH"
);
}
);
width = 692;
},
{
anchors = (
{
name = bottom;
position = "{366, 0}";
},
{
name = top;
position = "{369, 583}";
}
);
layerId = "EFCDB4D9-E20B-4A8D-9DB5-150AD166B0AE";
paths = (
{
closed = 1;
nodes = (
"552 -7 OFFCURVE",
"634 94 OFFCURVE",
"653 190 CURVE",
"530 225 LINE",
"500 165 OFFCURVE",
"447 129 OFFCURVE",
"385 129 CURVE SMOOTH",
"287 129 OFFCURVE",
"238 194 OFFCURVE",
"238 304 CURVE SMOOTH",
"238 409 OFFCURVE",
"292 471 OFFCURVE",
"380 471 CURVE SMOOTH",
"450 471 OFFCURVE",
"504 432 OFFCURVE",
"529 365 CURVE",
"639 365 LINE",
"639 583 LINE",
"509 583 LINE",
"509 478 LINE",
"555 438 LINE",
"534 535 OFFCURVE",
"455 593 OFFCURVE",
"340 593 CURVE SMOOTH",
"152 593 OFFCURVE",
"28 477 OFFCURVE",
"28 287 CURVE SMOOTH",
"28 89 OFFCURVE",
"185 -13 OFFCURVE",
"371 -10 CURVE SMOOTH"
);
}
);
width = 694;
},
{
anchors = (
{
name = bottom;
position = "{368, 0}";
},
{
name = top;
position = "{371, 563}";
}
);
associatedMasterId = "EFCDB4D9-E20B-4A8D-9DB5-150AD166B0AE";
layerId = "16FD09D4-DC29-4D90-AC7A-1471AA27C2C3";
name = "Bold Aug 18 16, 16:45";
paths = (
{
closed = 1;
nodes = (
"579 -11 OFFCURVE",
"674 89 OFFCURVE",
"695 216 CURVE",
"546 251 LINE",
"528 150 OFFCURVE",
"459 120 OFFCURVE",
"386 120 CURVE SMOOTH",
"295 120 OFFCURVE",
"238 183 OFFCURVE",
"238 281 CURVE SMOOTH",
"238 380 OFFCURVE",
"289 442 OFFCURVE",
"383 442 CURVE SMOOTH",
"462 442 OFFCURVE",
"512 414 OFFCURVE",
"544 339 CURVE",
"683 339 LINE",
"683 562 LINE",
"560 562 LINE",
"560 503 LINE",
"560 509 OFFCURVE",
"508 573 OFFCURVE",
"379 573 CURVE SMOOTH",
"186 573 OFFCURVE",
"39 464 OFFCURVE",
"39 276 CURVE SMOOTH",
"39 90 OFFCURVE",
"185 -11 OFFCURVE",
"378 -11 CURVE SMOOTH"
);
}
);
width = 735;
},
{
anchors = (
{
name = bottom;
position = "{337, 0}";
},
{
name = top;
position = "{349, 563}";
}
);
associatedMasterId = "BE4F947C-73D7-4684-AEED-17801393DA53";
layerId = "F9EDA6E3-3A89-44DB-9AEF-13E5D9462B7D";
name = "Regular Aug 18 16, 16:48";
paths = (
{
closed = 1;
nodes = (
"458 -10 OFFCURVE",
"560 30 OFFCURVE",
"608 152 CURVE",
"548 182 LINE",
"514 85 OFFCURVE",
"433 49 OFFCURVE",
"349 49 CURVE SMOOTH",
"224 49 OFFCURVE",
"131 141 OFFCURVE",
"131 283 CURVE SMOOTH",
"131 412 OFFCURVE",
"215 513 OFFCURVE",
"349 513 CURVE SMOOTH",
"438 513 OFFCURVE",
"500 477 OFFCURVE",
"542 391 CURVE",
"596 393 LINE",
"596 563 LINE",
"536 563 LINE",
"536 486 LINE",
"493 539 OFFCURVE",
"434 573 OFFCURVE",
"344 573 CURVE SMOOTH",
"165 573 OFFCURVE",
"49 450 OFFCURVE",
"49 282 CURVE SMOOTH",
"49 109 OFFCURVE",
"168 -10 OFFCURVE",
"344 -11 CURVE SMOOTH"
);
}
);
width = 665;
},
{
anchors = (
{
name = bottom;
position = "{368, 0}";
},
{
name = top;
position = "{371, 563}";
}
);
associatedMasterId = "EFCDB4D9-E20B-4A8D-9DB5-150AD166B0AE";
layerId = "4DC3BD39-59EB-4B79-9B27-CA127C489D7F";
name = "Bold Aug 18 16, 16:59";
paths = (
{
closed = 1;
nodes = (
"579 -11 OFFCURVE",
"674 89 OFFCURVE",
"695 216 CURVE",
"546 251 LINE",
"529 150 OFFCURVE",
"464 120 OFFCURVE",
"395 120 CURVE SMOOTH",
"298 120 OFFCURVE",
"238 184 OFFCURVE",
"238 283 CURVE SMOOTH",
"238 381 OFFCURVE",
"292 442 OFFCURVE",
"392 442 CURVE SMOOTH",
"475 442 OFFCURVE",
"516 405 OFFCURVE",
"544 339 CURVE",
"683 339 LINE",
"683 563 LINE",
"560 563 LINE",
"560 458 LINE",
"589 418 LINE",
"589 517 OFFCURVE",
"488 573 OFFCURVE",
"360 573 CURVE SMOOTH",
"178 573 OFFCURVE",
"39 465 OFFCURVE",
"39 278 CURVE SMOOTH",
"39 91 OFFCURVE",
"185 -11 OFFCURVE",
"378 -11 CURVE SMOOTH"
);
}
);
width = 735;
},
{
anchors = (
{
name = bottom;
position = "{337, 0}";
},
{
name = top;
position = "{349, 563}";
}
);
associatedMasterId = "BE4F947C-73D7-4684-AEED-17801393DA53";
layerId = "77CE7CA6-A528-4002-BB68-49F23B0C7530";
name = "Regular Aug 18 16, 17:57";
paths = (
{
closed = 1;
nodes = (
"458 -10 OFFCURVE",
"560 30 OFFCURVE",
"608 152 CURVE",
"548 182 LINE",
"514 85 OFFCURVE",
"433 49 OFFCURVE",
"349 49 CURVE SMOOTH",
"224 49 OFFCURVE",
"131 141 OFFCURVE",
"131 283 CURVE SMOOTH",
"131 412 OFFCURVE",
"215 513 OFFCURVE",
"349 513 CURVE SMOOTH",
"438 513 OFFCURVE",
"500 477 OFFCURVE",
"542 391 CURVE",
"596 393 LINE",
"596 563 LINE",
"536 563 LINE",
"536 441 LINE",
"558 441 LINE",
"532 519 OFFCURVE",
"453 573 OFFCURVE",
"345 573 CURVE SMOOTH",
"165 573 OFFCURVE",
"49 450 OFFCURVE",
"49 282 CURVE SMOOTH",
"49 109 OFFCURVE",
"168 -10 OFFCURVE",
"344 -11 CURVE SMOOTH"
);
}
);
width = 665;
},
{
anchors = (
{
name = bottom;
position = "{350, 0}";
},
{
name = top;
position = "{352, 563}";
}
);
associatedMasterId = "98C086B7-81AA-4491-8494-0C6A76849168";
layerId = "B08358D7-6B9B-4BDD-8EFF-F0FAA2B8778C";
name = "Light Aug 18 16, 17:57";
paths = (
{
closed = 1;
nodes = (
"458 -11 OFFCURVE",
"547 26 OFFCURVE",
"606 125 CURVE",
"587 138 LINE",
"532 42 OFFCURVE",
"438 13 OFFCURVE",
"349 13 CURVE SMOOTH",
"222 13 OFFCURVE",
"88 101 OFFCURVE",
"88 283 CURVE SMOOTH",
"88 422 OFFCURVE",
"182 549 OFFCURVE",
"349 549 CURVE SMOOTH",
"472 549 OFFCURVE",
"534 500 OFFCURVE",
"584 399 CURVE",
"605 406 LINE",
"605 563 LINE",
"578 563 LINE",
"578 448 LINE",
"534 525 OFFCURVE",
"472 572 OFFCURVE",
"349 572 CURVE SMOOTH",
"175 572 OFFCURVE",
"58 444 OFFCURVE",
"58 284 CURVE SMOOTH",
"58 80 OFFCURVE",
"212 -11 OFFCURVE",
"348 -11 CURVE SMOOTH"
);
}
);
width = 686;
},
{
anchors = (
{
name = bottom;
position = "{368, 0}";
},
{
name = top;
position = "{371, 563}";
}
);
associatedMasterId = "EFCDB4D9-E20B-4A8D-9DB5-150AD166B0AE";
components = (
{
name = G;
transform = "{1, 0, 0, 1, 5, 0}";
}
);
layerId = "BAA406FF-49C5-466D-83C0-ACB4216E0C70";
name = "Bold Aug 19 16, 16:45";
width = 750;
}
);
unicode = 0043;
userData = {
com.typemytype.robofont.layerData = {
b = {
anchors = (
);
components = (
);
contours = (
);
lib = {
};
name = C;
unicodes = (
);
width = 1411;
};
};
org.robofab.postScriptHintData = {
};
};
},
{
glyphname = D;
layers = (
{
anchors = (
{
name = bottom;
position = "{362, 0}";
},
{
name = top;
position = "{359, 563}";
}
);
layerId = "BE4F947C-73D7-4684-AEED-17801393DA53";
paths = (
{
closed = 1;
nodes = (
"334 0 LINE SMOOTH",
"526 0 OFFCURVE",
"622 121 OFFCURVE",
"622 287 CURVE SMOOTH",
"622 424 OFFCURVE",
"529 563 OFFCURVE",
"333 563 CURVE SMOOTH",
"27 563 LINE",
"27 510 LINE",
"105 510 LINE",
"105 53 LINE",
"27 53 LINE",
"27 0 LINE"
);
},
{
closed = 1;
nodes = (
"187 510 LINE",
"329 510 LINE SMOOTH",
"474 510 OFFCURVE",
"538 399 OFFCURVE",
"538 285 CURVE SMOOTH",
"538 156 OFFCURVE",
"476 53 OFFCURVE",
"326 53 CURVE SMOOTH",
"187 53 LINE"
);
}
);
width = 664;
},
{
anchors = (
{
name = bottom;
position = "{375, 0}";
},
{
name = top;
position = "{376, 563}";
}
);
layerId = "98C086B7-81AA-4491-8494-0C6A76849168";
paths = (
{
closed = 1;
nodes = (
"340 0 LINE SMOOTH",
"535 0 OFFCURVE",
"631 116 OFFCURVE",
"631 280 CURVE SMOOTH",
"631 441 OFFCURVE",
"539 563 OFFCURVE",
"337 563 CURVE SMOOTH",
"60 563 LINE",
"60 541 LINE",
"145 541 LINE",
"145 22 LINE",
"60 22 LINE",
"60 0 LINE"
);
},
{
closed = 1;
nodes = (
"175 541 LINE",
"338 541 LINE SMOOTH",
"514 541 OFFCURVE",
"602 437 OFFCURVE",
"602 279 CURVE SMOOTH",
"602 120 OFFCURVE",
"514 22 OFFCURVE",
"335 22 CURVE SMOOTH",
"175 22 LINE"
);
}
);
width = 709;
},
{
anchors = (
{
name = bottom;
position = "{375, 0}";
},
{
name = top;
position = "{383, 583}";
}
);
layerId = "EFCDB4D9-E20B-4A8D-9DB5-150AD166B0AE";
paths = (
{
closed = 1;
nodes = (
"406 0 LINE SMOOTH",
"614 0 OFFCURVE",
"717 117 OFFCURVE",
"717 293 CURVE SMOOTH",
"717 459 OFFCURVE",
"613 583 OFFCURVE",
"406 583 CURVE SMOOTH",
"50 583 LINE",
"50 463 LINE",
"100 463 LINE",
"100 120 LINE",
"50 120 LINE",
"50 0 LINE"
);
},
{
closed = 1;
nodes = (
"300 463 LINE",
"368 463 LINE SMOOTH",
"469 463 OFFCURVE",
"509 404 OFFCURVE",
"509 293 CURVE SMOOTH",
"509 180 OFFCURVE",
"468 120 OFFCURVE",
"368 120 CURVE SMOOTH",
"300 120 LINE"
);
}
);
width = 759;
},
{
anchors = (
{
name = top;
position = "{399, 561}";
}
);
associatedMasterId = "EFCDB4D9-E20B-4A8D-9DB5-150AD166B0AE";
layerId = "E73BFCB0-2BF1-44DC-BEA1-F3CB6F57D3E2";
name = "Bold Aug 18 16, 16:59";
paths = (
{
closed = 1;
nodes = (
"413 0 LINE SMOOTH",
"629 0 OFFCURVE",
"736 112 OFFCURVE",
"736 281 CURVE SMOOTH",
"736 442 OFFCURVE",
"628 563 OFFCURVE",
"413 563 CURVE SMOOTH",
"21 563 LINE",
"21 453 LINE",
"105 453 LINE",
"105 109 LINE",
"21 109 LINE",
"21 0 LINE"
);
},
{
closed = 1;
nodes = (
"307 453 LINE",
"415 453 LINE SMOOTH",
"483 453 OFFCURVE",
"520 385 OFFCURVE",
"520 281 CURVE SMOOTH",
"520 174 OFFCURVE",
"482 109 OFFCURVE",
"415 109 CURVE SMOOTH",
"307 109 LINE"
);
}
);
width = 772;
},
{
anchors = (
{
name = top;
position = "{292, 563}";
}
);
associatedMasterId = "BE4F947C-73D7-4684-AEED-17801393DA53";
layerId = "C1982242-1E10-4AE6-8526-F03B6313D512";
name = "Regular Aug 18 16, 17:57";
paths = (
{
closed = 1;
nodes = (
"347 0 LINE SMOOTH",
"539 0 OFFCURVE",
"635 121 OFFCURVE",
"635 287 CURVE SMOOTH",
"635 424 OFFCURVE",
"542 563 OFFCURVE",
"346 563 CURVE SMOOTH",
"40 563 LINE",
"40 510 LINE",
"118 510 LINE",
"118 53 LINE",
"40 53 LINE",
"40 0 LINE"
);
},
{
closed = 1;
nodes = (
"200 510 LINE",
"342 510 LINE SMOOTH",
"487 510 OFFCURVE",
"551 399 OFFCURVE",
"551 285 CURVE SMOOTH",
"551 156 OFFCURVE",
"489 53 OFFCURVE",
"339 53 CURVE SMOOTH",
"200 53 LINE"
);
}
);
width = 684;
},
{
anchors = (
{
name = top;
position = "{316, 563}";
}
);
associatedMasterId = "98C086B7-81AA-4491-8494-0C6A76849168";
layerId = "8D5F015A-A606-4F2B-93AE-6DC00A352310";
name = "Light Aug 18 16, 17:57";
paths = (
{
closed = 1;
nodes = (
"398 0 LINE SMOOTH",
"558 0 OFFCURVE",
"637 152 OFFCURVE",
"637 280 CURVE SMOOTH",
"637 405 OFFCURVE",
"562 563 OFFCURVE",
"395 563 CURVE SMOOTH",
"60 563 LINE",
"60 541 LINE",
"145 541 LINE",
"145 22 LINE",
"60 22 LINE",
"60 0 LINE"
);
},
{
closed = 1;
nodes = (
"175 541 LINE",
"396 541 LINE SMOOTH",
"537 541 OFFCURVE",
"608 401 OFFCURVE",
"608 279 CURVE SMOOTH",
"608 156 OFFCURVE",
"537 22 OFFCURVE",
"393 22 CURVE SMOOTH",
"175 22 LINE"
);
}
);
width = 698;
}
);
unicode = 0044;
userData = {
com.typemytype.robofont.layerData = {
b = {
anchors = (
);
components = (
);
contours = (
);
lib = {
};
name = D;
unicodes = (
);
width = 1434;
};
};
org.robofab.postScriptHintData = {
};
};
},
{
glyphname = Eth;
layers = (
{
associatedMasterId = "98C086B7-81AA-4491-8494-0C6A76849168";
layerId = "E7578292-5419-47CE-A4B4-45F58153652E";
name = b;
width = 700;
},
{
anchors = (
{
name = _mid;
position = "{160, 289}";
}
);
components = (
{
name = D;
}
);
guideLines = (
{
angle = 90;
position = "{29, 522}";
}
);
layerId = "BE4F947C-73D7-4684-AEED-17801393DA53";
paths = (
{
closed = 1;
nodes = (
"261 261 LINE",
"261 317 LINE",
"29 317 LINE",
"29 261 LINE"
);
}
);
width = 684;
},
{
anchors = (
{
name = _mid;
position = "{64, 285}";
}
);
components = (
{
name = D;
}
);
layerId = "98C086B7-81AA-4491-8494-0C6A76849168";
paths = (
{
closed = 1;
nodes = (
"264 273 LINE",
"264 296 LINE",
"60 296 LINE",
"60 273 LINE"
);
}
);
width = 700;
},
{
anchors = (
{
name = C;
position = "{147, 294}";
}
);
components = (
{
name = D;
}
);
guideLines = (
{
angle = 90;
position = "{100, 356}";
}
);
layerId = "EFCDB4D9-E20B-4A8D-9DB5-150AD166B0AE";
paths = (
{
closed = 1;
nodes = (
"359 232 LINE",
"359 355 LINE",
"40 355 LINE",
"40 232 LINE"
);
}
);
width = 759;
},
{
associatedMasterId = "EFCDB4D9-E20B-4A8D-9DB5-150AD166B0AE";
components = (
{
name = hyphen;
transform = "{1, 0, 0, 1, 34, 35}";
},
{
name = D;
}
);
layerId = "38A81808-C722-4B68-8FBD-8D6C9D980A58";
name = "Bold Aug 18 16, 16:59";
width = 772;
},
{
associatedMasterId = "BE4F947C-73D7-4684-AEED-17801393DA53";
components = (
{
name = hyphen;
transform = "{1, 0, 0, 1, -7, 83}";
},
{
name = D;
}
);
layerId = "E77364BF-E12F-46F0-8538-C67C66AA15B5";
name = "Regular Aug 18 16, 17:57";
width = 684;
},
{
associatedMasterId = "98C086B7-81AA-4491-8494-0C6A76849168";
components = (
{
name = hyphen;
transform = "{1, 0, 0, 1, -48, 72}";
},
{
name = D;
}
);
layerId = "B724AC67-9621-4D30-8990-1CDCA7C6AE9C";
name = "Light Aug 18 16, 17:57";
width = 698;
}
);
unicode = 00D0;
userData = {
com.typemytype.robofont.layerData = {
b = {
anchors = (
);
components = (
);
contours = (
);
lib = {
};
name = Eth;
unicodes = (
);
width = 1434;
};
};
org.robofab.postScriptHintData = {
};
};
},
{
glyphname = E;
layers = (
{
anchors = (
{
name = bottom;
position = "{345, 0}";
},
{
name = ogonek;
position = "{485, 0}";
},
{
name = top;
position = "{321, 563}";
}
);
guideLines = (
{
position = "{210, 307}";
}
);
layerId = "BE4F947C-73D7-4684-AEED-17801393DA53";
paths = (
{
closed = 1;
nodes = (
"540 0 LINE",
"540 182 LINE",
"477 182 LINE",
"477 53 LINE",
"209 53 LINE",
"209 264 LINE",
"384 264 LINE",
"384 197 LINE",
"425 197 LINE",
"425 385 LINE",
"384 385 LINE",
"384 319 LINE",
"209 319 LINE",
"209 510 LINE",
"477 510 LINE",
"477 393 LINE",
"540 393 LINE",
"540 563 LINE",
"50 563 LINE",
"50 510 LINE",
"128 510 LINE",
"128 53 LINE",
"50 53 LINE",
"50 0 LINE"
);
}
);
width = 617;
},
{
anchors = (
{
name = bottom;
position = "{348, 0}";
},
{
name = ogonek;
position = "{501, 0}";
},
{
name = top;
position = "{337, 563}";
}
);
layerId = "98C086B7-81AA-4491-8494-0C6A76849168";
paths = (
{
closed = 1;
nodes = (
"509 0 LINE",
"509 152 LINE",
"483 152 LINE",
"483 22 LINE",
"165 22 LINE",
"165 285 LINE",
"371 285 LINE",
"371 206 LINE",
"393 206 LINE",
"393 380 LINE",
"370 380 LINE",
"370 307 LINE",
"165 307 LINE",
"165 541 LINE",
"483 541 LINE",
"483 412 LINE",
"509 412 LINE",
"509 563 LINE",
"50 563 LINE",
"50 541 LINE",
"135 541 LINE",
"135 22 LINE",
"50 22 LINE",
"50 0 LINE"
);
}
);
width = 611;
},
{
anchors = (
{
name = bottom;
position = "{367, 0}";
},
{
name = ogonek;
position = "{552, 0}";
},
{
name = top;
position = "{356, 583}";
}
);
guideLines = (
{
position = "{312, 235}";
}
);
layerId = "EFCDB4D9-E20B-4A8D-9DB5-150AD166B0AE";
paths = (
{
closed = 1;
nodes = (
"617 0 LINE",
"617 204 LINE",
"497 204 LINE",
"497 121 LINE",
"301 121 LINE",
"301 235 LINE",
"356 235 LINE",
"356 190 LINE",
"442 190 LINE",
"442 390 LINE",
"355 390 LINE",
"355 345 LINE",
"301 345 LINE",
"301 463 LINE",
"497 463 LINE",
"497 382 LINE",
"617 382 LINE",
"617 583 LINE",
"50 583 LINE",
"50 463 LINE",
"100 463 LINE",
"100 120 LINE",
"50 120 LINE",
"50 0 LINE"
);
}
);
width = 663;
},
{
anchors = (
{
name = bottom;
position = "{302, 0}";
},
{
name = top;
position = "{342, 563}";
}
);
associatedMasterId = "EFCDB4D9-E20B-4A8D-9DB5-150AD166B0AE";
layerId = "79C3438D-D440-453F-B166-0550B7CC06C2";
name = "Bold Aug 18 16, 16:59";
paths = (
{
closed = 1;
nodes = (
"617 0 LINE",
"617 218 LINE",
"475 218 LINE",
"475 110 LINE",
"307 110 LINE",
"307 242 LINE",
"374 242 LINE",
"374 191 LINE",
"425 191 LINE",
"425 407 LINE",
"373 407 LINE",
"373 347 LINE",
"307 347 LINE",
"307 451 LINE",
"474 453 LINE",
"474 370 LINE",
"613 370 LINE",
"613 563 LINE",
"21 563 LINE",
"21 453 LINE",
"106 453 LINE",
"106 109 LINE",
"21 109 LINE",
"21 0 LINE"
);
}
);
width = 646;
},
{
anchors = (
{
name = bottom;
position = "{309, 0}";
},
{
name = top;
position = "{310, 563}";
}
);
associatedMasterId = "BE4F947C-73D7-4684-AEED-17801393DA53";
layerId = "3292D019-981F-4830-A057-68A45256F1EB";
name = "Regular Aug 18 16, 17:57";
paths = (
{
closed = 1;
nodes = (
"534 0 LINE",
"534 170 LINE",
"471 170 LINE",
"471 53 LINE",
"199 53 LINE",
"199 264 LINE",
"374 264 LINE",
"374 197 LINE",
"415 197 LINE",
"415 385 LINE",
"374 385 LINE",
"374 319 LINE",
"199 319 LINE",
"199 510 LINE",
"466 510 LINE",
"466 396 LINE",
"529 396 LINE",
"529 563 LINE",
"39 563 LINE",
"39 510 LINE",
"117 510 LINE",
"117 53 LINE",
"39 53 LINE",
"39 0 LINE"
);
}
);
width = 582;
},
{
anchors = (
{
name = bottom;
position = "{316, 0}";
},
{
name = top;
position = "{327, 563}";
}
);
associatedMasterId = "98C086B7-81AA-4491-8494-0C6A76849168";
layerId = "EF4C89A6-B1C3-4DD6-9C51-06111BF2D44C";
name = "Light Aug 18 16, 17:57";
paths = (
{
closed = 1;
nodes = (
"531 0 LINE",
"531 163 LINE",
"505 163 LINE",
"505 22 LINE",
"175 22 LINE",
"175 276 LINE",
"381 276 LINE",
"381 187 LINE",
"403 187 LINE",
"403 381 LINE",
"380 381 LINE",
"380 298 LINE",
"175 298 LINE",
"175 541 LINE",
"493 541 LINE",
"493 402 LINE",
"519 402 LINE",
"519 563 LINE",
"60 563 LINE",
"60 541 LINE",
"145 541 LINE",
"145 22 LINE",
"60 22 LINE",
"60 0 LINE"
);
}
);
width = 597;
}
);
unicode = 0045;
userData = {
com.typemytype.robofont.layerData = {
b = {
anchors = (
);
components = (
);
contours = (
);
lib = {
};
name = E;
unicodes = (
);
width = 1227;
};
};
org.robofab.postScriptHintData = {
};
};
},
{
glyphname = F;
layers = (
{
associatedMasterId = "98C086B7-81AA-4491-8494-0C6A76849168";
layerId = "3ECFE09A-00F6-461D-8ABC-E519FD610BC2";
name = b;
paths = (
{
closed = 1;
nodes = (
"483 530 LINE",
"483 392 LINE",
"519 392 LINE",
"519 563 LINE",
"60 563 LINE",
"60 530 LINE",
"140 530 LINE",
"140 507 LINE",
"177 507 LINE",
"177 530 LINE"
);
},
{
closed = 1;
nodes = (
"140 507 LINE",
"140 331 LINE",
"177 331 LINE",
"177 507 LINE"
);
},
{
closed = 1;
nodes = (
"140 331 LINE",
"140 32 LINE",
"60 32 LINE",
"60 0 LINE",
"270 0 LINE",
"270 32 LINE",
"177 32 LINE",
"177 263 LINE",
"402 263 LINE",
"402 185 LINE",
"433 185 LINE",
"433 373 LINE",
"402 373 LINE",
"402 293 LINE",
"177 293 LINE",
"177 331 LINE"
);
}
);
width = 575;
},
{
anchors = (
{
name = top;
position = "{299, 563}";
}
);
layerId = "BE4F947C-73D7-4684-AEED-17801393DA53";
paths = (
{
closed = 1;
nodes = (
"282 0 LINE",
"282 53 LINE",
"199 53 LINE",
"199 258 LINE",
"356 258 LINE",
"356 193 LINE",
"398 193 LINE",
"398 376 LINE",
"356 376 LINE",
"356 315 LINE",
"199 315 LINE",
"199 510 LINE",
"447 510 LINE",
"447 392 LINE",
"510 392 LINE",
"510 563 LINE",
"39 563 LINE",
"39 510 LINE",
"117 510 LINE",
"117 53 LINE",
"39 53 LINE",
"39 0 LINE"
);
}
);
width = 553;
},
{
anchors = (
{
name = top;
position = "{314, 563}";
}
);
layerId = "98C086B7-81AA-4491-8494-0C6A76849168";
paths = (
{
closed = 1;
nodes = (
"260 0 LINE",
"260 22 LINE",
"175 22 LINE",
"175 280 LINE",
"371 280 LINE",
"371 203 LINE",
"392 203 LINE",
"392 369 LINE",
"371 369 LINE",
"371 303 LINE",
"175 303 LINE",
"175 541 LINE",
"490 541 LINE",
"490 411 LINE",
"514 411 LINE",
"514 563 LINE",
"60 563 LINE",
"60 541 LINE",
"145 541 LINE",
"145 22 LINE",
"60 22 LINE",
"60 0 LINE"
);
}
);
width = 575;
},
{
anchors = (
{
name = top;
position = "{333, 583}";
}
);
layerId = "EFCDB4D9-E20B-4A8D-9DB5-150AD166B0AE";
paths = (
{
closed = 1;
nodes = (
"370 0 LINE",
"370 120 LINE",
"300 120 LINE",
"300 235 LINE",
"360 235 LINE",
"360 190 LINE",
"446 190 LINE",
"446 390 LINE",
"359 390 LINE",
"359 345 LINE",
"300 345 LINE",
"300 463 LINE",
"496 463 LINE",
"496 378 LINE",
"616 378 LINE",
"616 583 LINE",
"50 583 LINE",
"50 463 LINE",
"100 463 LINE",
"100 120 LINE",
"50 120 LINE",
"50 0 LINE"
);
}
);
width = 614;
},
{
anchors = (
{
name = top;
position = "{325, 563}";
}
);
associatedMasterId = "EFCDB4D9-E20B-4A8D-9DB5-150AD166B0AE";
layerId = "D3F829E5-7ACF-49E5-AF0A-740B76BE2409";
name = "Bold Aug 18 16, 16:59";
paths = (
{
closed = 1;
nodes = (
"392 0 LINE",
"392 109 LINE",
"307 109 LINE",
"307 242 LINE",
"391 242 LINE",
"391 191 LINE",
"451 191 LINE",
"451 373 LINE",
"390 373 LINE",
"390 322 LINE",
"307 322 LINE",
"307 453 LINE",
"488 453 LINE",
"488 374 LINE",
"602 374 LINE",
"602 563 LINE",
"21 563 LINE",
"21 453 LINE",
"106 453 LINE",
"106 109 LINE",
"21 109 LINE",
"21 0 LINE"
);
}
);
width = 631;
},
{
anchors = (
{
name = top;
position = "{299, 563}";
}
);
associatedMasterId = "BE4F947C-73D7-4684-AEED-17801393DA53";
layerId = "0D8A457C-F74A-4CB9-82A7-F98812EB30EF";
name = "Regular Aug 18 16, 17:57";
paths = (
{
closed = 1;
nodes = (
"277 0 LINE",
"277 53 LINE",
"199 53 LINE",
"199 264 LINE",
"369 264 LINE",
"369 199 LINE",
"411 199 LINE",
"411 382 LINE",
"369 382 LINE",
"369 321 LINE",
"199 321 LINE",
"199 510 LINE",
"457 510 LINE",
"457 392 LINE",
"520 392 LINE",
"520 563 LINE",
"39 563 LINE",
"39 510 LINE",
"117 510 LINE",
"117 53 LINE",
"39 53 LINE",
"39 0 LINE"
);
}
);
width = 542;
},
{
anchors = (
{
name = top;
position = "{314, 563}";
}
);
associatedMasterId = "98C086B7-81AA-4491-8494-0C6A76849168";
layerId = "6EB6B703-0B34-4A18-AE2D-3A9EF23CEAA1";
name = "Light Aug 18 16, 17:57";
paths = (
{
closed = 1;
nodes = (
"260 0 LINE",
"260 22 LINE",
"175 22 LINE",
"175 278 LINE",
"409 278 LINE",
"409 191 LINE",
"430 191 LINE",
"430 377 LINE",
"409 377 LINE",
"409 301 LINE",
"175 301 LINE",
"175 541 LINE",
"500 541 LINE",
"500 389 LINE",
"524 389 LINE",
"524 563 LINE",
"60 563 LINE",
"60 541 LINE",
"145 541 LINE",
"145 22 LINE",
"60 22 LINE",
"60 0 LINE"
);
}
);
width = 570;
}
);
unicode = 0046;
userData = {
com.typemytype.robofont.layerData = {
b = {
anchors = (
);
components = (
);
contours = (
{
points = (
{
segmentType = line;
smooth = 0;
x = 990;
y = 1086;
},
{
segmentType = line;
smooth = 0;
x = 990;
y = 802;
},
{
segmentType = line;
smooth = 0;
x = 1062;
y = 802;
},
{
segmentType = line;
smooth = 0;
x = 1062;
y = 1152;
},
{
segmentType = line;
smooth = 0;
x = 122;
y = 1152;
},
{
segmentType = line;
smooth = 0;
x = 122;
y = 1086;
},
{
segmentType = line;
smooth = 0;
x = 286;
y = 1086;
},
{
segmentType = line;
smooth = 0;
x = 286;
y = 1039;
},
{
segmentType = line;
smooth = 0;
x = 363;
y = 1039;
},
{
segmentType = line;
smooth = 0;
x = 363;
y = 1086;
}
);
},
{
points = (
{
segmentType = line;
smooth = 0;
x = 286;
y = 1039;
},
{
segmentType = line;
smooth = 0;
x = 286;
y = 677;
},
{
segmentType = line;
smooth = 0;
x = 363;
y = 677;
},
{
segmentType = line;
smooth = 0;
x = 363;
y = 1039;
}
);
},
{
points = (
{
segmentType = line;
smooth = 0;
x = 286;
y = 677;
},
{
segmentType = line;
smooth = 0;
x = 286;
y = 65;
},
{
segmentType = line;
smooth = 0;
x = 122;
y = 65;
},
{
segmentType = line;
smooth = 0;
x = 122;
y = 0;
},
{
segmentType = line;
smooth = 0;
x = 552;
y = 0;
},
{
segmentType = line;
smooth = 0;
x = 552;
y = 65;
},
{
segmentType = line;
smooth = 0;
x = 363;
y = 65;
},
{
segmentType = line;
smooth = 0;
x = 363;
y = 539;
},
{
segmentType = line;
smooth = 0;
x = 824;
y = 539;
},
{
segmentType = line;
smooth = 0;
x = 824;
y = 378;
},
{
segmentType = line;
smooth = 0;
x = 886;
y = 378;
},
{
segmentType = line;
smooth = 0;
x = 886;
y = 764;
},
{
segmentType = line;
smooth = 0;
x = 824;
y = 764;
},
{
segmentType = line;
smooth = 0;
x = 824;
y = 601;
},
{
segmentType = line;
smooth = 0;
x = 363;
y = 601;
},
{
segmentType = line;
smooth = 0;
x = 363;
y = 677;
}
);
}
);
lib = {
};
name = F;
unicodes = (
);
width = 1177;
};
};
org.robofab.postScriptHintData = {
};
};
},
{
glyphname = G;
layers = (
{
associatedMasterId = "98C086B7-81AA-4491-8494-0C6A76849168";
layerId = "C7BF5333-7E92-4656-94F3-4CF4B1BB9EBD";
name = b;
width = 681;
},
{
anchors = (
{
name = bottom;
position = "{341, 0}";
},
{
name = top;
position = "{345, 563}";
}
);
layerId = "BE4F947C-73D7-4684-AEED-17801393DA53";
paths = (
{
closed = 1;
nodes = (
"532 -10 OFFCURVE",
"633 93 OFFCURVE",
"633 254 CURVE SMOOTH",
"633 284 LINE",
"434 284 LINE",
"434 228 LINE",
"598 228 LINE",
"553 235 LINE",
"553 106 OFFCURVE",
"464 52 OFFCURVE",
"353 50 CURVE SMOOTH",
"216 50 OFFCURVE",
"130 142 OFFCURVE",
"130 288 CURVE SMOOTH",
"130 427 OFFCURVE",
"215 514 OFFCURVE",
"351 514 CURVE SMOOTH",
"441 514 OFFCURVE",
"512 470 OFFCURVE",
"548 389 CURVE",
"606 389 LINE",
"606 563 LINE",
"541 563 LINE",
"541 447 LINE",
"571 447 LINE",
"532 522 OFFCURVE",
"458 573 OFFCURVE",
"348 573 CURVE SMOOTH",
"168 573 OFFCURVE",
"42 457 OFFCURVE",
"42 283 CURVE SMOOTH",
"42 112 OFFCURVE",
"155 -10 OFFCURVE",
"350 -10 CURVE SMOOTH"
);
}
);
width = 678;
},
{
anchors = (
{
name = bottom;
position = "{357, 0}";
},
{
name = top;
position = "{356, 563}";
}
);
layerId = "98C086B7-81AA-4491-8494-0C6A76849168";
paths = (
{
closed = 1;
nodes = (
"459 -11 OFFCURVE",
"622 34 OFFCURVE",
"622 265 CURVE SMOOTH",
"622 268 LINE",
"469 268 LINE",
"469 246 LINE",
"600 246 LINE",
"593 248 LINE",
"593 61 OFFCURVE",
"447 13 OFFCURVE",
"357 13 CURVE SMOOTH",
"198 13 OFFCURVE",
"97 118 OFFCURVE",
"97 285 CURVE SMOOTH",
"97 448 OFFCURVE",
"198 550 OFFCURVE",
"357 550 CURVE SMOOTH",
"456 550 OFFCURVE",
"541 500 OFFCURVE",
"578 412 CURVE",
"600 412 LINE",
"600 563 LINE",
"573 563 LINE",
"573 448 LINE",
"587 440 LINE",
"547 525 OFFCURVE",
"457 573 OFFCURVE",
"357 573 CURVE SMOOTH",
"179 573 OFFCURVE",
"67 462 OFFCURVE",
"67 285 CURVE SMOOTH",
"67 104 OFFCURVE",
"179 -11 OFFCURVE",
"357 -11 CURVE SMOOTH"
);
}
);
width = 691;
},
{
anchors = (
{
name = bottom;
position = "{394, 0}";
},
{
name = top;
position = "{402, 583}";
}
);
background = {
paths = (
{
closed = 1;
nodes = (
"581 -11 OFFCURVE",
"676 89 OFFCURVE",
"697 216 CURVE",
"548 251 LINE",
"531 150 OFFCURVE",
"466 120 OFFCURVE",
"397 120 CURVE SMOOTH",
"300 120 OFFCURVE",
"240 184 OFFCURVE",
"240 283 CURVE SMOOTH",
"240 381 OFFCURVE",
"294 442 OFFCURVE",
"394 442 CURVE SMOOTH",
"477 442 OFFCURVE",
"518 405 OFFCURVE",
"546 339 CURVE",
"685 339 LINE",
"685 562 LINE",
"562 562 LINE",
"562 458 LINE",
"591 418 LINE",
"591 517 OFFCURVE",
"490 573 OFFCURVE",
"362 573 CURVE SMOOTH",
"180 573 OFFCURVE",
"41 465 OFFCURVE",
"41 278 CURVE SMOOTH",
"41 91 OFFCURVE",
"187 -11 OFFCURVE",
"380 -11 CURVE SMOOTH"
);
}
);
};
layerId = "EFCDB4D9-E20B-4A8D-9DB5-150AD166B0AE";
paths = (
{
closed = 1;
nodes = (
"546 -10 OFFCURVE",
"692 78 OFFCURVE",
"692 281 CURVE SMOOTH",
"692 326 LINE",
"407 326 LINE",
"407 206 LINE",
"561 206 LINE",
"502 235 LINE",
"502 162 OFFCURVE",
"454 126 OFFCURVE",
"380 126 CURVE SMOOTH",
"296 126 OFFCURVE",
"240 186 OFFCURVE",
"240 290 CURVE SMOOTH",
"240 397 OFFCURVE",
"304 457 OFFCURVE",
"400 457 CURVE SMOOTH",
"478 457 OFFCURVE",
"524 424 OFFCURVE",
"557 365 CURVE",
"667 365 LINE",
"667 583 LINE",
"537 583 LINE",
"537 471 LINE",
"582 438 LINE",
"564 528 OFFCURVE",
"481 593 OFFCURVE",
"345 593 CURVE SMOOTH",
"158 593 OFFCURVE",
"32 469 OFFCURVE",
"32 289 CURVE SMOOTH",
"32 108 OFFCURVE",
"172 -10 OFFCURVE",
"371 -10 CURVE SMOOTH"
);
}
);
width = 738;
},
{
anchors = (
{
name = bottom;
position = "{347, 0}";
},
{
name = top;
position = "{351, 563}";
}
);
associatedMasterId = "BE4F947C-73D7-4684-AEED-17801393DA53";
layerId = "B4300CFC-4CC8-4C18-8FC0-2664F604C602";
name = "Regular Aug 18 16, 16:54";
paths = (
{
closed = 1;
nodes = (
"502 -10 OFFCURVE",
"622 56 OFFCURVE",
"637 243 CURVE SMOOTH",
"638 256 OFFCURVE",
"639 270 OFFCURVE",
"639 284 CURVE",
"440 284 LINE",
"440 228 LINE",
"559 228 LINE",
"556 104 OFFCURVE",
"468 52 OFFCURVE",
"359 50 CURVE SMOOTH",
"222 50 OFFCURVE",
"136 142 OFFCURVE",
"136 288 CURVE SMOOTH",
"136 427 OFFCURVE",
"221 514 OFFCURVE",
"357 514 CURVE SMOOTH",
"447 514 OFFCURVE",
"518 470 OFFCURVE",
"554 389 CURVE",
"612 389 LINE",
"612 564 LINE",
"547 564 LINE",
"547 492 LINE",
"503 542 OFFCURVE",
"438 573 OFFCURVE",
"355 573 CURVE SMOOTH",
"174 573 OFFCURVE",
"48 463 OFFCURVE",
"48 288 CURVE SMOOTH",
"48 105 OFFCURVE",
"170 -10 OFFCURVE",
"356 -10 CURVE SMOOTH"
);
}
);
width = 684;
},
{
anchors = (
{
name = bottom;
position = "{399, 0}";
},
{
name = top;
position = "{407, 563}";
}
);
associatedMasterId = "EFCDB4D9-E20B-4A8D-9DB5-150AD166B0AE";
background = {
paths = (
{
closed = 1;
nodes = (
"586 -11 OFFCURVE",
"681 89 OFFCURVE",
"702 216 CURVE",
"553 251 LINE",
"536 150 OFFCURVE",
"471 120 OFFCURVE",
"402 120 CURVE SMOOTH",
"305 120 OFFCURVE",
"245 184 OFFCURVE",
"245 283 CURVE SMOOTH",
"245 381 OFFCURVE",
"299 442 OFFCURVE",
"399 442 CURVE SMOOTH",
"482 442 OFFCURVE",
"523 405 OFFCURVE",
"551 339 CURVE",
"690 339 LINE",
"690 562 LINE",
"567 562 LINE",
"567 458 LINE",
"596 418 LINE",
"596 517 OFFCURVE",
"495 573 OFFCURVE",
"367 573 CURVE SMOOTH",
"185 573 OFFCURVE",
"46 465 OFFCURVE",
"46 278 CURVE SMOOTH",
"46 91 OFFCURVE",
"192 -11 OFFCURVE",
"385 -11 CURVE SMOOTH"
);
}
);
};
layerId = "08C2188D-5D86-4902-90DD-00A9CB315E29";
name = "Bold Aug 18 16, 16:59";
paths = (
{
closed = 1;
nodes = (
"556 -11 OFFCURVE",
"697 68 OFFCURVE",
"697 250 CURVE SMOOTH",
"697 295 LINE",
"412 295 LINE",
"412 190 LINE",
"521 190 LINE",
"514 143 OFFCURVE",
"472 119 OFFCURVE",
"396 120 CURVE SMOOTH",
"323 120 OFFCURVE",
"245 168 OFFCURVE",
"245 277 CURVE SMOOTH",
"245 388 OFFCURVE",
"302 442 OFFCURVE",
"400 442 CURVE SMOOTH",
"472 442 OFFCURVE",
"517 414 OFFCURVE",
"549 345 CURVE",
"690 345 LINE",
"690 563 LINE",
"567 563 LINE",
"567 451 LINE",
"596 418 LINE",
"596 500 OFFCURVE",
"519 573 OFFCURVE",
"369 573 CURVE SMOOTH",
"186 573 OFFCURVE",
"46 467 OFFCURVE",
"46 277 CURVE SMOOTH",
"46 115 OFFCURVE",
"158 -11 OFFCURVE",
"386 -11 CURVE SMOOTH"
);
}
);
width = 762;
},
{
anchors = (
{
name = bottom;
position = "{347, 0}";
},
{
name = top;
position = "{351, 563}";
}
);
associatedMasterId = "BE4F947C-73D7-4684-AEED-17801393DA53";
layerId = "B1FD807D-2C46-4EA3-9CC8-919BB7DC2B9A";
name = "Regular Aug 18 16, 17:57";
paths = (
{
closed = 1;
nodes = (
"538 -10 OFFCURVE",
"639 93 OFFCURVE",
"639 254 CURVE SMOOTH",
"639 284 LINE",
"440 284 LINE",
"440 228 LINE",
"559 228 LINE",
"556 104 OFFCURVE",
"468 52 OFFCURVE",
"359 50 CURVE SMOOTH",
"222 50 OFFCURVE",
"136 142 OFFCURVE",
"136 288 CURVE SMOOTH",
"136 427 OFFCURVE",
"221 514 OFFCURVE",
"357 514 CURVE SMOOTH",
"447 514 OFFCURVE",
"518 470 OFFCURVE",
"554 389 CURVE",
"612 389 LINE",
"612 563 LINE",
"547 563 LINE",
"547 447 LINE",
"577 447 LINE",
"538 522 OFFCURVE",
"464 573 OFFCURVE",
"354 573 CURVE SMOOTH",
"174 573 OFFCURVE",
"48 457 OFFCURVE",
"48 283 CURVE SMOOTH",
"48 112 OFFCURVE",
"161 -10 OFFCURVE",
"356 -10 CURVE SMOOTH"
);
}
);
width = 684;
},
{
anchors = (
{
name = bottom;
position = "{347, 0}";
},
{
name = top;
position = "{346, 563}";
}
);
associatedMasterId = "98C086B7-81AA-4491-8494-0C6A76849168";
layerId = "43B2BFFF-A917-4C0D-BC1F-D3C51FC9DF73";
name = "Light Aug 18 16, 17:57";
paths = (
{
closed = 1;
nodes = (
"449 -11 OFFCURVE",
"612 34 OFFCURVE",
"612 265 CURVE SMOOTH",
"612 268 LINE",
"459 268 LINE",
"459 246 LINE",
"583 246 LINE",
"581 61 OFFCURVE",
"437 13 OFFCURVE",
"347 13 CURVE SMOOTH",
"188 13 OFFCURVE",
"87 118 OFFCURVE",
"87 285 CURVE SMOOTH",
"87 448 OFFCURVE",
"188 550 OFFCURVE",
"347 550 CURVE SMOOTH",
"446 550 OFFCURVE",
"531 500 OFFCURVE",
"568 412 CURVE",
"590 412 LINE",
"590 563 LINE",
"563 563 LINE",
"563 448 LINE",
"577 440 LINE",
"537 525 OFFCURVE",
"447 573 OFFCURVE",
"347 573 CURVE SMOOTH",
"169 573 OFFCURVE",
"57 462 OFFCURVE",
"57 285 CURVE SMOOTH",
"57 104 OFFCURVE",
"169 -11 OFFCURVE",
"347 -11 CURVE SMOOTH"
);
}
);
width = 681;
}
);
unicode = 0047;
userData = {
com.typemytype.robofont.layerData = {
b = {
anchors = (
);
components = (
);
contours = (
);
lib = {
};
name = G;
unicodes = (
);
width = 1394;
};
};
org.robofab.postScriptHintData = {
};
};
},
{
glyphname = H;
layers = (
{
associatedMasterId = "98C086B7-81AA-4491-8494-0C6A76849168";
layerId = "1AF83A5C-D8F8-468E-85DE-118B24ECD71C";
name = b;
width = 735;
},
{
anchors = (
{
name = bottom;
position = "{358, 0}";
},
{
name = top;
position = "{363, 563}";
}
);
layerId = "BE4F947C-73D7-4684-AEED-17801393DA53";
paths = (
{
closed = 1;
nodes = (
"288 0 LINE",
"288 53 LINE",
"210 53 LINE",
"210 261 LINE",
"510 261 LINE",
"510 53 LINE",
"431 53 LINE",
"431 0 LINE",
"669 0 LINE",
"669 53 LINE",
"591 53 LINE",
"591 510 LINE",
"669 510 LINE",
"669 563 LINE",
"431 563 LINE",
"431 510 LINE",
"510 510 LINE",
"510 318 LINE",
"210 318 LINE",
"210 510 LINE",
"288 510 LINE",
"288 563 LINE",
"50 563 LINE",
"50 510 LINE",
"128 510 LINE",
"128 53 LINE",
"50 53 LINE",
"50 0 LINE"
);
}
);
width = 719;
},
{
anchors = (
{
name = bottom;
position = "{354, 0}";
},
{
name = top;
position = "{354, 563}";
}
);
layerId = "98C086B7-81AA-4491-8494-0C6A76849168";
paths = (
{
closed = 1;
nodes = (
"250 0 LINE",
"250 22 LINE",
"165 22 LINE",
"165 273 LINE",
"545 273 LINE",
"545 22 LINE",
"460 22 LINE",
"460 0 LINE",
"659 0 LINE",
"659 22 LINE",
"574 22 LINE",
"574 541 LINE",
"659 541 LINE",
"659 563 LINE",
"460 563 LINE",
"460 541 LINE",
"545 541 LINE",
"545 296 LINE",
"165 296 LINE",
"165 541 LINE",
"250 541 LINE",
"250 563 LINE",
"50 563 LINE",
"50 541 LINE",
"135 541 LINE",
"135 22 LINE",
"50 22 LINE",
"50 0 LINE"
);
}
);
width = 709;
},
{
anchors = (
{
name = bottom;
position = "{407, 0}";
},
{
name = top;
position = "{383, 583}";
}
);
layerId = "EFCDB4D9-E20B-4A8D-9DB5-150AD166B0AE";
paths = (
{
closed = 1;
nodes = (
"354 0 LINE",
"354 120 LINE",
"300 120 LINE",
"300 240 LINE",
"466 240 LINE",
"466 120 LINE",
"412 120 LINE",
"412 0 LINE",
"726 0 LINE",
"726 120 LINE",
"666 120 LINE",
"666 463 LINE",
"726 463 LINE",
"726 583 LINE",
"412 583 LINE",
"412 463 LINE",
"466 463 LINE",
"466 350 LINE",
"300 350 LINE",
"300 463 LINE",
"354 463 LINE",
"354 583 LINE",
"40 583 LINE",
"40 463 LINE",
"100 463 LINE",
"100 120 LINE",
"40 120 LINE",
"40 0 LINE"
);
}
);
width = 767;
},
{
anchors = (
{
name = bottom;
position = "{414, 0}";
},
{
name = top;
position = "{413, 563}";
}
);
associatedMasterId = "EFCDB4D9-E20B-4A8D-9DB5-150AD166B0AE";
layerId = "C76185FD-0CA9-4071-82CF-557C88DA7B87";
name = "Bold Aug 18 16, 16:59";
paths = (
{
closed = 1;
nodes = (
"392 0 LINE",
"392 109 LINE",
"307 109 LINE",
"307 231 LINE",
"513 231 LINE",
"513 109 LINE",
"428 109 LINE",
"428 0 LINE",
"799 0 LINE",
"799 109 LINE",
"714 109 LINE",
"714 453 LINE",
"799 453 LINE",
"799 563 LINE",
"428 563 LINE",
"428 453 LINE",
"513 453 LINE",
"513 334 LINE",
"307 334 LINE",
"307 453 LINE",
"392 453 LINE",
"392 563 LINE",
"21 563 LINE",
"21 453 LINE",
"106 453 LINE",
"106 109 LINE",
"21 109 LINE",
"21 0 LINE"
);
}
);
width = 820;
},
{
anchors = (
{
name = bottom;
position = "{347, 0}";
},
{
name = top;
position = "{352, 563}";
}
);
associatedMasterId = "BE4F947C-73D7-4684-AEED-17801393DA53";
layerId = "8343FE66-60E1-4827-84D1-362E231F7FD7";
name = "Regular Aug 18 16, 17:57";
paths = (
{
closed = 1;
nodes = (
"277 0 LINE",
"277 53 LINE",
"199 53 LINE",
"199 261 LINE",
"499 261 LINE",
"499 53 LINE",
"420 53 LINE",
"420 0 LINE",
"658 0 LINE",
"658 53 LINE",
"580 53 LINE",
"580 510 LINE",
"658 510 LINE",
"658 563 LINE",
"420 563 LINE",
"420 510 LINE",
"499 510 LINE",
"499 318 LINE",
"199 318 LINE",
"199 510 LINE",
"277 510 LINE",
"277 563 LINE",
"39 563 LINE",
"39 510 LINE",
"117 510 LINE",
"117 53 LINE",
"39 53 LINE",
"39 0 LINE"
);
}
);
width = 697;
},
{
anchors = (
{
name = bottom;
position = "{364, 0}";
},
{
name = top;
position = "{364, 563}";
}
);
associatedMasterId = "98C086B7-81AA-4491-8494-0C6A76849168";
layerId = "300C54B9-D957-48FE-B68A-6720240CF2D6";
name = "Light Aug 18 16, 17:57";
paths = (
{
closed = 1;
nodes = (
"260 0 LINE",
"260 22 LINE",
"175 22 LINE",
"175 273 LINE",
"555 273 LINE",
"555 22 LINE",
"470 22 LINE",
"470 0 LINE",
"669 0 LINE",
"669 22 LINE",
"584 22 LINE",
"584 541 LINE",
"669 541 LINE",
"669 563 LINE",
"470 563 LINE",
"470 541 LINE",
"555 541 LINE",
"555 296 LINE",
"175 296 LINE",
"175 541 LINE",
"260 541 LINE",
"260 563 LINE",
"60 563 LINE",
"60 541 LINE",
"145 541 LINE",
"145 22 LINE",
"60 22 LINE",
"60 0 LINE"
);
}
);
width = 730;
}
);
unicode = 0048;
userData = {
com.typemytype.robofont.layerData = {
b = {
anchors = (
);
components = (
);
contours = (
);
lib = {
};
name = H;
unicodes = (
);
width = 1506;
};
};
org.robofab.postScriptHintData = {
};
};
},
{
glyphname = Hbar;
layers = (
{
associatedMasterId = "98C086B7-81AA-4491-8494-0C6A76849168";
layerId = "BF9A47A6-30BC-47B7-B747-2D07EBF46B07";
name = b;
width = 718;
},
{
components = (
{
name = H;
transform = "{1, 0, 0, 1, 1, 0}";
}
);
guideLines = (
{
angle = 90;
position = "{670, 510}";
}
);
layerId = "BE4F947C-73D7-4684-AEED-17801393DA53";
paths = (
{
closed = 1;
nodes = (
"50 389 LINE",
"669 389 LINE",
"669 437 LINE",
"50 437 LINE"
);
}
);
width = 720;
},
{
components = (
{
name = H;
}
);
guideLines = (
{
angle = 90;
position = "{657, 518}";
}
);
layerId = "98C086B7-81AA-4491-8494-0C6A76849168";
paths = (
{
closed = 1;
nodes = (
"51 409 LINE",
"657 409 LINE",
"657 431 LINE",
"51 431 LINE"
);
}
);
width = 709;
},
{
anchors = (
{
name = bottom;
position = "{407, 0}";
},
{
name = top;
position = "{383, 583}";
}
);
guideLines = (
{
angle = 90;
position = "{41, 461}";
},
{
angle = 90;
position = "{726, 497}";
}
);
layerId = "EFCDB4D9-E20B-4A8D-9DB5-150AD166B0AE";
paths = (
{
closed = 1;
nodes = (
"41 347 LINE",
"726 347 LINE",
"726 435 LINE",
"41 435 LINE"
);
},
{
closed = 1;
nodes = (
"354 0 LINE",
"354 120 LINE",
"300 120 LINE",
"300 210 LINE",
"466 210 LINE",
"466 120 LINE",
"412 120 LINE",
"412 0 LINE",
"726 0 LINE",
"726 120 LINE",
"666 120 LINE",
"666 463 LINE",
"726 463 LINE",
"726 583 LINE",
"412 583 LINE",
"412 463 LINE",
"466 463 LINE",
"466 320 LINE",
"300 320 LINE",
"300 463 LINE",
"354 463 LINE",
"354 583 LINE",
"40 583 LINE",
"40 463 LINE",
"100 463 LINE",
"100 120 LINE",
"40 120 LINE",
"40 0 LINE"
);
}
);
width = 767;
},
{
associatedMasterId = "EFCDB4D9-E20B-4A8D-9DB5-150AD166B0AE";
components = (
{
name = H;
},
{
name = horizontalbar;
transform = "{1, 0, 0, 1, 54, 0}";
}
);
layerId = "691289D8-5DB9-4D71-939F-DC3BD64A92E0";
name = "Bold Aug 18 16, 16:59";
width = 820;
},
{
associatedMasterId = "BE4F947C-73D7-4684-AEED-17801393DA53";
components = (
{
name = H;
},
{
name = horizontalbar;
transform = "{1, 0, 0, 1, 55, 175}";
}
);
layerId = "2C088B7E-186A-4BF1-BDD3-6621AB2F57CF";
name = "Regular Aug 18 16, 17:57";
width = 697;
},
{
associatedMasterId = "98C086B7-81AA-4491-8494-0C6A76849168";
components = (
{
name = H;
},
{
name = horizontalbar;
transform = "{1, 0, 0, 1, 103, 205}";
}
);
layerId = "81E86DC3-21EF-49B9-B0EA-44B66088508C";
name = "Light Aug 18 16, 17:57";
width = 730;
}
);
leftMetricsKey = H;
rightMetricsKey = H;
unicode = 0126;
userData = {
com.typemytype.robofont.layerData = {
b = {
anchors = (
);
components = (
);
contours = (
);
lib = {
};
name = Hbar;
unicodes = (
);
width = 1471;
};
};
org.robofab.postScriptHintData = {
};
};
},
{
glyphname = I;
layers = (
{
associatedMasterId = "98C086B7-81AA-4491-8494-0C6A76849168";
layerId = "DACE4A57-ED08-4CFE-9D0D-C36DFDEF4634";
name = b;
width = 306;
},
{
anchors = (
{
name = bottom;
position = "{159, 0}";
},
{
name = ogonek;
position = "{179, 0}";
},
{
name = top;
position = "{160, 563}";
}
);
layerId = "BE4F947C-73D7-4684-AEED-17801393DA53";
paths = (
{
closed = 1;
nodes = (
"279 0 LINE",
"279 53 LINE",
"200 53 LINE",
"200 510 LINE",
"279 510 LINE",
"279 563 LINE",
"40 563 LINE",
"40 510 LINE",
"118 510 LINE",
"118 53 LINE",
"40 53 LINE",
"40 0 LINE"
);
}
);
width = 319;
},
{
anchors = (
{
name = bottom;
position = "{157, 0}";
},
{
name = ogonek;
position = "{166, 0}";
},
{
name = top;
position = "{158, 563}";
}
);
layerId = "98C086B7-81AA-4491-8494-0C6A76849168";
paths = (
{
closed = 1;
nodes = (
"256 0 LINE",
"256 22 LINE",
"171 22 LINE",
"171 541 LINE",
"256 541 LINE",
"256 563 LINE",
"56 563 LINE",
"56 541 LINE",
"141 541 LINE",
"141 22 LINE",
"56 22 LINE",
"56 0 LINE"
);
}
);
width = 312;
},
{
anchors = (
{
name = bottom;
position = "{200, 0}";
},
{
name = ogonek;
position = "{220, 0}";
},
{
name = top;
position = "{200, 583}";
}
);
layerId = "EFCDB4D9-E20B-4A8D-9DB5-150AD166B0AE";
paths = (
{
closed = 1;
nodes = (
"350 0 LINE",
"350 119 LINE",
"300 119 LINE",
"300 463 LINE",
"350 463 LINE",
"350 583 LINE",
"50 583 LINE",
"50 463 LINE",
"100 463 LINE",
"100 119 LINE",
"50 119 LINE",
"50 0 LINE"
);
}
);
width = 400;
},
{
anchors = (
{
name = top;
position = "{198, 561}";
}
);
associatedMasterId = "EFCDB4D9-E20B-4A8D-9DB5-150AD166B0AE";
layerId = "FD092480-AD87-4F63-842A-1793E2D36773";
name = "Bold Aug 18 16, 16:59";
paths = (
{
closed = 1;
nodes = (
"387 0 LINE",
"387 109 LINE",
"302 109 LINE",
"302 453 LINE",
"387 453 LINE",
"387 563 LINE",
"16 563 LINE",
"16 453 LINE",
"101 453 LINE",
"101 109 LINE",
"16 109 LINE",
"16 0 LINE"
);
}
);
width = 403;
},
{
anchors = (
{
name = top;
position = "{170, 563}";
}
);
associatedMasterId = "BE4F947C-73D7-4684-AEED-17801393DA53";
layerId = "0B43080B-A9E1-40EA-8C33-8859BBD408F8";
name = "Regular Aug 18 16, 17:57";
paths = (
{
closed = 1;
nodes = (
"289 0 LINE",
"289 53 LINE",
"210 53 LINE",
"210 510 LINE",
"289 510 LINE",
"289 563 LINE",
"50 563 LINE",
"50 510 LINE",
"128 510 LINE",
"128 53 LINE",
"50 53 LINE",
"50 0 LINE"
);
}
);
width = 339;
},
{
anchors = (
{
name = top;
position = "{157, 563}";
}
);
associatedMasterId = "98C086B7-81AA-4491-8494-0C6A76849168";
layerId = "956A08EB-C4CB-4C47-8670-8BF15B805740";
name = "Light Aug 18 16, 17:57";
paths = (
{
closed = 1;
nodes = (
"255 0 LINE",
"255 22 LINE",
"170 22 LINE",
"170 541 LINE",
"255 541 LINE",
"255 563 LINE",
"55 563 LINE",
"55 541 LINE",
"140 541 LINE",
"140 22 LINE",
"55 22 LINE",
"55 0 LINE"
);
}
);
width = 311;
}
);
unicode = 0049;
userData = {
com.typemytype.robofont.layerData = {
b = {
anchors = (
);
components = (
);
contours = (
);
lib = {
};
name = I;
unicodes = (
);
width = 626;
};
};
org.robofab.postScriptHintData = {
};
};
},
{
glyphname = J;
layers = (
{
associatedMasterId = "98C086B7-81AA-4491-8494-0C6A76849168";
layerId = "DAAAB9ED-565D-4E7A-8536-677C7F804F15";
name = b;
width = 269;
},
{
anchors = (
{
name = top;
position = "{168, 563}";
}
);
layerId = "BE4F947C-73D7-4684-AEED-17801393DA53";
paths = (
{
closed = 1;
nodes = (
"34 -144 LINE",
"129 -140 OFFCURVE",
"206 -89 OFFCURVE",
"206 92 CURVE SMOOTH",
"206 510 LINE",
"281 510 LINE",
"281 563 LINE",
"50 563 LINE",
"50 510 LINE",
"129 510 LINE",
"129 90 LINE SMOOTH",
"129 -2 OFFCURVE",
"115 -70 OFFCURVE",
"39 -83 CURVE SMOOTH",
"27 -85 LINE",
"27 -144 LINE"
);
}
);
width = 326;
},
{
anchors = (
{
name = top;
position = "{150, 563}";
}
);
guideLines = (
{
angle = 90;
position = "{82, 537}";
}
);
layerId = "98C086B7-81AA-4491-8494-0C6A76849168";
paths = (
{
closed = 1;
nodes = (
"236 541 LINE",
"236 563 LINE",
"65 563 LINE",
"65 541 LINE",
"166 541 LINE"
);
},
{
closed = 1;
nodes = (
"165 -16 OFFCURVE",
"178 -112 OFFCURVE",
"61 -121 CURVE SMOOTH",
"48 -122 LINE",
"48 -96 LINE",
"65 -94 LINE SMOOTH",
"136 -86 OFFCURVE",
"135 -24 OFFCURVE",
"135 43 CURVE SMOOTH",
"135 541 LINE",
"166 541 LINE",
"165 71 LINE SMOOTH"
);
}
);
width = 309;
},
{
anchors = (
{
name = top;
position = "{204, 583}";
}
);
layerId = "EFCDB4D9-E20B-4A8D-9DB5-150AD166B0AE";
paths = (
{
closed = 1;
nodes = (
"43 -199 LINE SMOOTH",
"181 -199 OFFCURVE",
"302 -128 OFFCURVE",
"302 74 CURVE SMOOTH",
"302 473 LINE",
"360 473 LINE",
"360 583 LINE",
"50 583 LINE",
"50 473 LINE",
"118 473 LINE",
"118 63 LINE SMOOTH",
"118 -25 OFFCURVE",
"67 -67 OFFCURVE",
"11 -77 CURVE SMOOTH",
"0 -79 LINE",
"0 -199 LINE"
);
}
);
width = 403;
},
{
anchors = (
{
name = top;
position = "{208, 563}";
}
);
associatedMasterId = "EFCDB4D9-E20B-4A8D-9DB5-150AD166B0AE";
layerId = "2BDB9C2D-46C3-4CFA-A082-AF6F5787C6ED";
name = "Bold Aug 18 16, 16:59";
paths = (
{
closed = 1;
nodes = (
"107 -159 LINE SMOOTH",
"294 -159 OFFCURVE",
"317 -44 OFFCURVE",
"317 117 CURVE SMOOTH",
"317 453 LINE",
"411 453 LINE",
"411 563 LINE",
"13 563 LINE",
"13 453 LINE",
"118 453 LINE",
"118 91 LINE SMOOTH",
"118 44 OFFCURVE",
"106 -13 OFFCURVE",
"54 -13 CURVE SMOOTH",
"12 -13 LINE",
"12 -159 LINE"
);
}
);
width = 426;
},
{
anchors = (
{
name = top;
position = "{191, 563}";
}
);
associatedMasterId = "BE4F947C-73D7-4684-AEED-17801393DA53";
layerId = "55635135-5E62-4B2B-B6E5-D7A880BEFE37";
name = "Regular Aug 18 16, 17:57";
paths = (
{
closed = 1;
nodes = (
"106 -106 LINE",
"198 -106 OFFCURVE",
"231 -57 OFFCURVE",
"231 41 CURVE SMOOTH",
"231 510 LINE",
"304 510 LINE",
"304 563 LINE",
"73 563 LINE",
"73 510 LINE",
"150 510 LINE",
"150 40 LINE SMOOTH",
"150 -10 OFFCURVE",
"142 -42 OFFCURVE",
"93 -42 CURVE SMOOTH",
"33 -42 LINE",
"33 -106 LINE"
);
}
);
width = 326;
},
{
anchors = (
{
name = top;
position = "{172, 563}";
}
);
associatedMasterId = "98C086B7-81AA-4491-8494-0C6A76849168";
layerId = "880DC980-D6E0-4D36-9F7C-ACB54FEEB8CA";
name = "Light Aug 18 16, 17:57";
paths = (
{
closed = 1;
nodes = (
"104 -32 LINE",
"159 -32 OFFCURVE",
"185 -17 OFFCURVE",
"185 73 CURVE SMOOTH",
"185 541 LINE",
"246 541 LINE",
"246 563 LINE",
"89 563 LINE",
"89 541 LINE",
"154 541 LINE",
"154 78 LINE SMOOTH",
"154 16 OFFCURVE",
"149 -9 OFFCURVE",
"109 -9 CURVE SMOOTH",
"49 -9 LINE",
"49 -32 LINE"
);
}
);
width = 277;
}
);
unicode = 004A;
userData = {
com.typemytype.robofont.layerData = {
b = {
anchors = (
);
components = (
);
contours = (
);
lib = {
};
name = J;
unicodes = (
);
width = 551;
};
};
org.robofab.postScriptHintData = {
};
};
},
{
glyphname = K;
layers = (
{
associatedMasterId = "98C086B7-81AA-4491-8494-0C6A76849168";
layerId = "E21F7AEE-743B-4BDC-B398-DB9489CC4474";
name = b;
width = 637;
},
{
anchors = (
{
name = bottom;
position = "{340, 0}";
},
{
name = top;
position = "{340, 563}";
}
);
layerId = "BE4F947C-73D7-4684-AEED-17801393DA53";
paths = (
{
closed = 1;
nodes = (
"639 0 LINE",
"639 53 LINE",
"564 53 LINE",
"314 296 LINE",
"547 510 LINE",
"621 510 LINE",
"621 563 LINE",
"388 563 LINE",
"388 510 LINE",
"456 510 LINE",
"222 294 LINE",
"222 289 LINE",
"464 53 LINE",
"398 53 LINE",
"398 0 LINE"
);
},
{
closed = 1;
nodes = (
"313 0 LINE",
"313 53 LINE",
"235 53 LINE",
"235 510 LINE",
"313 510 LINE",
"313 563 LINE",
"75 563 LINE",
"75 510 LINE",
"153 510 LINE",
"153 53 LINE",
"75 53 LINE",
"75 0 LINE"
);
}
);
width = 678;
},
{
anchors = (
{
name = bottom;
position = "{312, 0}";
},
{
name = top;
position = "{303, 563}";
}
);
guideLines = (
{
position = "{208, 290}";
}
);
layerId = "98C086B7-81AA-4491-8494-0C6A76849168";
paths = (
{
closed = 1;
nodes = (
"590 0 LINE",
"590 22 LINE",
"511 22 LINE",
"216 287 LINE",
"491 541 LINE",
"574 541 LINE",
"574 563 LINE",
"372 563 LINE",
"372 541 LINE",
"456 541 LINE",
"181 289 LINE",
"181 284 LINE",
"474 22 LINE",
"391 22 LINE",
"391 0 LINE"
);
},
{
closed = 1;
nodes = (
"240 0 LINE",
"240 22 LINE",
"155 22 LINE",
"155 282 LINE",
"155 541 LINE",
"240 541 LINE",
"240 563 LINE",
"40 563 LINE",
"40 541 LINE",
"125 541 LINE",
"125 22 LINE",
"40 22 LINE",
"40 0 LINE"
);
}
);
width = 595;
},
{
anchors = (
{
name = bottom;
position = "{421, 0}";
},
{
name = top;
position = "{379, 583}";
}
);
guideLines = (
{
position = "{222, 290}";
}
);
layerId = "EFCDB4D9-E20B-4A8D-9DB5-150AD166B0AE";
paths = (
{
closed = 1;
nodes = (
"351 0 LINE",
"351 120 LINE",
"301 120 LINE",
"301 277 LINE",
"444 120 LINE",
"404 120 LINE",
"404 0 LINE",
"698 0 LINE",
"698 120 LINE",
"657 120 LINE",
"485 305 LINE",
"642 463 LINE",
"689 463 LINE",
"689 583 LINE",
"404 583 LINE",
"404 463 LINE",
"455 463 LINE",
"301 313 LINE",
"301 463 LINE",
"351 463 LINE",
"351 583 LINE",
"50 583 LINE",
"50 463 LINE",
"100 463 LINE",
"100 120 LINE",
"50 120 LINE",
"50 0 LINE"
);
}
);
width = 715;
},
{
anchors = (
{
name = bottom;
position = "{427, 0}";
},
{
name = top;
position = "{425, 563}";
}
);
associatedMasterId = "EFCDB4D9-E20B-4A8D-9DB5-150AD166B0AE";
guideLines = (
{
position = "{228, 290}";
}
);
layerId = "9BF98F1A-C73F-4B89-B61F-4218F960677C";
name = "Bold Aug 18 16, 16:59";
paths = (
{
closed = 1;
nodes = (
"392 0 LINE",
"392 109 LINE",
"307 109 LINE",
"307 295 LINE",
"483 109 LINE",
"438 109 LINE",
"438 0 LINE",
"793 0 LINE",
"793 109 LINE",
"739 109 LINE",
"524 325 LINE",
"687 453 LINE",
"784 453 LINE",
"784 563 LINE",
"438 563 LINE",
"438 453 LINE",
"524 453 LINE",
"307 297 LINE",
"307 453 LINE",
"392 453 LINE",
"392 563 LINE",
"21 563 LINE",
"21 453 LINE",
"106 453 LINE",
"106 109 LINE",
"21 109 LINE",
"21 0 LINE"
);
}
);
width = 813;
},
{
anchors = (
{
name = bottom;
position = "{317, 0}";
},
{
name = top;
position = "{317, 563}";
}
);
associatedMasterId = "BE4F947C-73D7-4684-AEED-17801393DA53";
guideLines = (
{
position = "{228, 290}";
}
);
layerId = "E3E13658-17C7-4259-9AE5-7066B22B8E2B";
name = "Regular Aug 18 16, 17:57";
paths = (
{
closed = 1;
nodes = (
"277 0 LINE",
"277 53 LINE",
"199 53 LINE",
"199 267 LINE",
"430 53 LINE",
"364 53 LINE",
"364 0 LINE",
"605 0 LINE",
"605 53 LINE",
"530 53 LINE",
"282 284 LINE",
"526 510 LINE",
"600 510 LINE",
"600 563 LINE",
"367 563 LINE",
"367 510 LINE",
"431 510 LINE",
"199 295 LINE",
"199 510 LINE",
"277 510 LINE",
"277 563 LINE",
"39 563 LINE",
"39 510 LINE",
"117 510 LINE",
"117 53 LINE",
"39 53 LINE",
"39 0 LINE"
);
}
);
width = 633;
},
{
anchors = (
{
name = bottom;
position = "{332, 0}";
},
{
name = top;
position = "{323, 563}";
}
);
associatedMasterId = "98C086B7-81AA-4491-8494-0C6A76849168";
guideLines = (
{
position = "{228, 290}";
}
);
layerId = "862C9B48-F15D-4A14-AA00-FB66CF97854A";
name = "Light Aug 18 16, 17:57";
paths = (
{
closed = 1;
nodes = (
"260 0 LINE",
"260 22 LINE",
"175 22 LINE",
"175 284 LINE",
"479 22 LINE",
"404 22 LINE",
"404 0 LINE",
"595 0 LINE",
"595 22 LINE",
"516 22 LINE",
"211 287 LINE",
"496 541 LINE",
"579 541 LINE",
"579 563 LINE",
"385 563 LINE",
"385 541 LINE",
"461 541 LINE",
"175 289 LINE",
"175 541 LINE",
"260 541 LINE",
"260 563 LINE",
"60 563 LINE",
"60 541 LINE",
"145 541 LINE",
"145 22 LINE",
"60 22 LINE",
"60 0 LINE"
);
}
);
width = 636;
}
);
unicode = 004B;
userData = {
com.typemytype.robofont.guides = (
{
angle = 0;
isGlobal = 0;
magnetic = 5;
x = 467;
y = 593;
}
);
com.typemytype.robofont.layerData = {
b = {
anchors = (
);
components = (
);
contours = (
);
lib = {
};
name = K;
unicodes = (
);
width = 1304;
};
};
org.robofab.postScriptHintData = {
};
};
},
{
glyphname = L;
layers = (
{
associatedMasterId = "98C086B7-81AA-4491-8494-0C6A76849168";
layerId = "9D454392-E1FE-4228-8A29-7CFB70DD62E7";
name = b;
width = 515;
},
{
anchors = (
{
name = bottom;
position = "{299, 0}";
},
{
name = top;
position = "{181, 563}";
},
{
name = topright;
position = "{426, 563}";
}
);
guideLines = (
{
angle = 90;
position = "{1047, 226}";
}
);
layerId = "BE4F947C-73D7-4684-AEED-17801393DA53";
paths = (
{
closed = 1;
nodes = (
"522 0 LINE",
"522 226 LINE",
"456 226 LINE",
"456 53 LINE",
"222 53 LINE",
"222 510 LINE",
"300 510 LINE",
"300 563 LINE",
"62 563 LINE",
"62 510 LINE",
"140 510 LINE",
"140 53 LINE",
"62 53 LINE",
"62 0 LINE"
);
}
);
width = 586;
},
{
anchors = (
{
name = bottom;
position = "{313, 0}";
},
{
name = top;
position = "{160, 563}";
},
{
name = topright;
position = "{443, 563}";
}
);
guideLines = (
{
angle = 90;
position = "{1008, 182}";
}
);
layerId = "98C086B7-81AA-4491-8494-0C6A76849168";
paths = (
{
closed = 1;
nodes = (
"491 0 LINE",
"491 182 LINE",
"466 182 LINE",
"466 22 LINE",
"175 22 LINE",
"175 541 LINE",
"260 541 LINE",
"260 563 LINE",
"60 563 LINE",
"60 541 LINE",
"145 541 LINE",
"145 22 LINE",
"60 22 LINE",
"60 0 LINE"
);
}
);
width = 544;
},
{
anchors = (
{
name = bottom;
position = "{306, 0}";
},
{
name = top;
position = "{200, 583}";
},
{
name = topright;
position = "{404, 583}";
}
);
layerId = "EFCDB4D9-E20B-4A8D-9DB5-150AD166B0AE";
paths = (
{
closed = 1;
nodes = (
"561 0 LINE",
"561 265 LINE",
"431 265 LINE",
"431 120 LINE",
"300 120 LINE",
"300 473 LINE",
"350 473 LINE",
"350 583 LINE",
"50 583 LINE",
"50 473 LINE",
"100 473 LINE",
"100 120 LINE",
"50 120 LINE",
"50 0 LINE"
);
}
);
width = 588;
},
{
anchors = (
{
name = bottom;
position = "{337, 0}";
},
{
name = caron.alt;
position = "{354, 457}";
},
{
name = top;
position = "{182, 563}";
}
);
associatedMasterId = "EFCDB4D9-E20B-4A8D-9DB5-150AD166B0AE";
layerId = "9B6C00C9-4EDA-48A0-9951-BD63A4567A9B";
name = "Bold Aug 18 16, 16:59";
paths = (
{
closed = 1;
nodes = (
"638 0 LINE",
"638 286 LINE",
"478 286 LINE",
"478 109 LINE",
"307 109 LINE",
"307 453 LINE",
"392 453 LINE",
"392 563 LINE",
"21 563 LINE",
"21 453 LINE",
"106 453 LINE",
"106 109 LINE",
"21 109 LINE",
"21 0 LINE"
);
}
);
width = 672;
},
{
anchors = (
{
name = bottom;
position = "{276, 0}";
},
{
name = caron.alt;
position = "{326, 393}";
},
{
name = top;
position = "{362, 563}";
}
);
associatedMasterId = "BE4F947C-73D7-4684-AEED-17801393DA53";
layerId = "10665C54-BADF-427E-B9C7-A313E9BCE210";
name = "Regular Aug 18 16, 17:57";
paths = (
{
closed = 1;
nodes = (
"499 0 LINE",
"499 226 LINE",
"433 226 LINE",
"433 53 LINE",
"199 53 LINE",
"199 510 LINE",
"277 510 LINE",
"277 563 LINE",
"39 563 LINE",
"39 510 LINE",
"117 510 LINE",
"117 53 LINE",
"39 53 LINE",
"39 0 LINE"
);
}
);
width = 525;
},
{
anchors = (
{
name = bottom;
position = "{313, 0}";
},
{
name = caron.alt;
position = "{260, 393}";
},
{
name = top;
position = "{350, 563}";
}
);
associatedMasterId = "98C086B7-81AA-4491-8494-0C6A76849168";
layerId = "16F588E1-70F4-4B1B-AA56-1424559C7AC6";
name = "Light Aug 18 16, 17:57";
paths = (
{
closed = 1;
nodes = (
"491 0 LINE",
"491 182 LINE",
"466 182 LINE",
"466 22 LINE",
"175 22 LINE",
"175 541 LINE",
"260 541 LINE",
"260 563 LINE",
"60 563 LINE",
"60 541 LINE",
"145 541 LINE",
"145 22 LINE",
"60 22 LINE",
"60 0 LINE"
);
}
);
width = 517;
}
);
unicode = 004C;
userData = {
com.typemytype.robofont.layerData = {
b = {
anchors = (
);
components = (
);
contours = (
);
lib = {
};
name = L;
unicodes = (
);
width = 1055;
};
};
org.robofab.postScriptHintData = {
};
};
},
{
glyphname = Lslash;
layers = (
{
associatedMasterId = "98C086B7-81AA-4491-8494-0C6A76849168";
layerId = "BA1BE605-30D4-47C1-A7F6-2C92B3CCB92C";
name = b;
width = 607;
},
{
components = (
{
name = L;
transform = "{1, 0, 0, 1, 23, 0}";
}
);
layerId = "BE4F947C-73D7-4684-AEED-17801393DA53";
paths = (
{
closed = 1;
nodes = (
"361 347 LINE",
"361 401 LINE",
"62 250 LINE",
"62 199 LINE"
);
}
);
width = 609;
},
{
components = (
{
name = L;
}
);
layerId = "98C086B7-81AA-4491-8494-0C6A76849168";
paths = (
{
closed = 1;
nodes = (
"283 337 LINE",
"283 366 LINE",
"60 237 LINE",
"60 210 LINE"
);
}
);
width = 544;
},
{
components = (
{
name = L;
}
);
layerId = "EFCDB4D9-E20B-4A8D-9DB5-150AD166B0AE";
paths = (
{
closed = 1;
nodes = (
"440 341 LINE",
"440 419 LINE",
"50 271 LINE",
"50 190 LINE"
);
}
);
width = 588;
},
{
associatedMasterId = "EFCDB4D9-E20B-4A8D-9DB5-150AD166B0AE";
components = (
{
name = L;
}
);
layerId = "BF69FB35-0F0D-4E8C-BCE3-B310F892CAC9";
name = "Bold Aug 18 16, 16:59";
paths = (
{
closed = 1;
nodes = (
"415 331 LINE",
"415 409 LINE",
"14 251 LINE",
"14 170 LINE"
);
}
);
width = 645;
},
{
associatedMasterId = "BE4F947C-73D7-4684-AEED-17801393DA53";
components = (
{
name = L;
}
);
layerId = "78692B7D-7DE0-4276-8D55-B24DEB8698D9";
name = "Regular Aug 18 16, 17:57";
paths = (
{
closed = 1;
nodes = (
"293 337 LINE",
"293 391 LINE",
"44 250 LINE",
"44 199 LINE"
);
}
);
width = 588;
},
{
associatedMasterId = "98C086B7-81AA-4491-8494-0C6A76849168";
components = (
{
name = L;
}
);
layerId = "A0770F4F-B1E4-49E8-B73F-BDC3FC3E12AB";
name = "Light Aug 18 16, 17:57";
paths = (
{
closed = 1;
nodes = (
"261 337 LINE",
"261 366 LINE",
"58 237 LINE",
"58 210 LINE"
);
}
);
width = 604;
}
);
leftMetricsKey = L;
rightMetricsKey = L;
unicode = 0141;
userData = {
com.typemytype.robofont.layerData = {
b = {
anchors = (
);
components = (
);
contours = (
);
lib = {
};
name = Lslash;
unicodes = (
);
width = 1243;
};
};
org.robofab.postScriptHintData = {
};
};
},
{
glyphname = M;
layers = (
{
associatedMasterId = "98C086B7-81AA-4491-8494-0C6A76849168";
layerId = "8003861B-37E0-46C3-A351-46ECCC712170";
name = b;
width = 784;
},
{
anchors = (
{
name = bottom;
position = "{405, 0}";
},
{
name = top;
position = "{409, 563}";
}
);
layerId = "BE4F947C-73D7-4684-AEED-17801393DA53";
paths = (
{
closed = 1;
nodes = (
"260 0 LINE",
"260 53 LINE",
"187 53 LINE",
"187 496 LINE",
"402 0 LINE",
"428 0 LINE",
"630 496 LINE",
"630 53 LINE",
"557 53 LINE",
"557 0 LINE",
"784 0 LINE",
"784 53 LINE",
"708 53 LINE",
"708 510 LINE",
"784 510 LINE",
"784 563 LINE",
"586 563 LINE",
"424 142 LINE",
"241 563 LINE",
"40 563 LINE",
"40 510 LINE",
"116 510 LINE",
"116 53 LINE",
"40 53 LINE",
"40 0 LINE"
);
}
);
width = 824;
},
{
anchors = (
{
name = bottom;
position = "{392, 0}";
},
{
name = top;
position = "{380, 563}";
}
);
layerId = "98C086B7-81AA-4491-8494-0C6A76849168";
paths = (
{
closed = 1;
nodes = (
"234 0 LINE",
"234 22 LINE",
"158 22 LINE",
"158 514 LINE",
"387 0 LINE",
"393 0 LINE",
"611 514 LINE",
"611 22 LINE",
"534 22 LINE",
"534 0 LINE",
"715 0 LINE",
"715 22 LINE",
"640 22 LINE",
"640 541 LINE",
"715 541 LINE",
"715 563 LINE",
"604 563 LINE",
"391 56 LINE",
"165 563 LINE",
"56 563 LINE",
"56 541 LINE",
"131 541 LINE",
"131 22 LINE",
"56 22 LINE",
"56 0 LINE"
);
}
);
width = 771;
},
{
anchors = (
{
name = bottom;
position = "{452, 0}";
},
{
name = top;
position = "{473, 583}";
}
);
layerId = "EFCDB4D9-E20B-4A8D-9DB5-150AD166B0AE";
paths = (
{
closed = 1;
nodes = (
"310 0 LINE",
"310 120 LINE",
"260 120 LINE",
"260 403 LINE",
"420 0 LINE",
"483 0 LINE",
"641 403 LINE",
"641 120 LINE",
"591 120 LINE",
"591 0 LINE",
"881 0 LINE",
"881 120 LINE",
"831 120 LINE",
"831 463 LINE",
"881 463 LINE",
"881 583 LINE",
"581 583 LINE",
"475 301 LINE",
"367 583 LINE",
"50 583 LINE",
"50 463 LINE",
"100 463 LINE",
"100 120 LINE",
"50 120 LINE",
"50 0 LINE"
);
}
);
width = 931;
},
{
anchors = (
{
name = top;
position = "{499, 563}";
}
);
associatedMasterId = "EFCDB4D9-E20B-4A8D-9DB5-150AD166B0AE";
layerId = "613CB16C-BC48-46E7-8E66-C2D3E1BEFE9A";
name = "Bold Aug 18 16, 16:59";
paths = (
{
closed = 1;
nodes = (
"312 0 LINE",
"312 109 LINE",
"237 109 LINE",
"237 441 LINE",
"416 11 LINE",
"507 11 LINE",
"688 441 LINE",
"688 109 LINE",
"606 109 LINE",
"606 0 LINE",
"976 0 LINE",
"976 109 LINE",
"883 109 LINE",
"883 453 LINE",
"974 453 LINE",
"974 563 LINE",
"630 563 LINE",
"499 261 LINE",
"368 563 LINE",
"21 563 LINE",
"21 453 LINE",
"107 453 LINE",
"107 109 LINE",
"21 109 LINE",
"21 0 LINE"
);
}
);
width = 998;
},
{
anchors = (
{
name = top;
position = "{410, 563}";
}
);
associatedMasterId = "BE4F947C-73D7-4684-AEED-17801393DA53";
layerId = "6808AABD-5686-4521-99EA-25C732A1B500";
name = "Regular Aug 18 16, 17:57";
paths = (
{
closed = 1;
nodes = (
"251 0 LINE",
"251 53 LINE",
"178 53 LINE",
"178 496 LINE",
"393 29 LINE",
"419 29 LINE",
"631 496 LINE",
"631 53 LINE",
"558 53 LINE",
"558 0 LINE",
"785 0 LINE",
"785 53 LINE",
"709 53 LINE",
"709 510 LINE",
"785 510 LINE",
"785 563 LINE",
"591 563 LINE",
"416 168 LINE",
"232 563 LINE",
"41 563 LINE",
"41 510 LINE",
"117 510 LINE",
"117 53 LINE",
"41 53 LINE",
"41 0 LINE"
);
}
);
width = 824;
},
{
anchors = (
{
name = top;
position = "{391, 563}";
}
);
associatedMasterId = "98C086B7-81AA-4491-8494-0C6A76849168";
layerId = "3C506C00-84A8-41DF-9C35-111EE55E15AF";
name = "Light Aug 18 16, 17:57";
paths = (
{
closed = 1;
nodes = (
"245 0 LINE",
"245 22 LINE",
"169 22 LINE",
"169 514 LINE",
"398 48 LINE",
"404 48 LINE",
"622 514 LINE",
"622 22 LINE",
"545 22 LINE",
"545 0 LINE",
"726 0 LINE",
"726 22 LINE",
"651 22 LINE",
"651 541 LINE",
"726 541 LINE",
"726 563 LINE",
"615 563 LINE",
"402 104 LINE",
"176 563 LINE",
"67 563 LINE",
"67 541 LINE",
"142 541 LINE",
"142 22 LINE",
"67 22 LINE",
"67 0 LINE"
);
}
);
width = 790;
}
);
unicode = 004D;
userData = {
com.typemytype.robofont.layerData = {
b = {
anchors = (
);
components = (
);
contours = (
);
lib = {
};
name = M;
unicodes = (
);
width = 1606;
};
};
org.robofab.postScriptHintData = {
};
};
},
{
glyphname = N;
layers = (
{
associatedMasterId = "98C086B7-81AA-4491-8494-0C6A76849168";
layerId = "A7199EE0-4705-4F4D-B08B-49BF6298EE89";
name = b;
width = 705;
},
{
anchors = (
{
name = bottom;
position = "{359, 0}";
},
{
name = top;
position = "{342, 563}";
}
);
layerId = "BE4F947C-73D7-4684-AEED-17801393DA53";
paths = (
{
closed = 1;
nodes = (
"254 0 LINE",
"254 53 LINE",
"174 53 LINE",
"174 479 LINE",
"510 0 LINE",
"591 0 LINE",
"591 510 LINE",
"669 510 LINE",
"669 563 LINE",
"448 563 LINE",
"448 510 LINE",
"528 510 LINE",
"528 108 LINE",
"206 563 LINE",
"32 563 LINE",
"32 510 LINE",
"112 510 LINE",
"112 53 LINE",
"32 53 LINE",
"32 0 LINE"
);
}
);
width = 700;
},
{
anchors = (
{
name = bottom;
position = "{385, 0}";
},
{
name = top;
position = "{353, 563}";
}
);
layerId = "98C086B7-81AA-4491-8494-0C6A76849168";
paths = (
{
closed = 1;
nodes = (
"238 0 LINE",
"238 22 LINE",
"165 22 LINE",
"165 518 LINE",
"575 0 LINE",
"605 0 LINE",
"605 541 LINE",
"668 541 LINE",
"668 563 LINE",
"503 563 LINE",
"503 541 LINE",
"578 541 LINE",
"578 42 LINE",
"165 563 LINE",
"65 563 LINE",
"65 541 LINE",
"137 541 LINE",
"137 22 LINE",
"65 22 LINE",
"65 0 LINE"
);
}
);
width = 732;
},
{
anchors = (
{
name = bottom;
position = "{401, 0}";
},
{
name = top;
position = "{409, 583}";
}
);
layerId = "EFCDB4D9-E20B-4A8D-9DB5-150AD166B0AE";
paths = (
{
closed = 1;
nodes = (
"292 0 LINE",
"292 120 LINE",
"232 120 LINE",
"232 381 LINE",
"480 0 LINE",
"681 0 LINE",
"681 463 LINE",
"731 463 LINE",
"731 583 LINE",
"491 583 LINE",
"491 463 LINE",
"551 463 LINE",
"551 249 LINE",
"336 583 LINE",
"50 583 LINE",
"50 463 LINE",
"100 463 LINE",
"100 120 LINE",
"50 120 LINE",
"50 0 LINE"
);
}
);
width = 772;
},
{
anchors = (
{
name = bottom;
position = "{478, 0}";
},
{
name = top;
position = "{450, 563}";
}
);
associatedMasterId = "EFCDB4D9-E20B-4A8D-9DB5-150AD166B0AE";
layerId = "97D9E96B-C693-47BB-BC6A-18367A7C887F";
name = "Bold Aug 18 16, 16:59";
paths = (
{
closed = 1;
nodes = (
"324 0 LINE",
"324 109 LINE",
"239 109 LINE",
"239 374 LINE",
"576 0 LINE",
"737 0 LINE",
"737 453 LINE",
"832 453 LINE",
"832 563 LINE",
"525 563 LINE",
"525 453 LINE",
"607 453 LINE",
"607 269 LINE",
"323 563 LINE",
"21 563 LINE",
"21 453 LINE",
"112 453 LINE",
"112 109 LINE",
"21 109 LINE",
"21 0 LINE"
);
}
);
width = 850;
},
{
anchors = (
{
name = bottom;
position = "{351, 0}";
},
{
name = top;
position = "{351, 563}";
}
);
associatedMasterId = "BE4F947C-73D7-4684-AEED-17801393DA53";
layerId = "7FD0BEEA-4A32-478B-A185-41E2B7913790";
name = "Regular Aug 18 16, 17:57";
paths = (
{
closed = 1;
nodes = (
"263 0 LINE",
"263 53 LINE",
"183 53 LINE",
"183 479 LINE",
"519 0 LINE",
"600 0 LINE",
"600 510 LINE",
"678 510 LINE",
"678 563 LINE",
"457 563 LINE",
"457 510 LINE",
"537 510 LINE",
"537 108 LINE",
"215 563 LINE",
"41 563 LINE",
"41 510 LINE",
"121 510 LINE",
"121 53 LINE",
"41 53 LINE",
"41 0 LINE"
);
}
);
width = 704;
},
{
anchors = (
{
name = bottom;
position = "{348, 0}";
},
{
name = top;
position = "{352, 563}";
}
);
associatedMasterId = "98C086B7-81AA-4491-8494-0C6A76849168";
layerId = "664AA91C-16AF-48F1-8530-933CFE96A00B";
name = "Light Aug 18 16, 17:57";
paths = (
{
closed = 1;
nodes = (
"237 0 LINE",
"237 22 LINE",
"164 22 LINE",
"164 518 LINE",
"574 0 LINE",
"604 0 LINE",
"604 541 LINE",
"667 541 LINE",
"667 563 LINE",
"502 563 LINE",
"502 541 LINE",
"577 541 LINE",
"577 42 LINE",
"164 563 LINE",
"64 563 LINE",
"64 541 LINE",
"136 541 LINE",
"136 22 LINE",
"64 22 LINE",
"64 0 LINE"
);
}
);
width = 705;
}
);
unicode = 004E;
userData = {
com.typemytype.robofont.layerData = {
b = {
anchors = (
);
components = (
);
contours = (
);
lib = {
};
name = N;
unicodes = (
);
width = 1444;
};
};
org.robofab.postScriptHintData = {
};
};
},
{
glyphname = Eng;
layers = (
{
layerId = "BE4F947C-73D7-4684-AEED-17801393DA53";
paths = (
{
closed = 1;
nodes = (
"422 -184 LINE SMOOTH",
"527 -184 OFFCURVE",
"609 -128 OFFCURVE",
"609 -1 CURVE SMOOTH",
"609 510 LINE",
"687 510 LINE",
"687 563 LINE",
"466 563 LINE",
"466 510 LINE",
"546 510 LINE",
"546 108 LINE",
"224 563 LINE",
"50 563 LINE",
"50 510 LINE",
"130 510 LINE",
"130 53 LINE",
"50 53 LINE",
"50 0 LINE",
"272 0 LINE",
"272 53 LINE",
"192 53 LINE",
"192 479 LINE",
"546 -14 LINE",
"547 -88 OFFCURVE",
"503 -130 OFFCURVE",
"420 -130 CURVE SMOOTH",
"402 -130 LINE",
"402 -184 LINE"
);
}
);
width = 718;
},
{
layerId = "98C086B7-81AA-4491-8494-0C6A76849168";
paths = (
{
closed = 1;
nodes = (
"411 -176 LINE SMOOTH",
"522 -176 OFFCURVE",
"590 -120 OFFCURVE",
"590 -1 CURVE SMOOTH",
"590 541 LINE",
"653 541 LINE",
"653 563 LINE",
"488 563 LINE",
"488 541 LINE",
"563 541 LINE",
"563 42 LINE",
"150 563 LINE",
"50 563 LINE",
"50 541 LINE",
"122 541 LINE",
"122 22 LINE",
"50 22 LINE",
"50 0 LINE",
"223 0 LINE",
"223 22 LINE",
"150 22 LINE",
"150 518 LINE",
"563 -2 LINE",
"563 -90 OFFCURVE",
"520 -152 OFFCURVE",
"410 -152 CURVE SMOOTH",
"406 -152 LINE",
"406 -176 LINE"
);
}
);
width = 717;
},
{
layerId = "EFCDB4D9-E20B-4A8D-9DB5-150AD166B0AE";
paths = (
{
closed = 1;
nodes = (
"468 -192 LINE SMOOTH",
"603 -192 OFFCURVE",
"656 -126 OFFCURVE",
"656 2 CURVE SMOOTH",
"656 463 LINE",
"706 463 LINE",
"706 583 LINE",
"466 583 LINE",
"466 463 LINE",
"526 463 LINE",
"526 269 LINE",
"261 583 LINE",
"40 583 LINE",
"40 463 LINE",
"90 463 LINE",
"90 120 LINE",
"40 120 LINE",
"40 0 LINE",
"277 0 LINE",
"277 120 LINE",
"217 120 LINE",
"217 336 LINE",
"526 -11 LINE",
"526 -66 OFFCURVE",
"466 -82 OFFCURVE",
"420 -82 CURVE SMOOTH",
"377 -82 LINE",
"377 -192 LINE"
);
}
);
width = 747;
},
{
associatedMasterId = "EFCDB4D9-E20B-4A8D-9DB5-150AD166B0AE";
layerId = "1FE35D34-138B-42BB-89FF-BDD7CDF31895";
name = "Bold Aug 18 16, 16:59";
paths = (
{
closed = 1;
nodes = (
"594 -182 OFFCURVE",
"737 -200 OFFCURVE",
"737 2 CURVE SMOOTH",
"737 453 LINE",
"832 453 LINE",
"832 563 LINE",
"525 563 LINE",
"525 453 LINE",
"607 453 LINE",
"607 269 LINE",
"323 563 LINE",
"21 563 LINE",
"21 453 LINE",
"112 453 LINE",
"112 109 LINE",
"21 109 LINE",
"21 0 LINE",
"324 0 LINE",
"324 109 LINE",
"239 109 LINE",
"239 374 LINE",
"608 9 LINE",
"608 -93 OFFCURVE",
"517 -90 OFFCURVE",
"458 -90 CURVE",
"458 -182 LINE"
);
}
);
width = 860;
},
{
associatedMasterId = "BE4F947C-73D7-4684-AEED-17801393DA53";
layerId = "85B8D89F-713E-4DBC-8AEA-BC3CB74B64C2";
name = "Regular Aug 18 16, 17:57";
paths = (
{
closed = 1;
nodes = (
"508 -184 OFFCURVE",
"600 -139 OFFCURVE",
"600 -11 CURVE SMOOTH",
"600 510 LINE",
"678 510 LINE",
"678 563 LINE",
"457 563 LINE",
"457 510 LINE",
"537 510 LINE",
"537 108 LINE",
"215 563 LINE",
"41 563 LINE",
"41 510 LINE",
"121 510 LINE",
"121 53 LINE",
"41 53 LINE",
"41 0 LINE",
"263 0 LINE",
"263 53 LINE",
"183 53 LINE",
"183 479 LINE",
"537 -14 LINE",
"538 -93 OFFCURVE",
"488 -130 OFFCURVE",
"393 -130 CURVE",
"393 -184 LINE"
);
}
);
width = 704;
},
{
associatedMasterId = "98C086B7-81AA-4491-8494-0C6A76849168";
layerId = "68DE655A-7BF7-472C-A13C-3DBBB3DCAB5A";
name = "Light Aug 18 16, 17:57";
paths = (
{
closed = 1;
nodes = (
"534 -176 OFFCURVE",
"604 -122 OFFCURVE",
"604 -1 CURVE SMOOTH",
"604 541 LINE",
"667 541 LINE",
"667 563 LINE",
"502 563 LINE",
"502 541 LINE",
"577 541 LINE",
"577 42 LINE",
"164 563 LINE",
"64 563 LINE",
"64 541 LINE",
"136 541 LINE",
"136 22 LINE",
"64 22 LINE",
"64 0 LINE",
"237 0 LINE",
"237 22 LINE",
"164 22 LINE",
"164 518 LINE",
"577 -2 LINE",
"577 -92 OFFCURVE",
"533 -152 OFFCURVE",
"420 -152 CURVE",
"420 -176 LINE"
);
}
);
width = 705;
}
);
leftMetricsKey = H;
rightMetricsKey = N;
unicode = 014A;
userData = {
org.robofab.postScriptHintData = {
};
};
},
{
glyphname = O;
layers = (
{
anchors = (
{
name = bottom;
position = "{355.5, 0}";
},
{
name = ogonek;
position = "{398.005, 0}";
},
{
name = top;
position = "{353.893, 566}";
},
{
name = topright;
position = "{430.851, 583}";
}
);
associatedMasterId = "98C086B7-81AA-4491-8494-0C6A76849168";
layerId = "D20D7D24-1F55-413C-89DE-FC1F3C203A3E";
name = b;
width = 711;
},
{
anchors = (
{
name = bottom;
position = "{346, 0}";
},
{
name = ogonek;
position = "{379, 0}";
},
{
name = top;
position = "{344, 563}";
},
{
name = topright;
position = "{421, 563}";
}
);
layerId = "BE4F947C-73D7-4684-AEED-17801393DA53";
paths = (
{
closed = 1;
nodes = (
"531 -11 OFFCURVE",
"650 122 OFFCURVE",
"650 280 CURVE SMOOTH",
"650 438 OFFCURVE",
"530 573 OFFCURVE",
"345 573 CURVE SMOOTH",
"160 573 OFFCURVE",
"40 438 OFFCURVE",
"40 280 CURVE SMOOTH",
"40 123 OFFCURVE",
"160 -11 OFFCURVE",
"345 -11 CURVE SMOOTH"
);
},
{
closed = 1;
nodes = (
"207 49 OFFCURVE",
"128 151 OFFCURVE",
"128 279 CURVE SMOOTH",
"128 408 OFFCURVE",
"207 514 OFFCURVE",
"345 514 CURVE SMOOTH",
"482 514 OFFCURVE",
"563 408 OFFCURVE",
"563 280 CURVE SMOOTH",
"563 153 OFFCURVE",
"482 49 OFFCURVE",
"345 49 CURVE SMOOTH"
);
}
);
width = 690;
},
{
anchors = (
{
name = bottom;
position = "{349, 0}";
},
{
name = ogonek;
position = "{371, 0}";
},
{
name = top;
position = "{348, 563}";
},
{
name = topright;
position = "{414, 563}";
}
);
layerId = "98C086B7-81AA-4491-8494-0C6A76849168";
paths = (
{
closed = 1;
nodes = (
"551 -11 OFFCURVE",
"644 138 OFFCURVE",
"644 279 CURVE SMOOTH",
"644 419 OFFCURVE",
"550 573 OFFCURVE",
"349 573 CURVE SMOOTH",
"149 573 OFFCURVE",
"55 419 OFFCURVE",
"55 279 CURVE SMOOTH",
"55 140 OFFCURVE",
"147 -11 OFFCURVE",
"348 -11 CURVE SMOOTH"
);
},
{
closed = 1;
nodes = (
"166 13 OFFCURVE",
"81 147 OFFCURVE",
"81 279 CURVE SMOOTH",
"81 406 OFFCURVE",
"168 550 OFFCURVE",
"349 550 CURVE SMOOTH",
"529 550 OFFCURVE",
"618 406 OFFCURVE",
"618 279 CURVE SMOOTH",
"618 151 OFFCURVE",
"529 13 OFFCURVE",
"349 13 CURVE SMOOTH"
);
}
);
width = 699;
},
{
anchors = (
{
name = bottom;
position = "{368, 0}";
},
{
name = ogonek;
position = "{412, 0}";
},
{
name = top;
position = "{368, 583}";
},
{
name = topright;
position = "{446, 583}";
}
);
layerId = "EFCDB4D9-E20B-4A8D-9DB5-150AD166B0AE";
paths = (
{
closed = 1;
nodes = (
"571 -10 OFFCURVE",
"704 105 OFFCURVE",
"704 290 CURVE SMOOTH",
"704 473 OFFCURVE",
"571 593 OFFCURVE",
"368 593 CURVE SMOOTH",
"165 593 OFFCURVE",
"32 473 OFFCURVE",
"32 289 CURVE SMOOTH",
"32 105 OFFCURVE",
"165 -10 OFFCURVE",
"368 -10 CURVE SMOOTH"
);
},
{
closed = 1;
nodes = (
"290 126 OFFCURVE",
"240 193 OFFCURVE",
"240 294 CURVE SMOOTH",
"240 397 OFFCURVE",
"290 456 OFFCURVE",
"368 457 CURVE SMOOTH",
"446 458 OFFCURVE",
"496 397 OFFCURVE",
"496 294 CURVE SMOOTH",
"496 193 OFFCURVE",
"446 126 OFFCURVE",
"368 126 CURVE SMOOTH"
);
}
);
width = 736;
},
{
anchors = (
{
name = bottom;
position = "{384, 0}";
},
{
name = ogonek;
position = "{429.913, 0}";
},
{
name = top;
position = "{379, 561}";
},
{
name = topright;
position = "{465.391, 583}";
}
);
associatedMasterId = "EFCDB4D9-E20B-4A8D-9DB5-150AD166B0AE";
layerId = "3DD6D0FD-0784-4EF7-ABE4-ACE1F575E6FD";
name = "Bold Aug 18 16, 16:59";
paths = (
{
closed = 1;
nodes = (
"592 -14 OFFCURVE",
"729 100 OFFCURVE",
"729 279 CURVE SMOOTH",
"729 457 OFFCURVE",
"592 573 OFFCURVE",
"384 573 CURVE SMOOTH",
"176 573 OFFCURVE",
"39 457 OFFCURVE",
"39 278 CURVE SMOOTH",
"39 100 OFFCURVE",
"176 -14 OFFCURVE",
"384 -11 CURVE SMOOTH"
);
},
{
closed = 1;
nodes = (
"294 120 OFFCURVE",
"236 186 OFFCURVE",
"236 285 CURVE SMOOTH",
"236 384 OFFCURVE",
"294 444 OFFCURVE",
"384 442 CURVE SMOOTH",
"474 444 OFFCURVE",
"532 384 OFFCURVE",
"532 285 CURVE SMOOTH",
"532 186 OFFCURVE",
"474 120 OFFCURVE",
"384 120 CURVE SMOOTH"
);
}
);
width = 768;
},
{
anchors = (
{
name = bottom;
position = "{354.5, 0}";
},
{
name = ogonek;
position = "{396.886, 0}";
},
{
name = top;
position = "{353, 563}";
},
{
name = topright;
position = "{429.639, 583}";
}
);
associatedMasterId = "BE4F947C-73D7-4684-AEED-17801393DA53";
layerId = "98F4465B-387F-456A-B2F0-D3140B7FAE07";
name = "Regular Aug 18 16, 17:57";
paths = (
{
closed = 1;
nodes = (
"540 -11 OFFCURVE",
"659 122 OFFCURVE",
"659 280 CURVE SMOOTH",
"659 438 OFFCURVE",
"539 573 OFFCURVE",
"354 573 CURVE SMOOTH",
"169 573 OFFCURVE",
"49 438 OFFCURVE",
"49 280 CURVE SMOOTH",
"49 123 OFFCURVE",
"169 -11 OFFCURVE",
"354 -11 CURVE SMOOTH"
);
},
{
closed = 1;
nodes = (
"216 49 OFFCURVE",
"137 151 OFFCURVE",
"137 279 CURVE SMOOTH",
"137 408 OFFCURVE",
"216 514 OFFCURVE",
"354 514 CURVE SMOOTH",
"491 514 OFFCURVE",
"572 408 OFFCURVE",
"572 280 CURVE SMOOTH",
"572 153 OFFCURVE",
"491 49 OFFCURVE",
"354 49 CURVE SMOOTH"
);
}
);
width = 709;
},
{
anchors = (
{
name = bottom;
position = "{355, 0}";
},
{
name = ogonek;
position = "{397.446, 0}";
},
{
name = top;
position = "{354, 563}";
},
{
name = topright;
position = "{430.245, 583}";
}
);
associatedMasterId = "98C086B7-81AA-4491-8494-0C6A76849168";
layerId = "4CB75BF3-F30B-4C63-A51F-B7D53CB8B038";
name = "Light Aug 18 16, 17:57";
paths = (
{
closed = 1;
nodes = (
"557 -11 OFFCURVE",
"650 138 OFFCURVE",
"650 279 CURVE SMOOTH",
"650 419 OFFCURVE",
"556 573 OFFCURVE",
"355 573 CURVE SMOOTH",
"155 573 OFFCURVE",
"61 419 OFFCURVE",
"61 279 CURVE SMOOTH",
"61 140 OFFCURVE",
"153 -11 OFFCURVE",
"354 -11 CURVE SMOOTH"
);
},
{
closed = 1;
nodes = (
"172 13 OFFCURVE",
"91 147 OFFCURVE",
"91 279 CURVE SMOOTH",
"91 406 OFFCURVE",
"174 550 OFFCURVE",
"355 550 CURVE SMOOTH",
"535 550 OFFCURVE",
"620 406 OFFCURVE",
"620 279 CURVE SMOOTH",
"620 151 OFFCURVE",
"535 13 OFFCURVE",
"355 13 CURVE SMOOTH"
);
}
);
width = 710;
}
);
unicode = 004F;
userData = {
com.typemytype.robofont.layerData = {
b = {
anchors = (
);
components = (
);
contours = (
);
lib = {
};
name = O;
unicodes = (
);
width = 1456;
};
};
org.robofab.postScriptHintData = {
};
};
},
{
glyphname = Ohorn;
layers = (
{
anchors = (
{
name = bottom;
position = "{349, 0}";
},
{
name = top;
position = "{348, 563}";
}
);
layerId = "98C086B7-81AA-4491-8494-0C6A76849168";
paths = (
{
closed = 1;
nodes = (
"551 -11 OFFCURVE",
"644 138 OFFCURVE",
"644 279 CURVE SMOOTH",
"644 391 OFFCURVE",
"584 511 OFFCURVE",
"459 555 CURVE",
"467 549 LINE",
"514 549 OFFCURVE",
"545 580 OFFCURVE",
"551 631 CURVE",
"521 631 LINE",
"517 584 OFFCURVE",
"487 566 OFFCURVE",
"450 566 CURVE SMOOTH",
"417 566 OFFCURVE",
"396 573 OFFCURVE",
"349 573 CURVE SMOOTH",
"149 573 OFFCURVE",
"55 419 OFFCURVE",
"55 279 CURVE SMOOTH",
"55 140 OFFCURVE",
"147 -11 OFFCURVE",
"348 -11 CURVE SMOOTH"
);
},
{
closed = 1;
nodes = (
"166 13 OFFCURVE",
"85 147 OFFCURVE",
"85 279 CURVE SMOOTH",
"85 406 OFFCURVE",
"168 550 OFFCURVE",
"349 550 CURVE SMOOTH",
"529 550 OFFCURVE",
"614 406 OFFCURVE",
"614 279 CURVE SMOOTH",
"614 151 OFFCURVE",
"529 13 OFFCURVE",
"349 13 CURVE SMOOTH"
);
}
);
width = 699;
},
{
anchors = (
{
name = bottom;
position = "{345, 0}";
},
{
name = top;
position = "{344, 563}";
}
);
layerId = "BE4F947C-73D7-4684-AEED-17801393DA53";
paths = (
{
closed = 1;
nodes = (
"531 -11 OFFCURVE",
"650 122 OFFCURVE",
"650 280 CURVE SMOOTH",
"650 400 OFFCURVE",
"581 506 OFFCURVE",
"467 551 CURVE",
"463 520 LINE",
"538 520 OFFCURVE",
"589 563 OFFCURVE",
"598 632 CURVE",
"517 632 LINE",
"513 585 OFFCURVE",
"483 567 OFFCURVE",
"446 567 CURVE SMOOTH",
"413 567 OFFCURVE",
"385 574 OFFCURVE",
"345 574 CURVE SMOOTH",
"160 574 OFFCURVE",
"40 439 OFFCURVE",
"40 280 CURVE SMOOTH",
"40 123 OFFCURVE",
"160 -11 OFFCURVE",
"345 -11 CURVE SMOOTH"
);
},
{
closed = 1;
nodes = (
"207 49 OFFCURVE",
"128 151 OFFCURVE",
"128 279 CURVE SMOOTH",
"128 409 OFFCURVE",
"207 515 OFFCURVE",
"345 515 CURVE SMOOTH",
"482 515 OFFCURVE",
"563 409 OFFCURVE",
"563 280 CURVE SMOOTH",
"563 153 OFFCURVE",
"482 49 OFFCURVE",
"345 49 CURVE SMOOTH"
);
}
);
width = 690;
},
{
anchors = (
{
name = bottom;
position = "{368, 0}";
},
{
name = top;
position = "{368, 583}";
}
);
layerId = "EFCDB4D9-E20B-4A8D-9DB5-150AD166B0AE";
paths = (
{
closed = 1;
nodes = (
"571 -10 OFFCURVE",
"704 105 OFFCURVE",
"704 290 CURVE SMOOTH",
"704 429 OFFCURVE",
"627 531 OFFCURVE",
"502 573 CURVE",
"489 499 LINE",
"600 499 OFFCURVE",
"661 552 OFFCURVE",
"667 656 CURVE",
"553 656 LINE",
"550 608 OFFCURVE",
"524 584 OFFCURVE",
"481 584 CURVE SMOOTH",
"445 584 OFFCURVE",
"407 593 OFFCURVE",
"365 593 CURVE SMOOTH",
"164 593 OFFCURVE",
"32 473 OFFCURVE",
"32 289 CURVE SMOOTH",
"32 105 OFFCURVE",
"165 -10 OFFCURVE",
"368 -10 CURVE SMOOTH"
);
},
{
closed = 1;
nodes = (
"290 126 OFFCURVE",
"240 193 OFFCURVE",
"240 294 CURVE SMOOTH",
"240 397 OFFCURVE",
"290 456 OFFCURVE",
"368 457 CURVE SMOOTH",
"446 458 OFFCURVE",
"496 397 OFFCURVE",
"496 294 CURVE SMOOTH",
"496 193 OFFCURVE",
"446 126 OFFCURVE",
"368 126 CURVE SMOOTH"
);
}
);
width = 736;
},
{
anchors = (
{
name = top;
position = "{368, 583}";
}
);
associatedMasterId = "EFCDB4D9-E20B-4A8D-9DB5-150AD166B0AE";
layerId = "F6BD168C-1663-49E2-9F38-2B60461A6C2E";
name = "Bold Oct 4 16, 10:52";
paths = (
{
closed = 1;
nodes = (
"600 499 OFFCURVE",
"661 552 OFFCURVE",
"667 656 CURVE",
"553 656 LINE",
"550 607 OFFCURVE",
"524 582 OFFCURVE",
"480 582 CURVE SMOOTH",
"438 582 LINE",
"438 499 LINE",
"489 499 LINE SMOOTH"
);
},
{
closed = 1;
nodes = (
"571 -10 OFFCURVE",
"704 105 OFFCURVE",
"704 290 CURVE SMOOTH",
"704 473 OFFCURVE",
"571 593 OFFCURVE",
"368 593 CURVE SMOOTH",
"165 593 OFFCURVE",
"32 473 OFFCURVE",
"32 289 CURVE SMOOTH",
"32 105 OFFCURVE",
"165 -10 OFFCURVE",
"368 -10 CURVE SMOOTH"
);
},
{
closed = 1;
nodes = (
"290 126 OFFCURVE",
"240 193 OFFCURVE",
"240 294 CURVE SMOOTH",
"240 397 OFFCURVE",
"290 456 OFFCURVE",
"368 457 CURVE SMOOTH",
"446 458 OFFCURVE",
"496 397 OFFCURVE",
"496 294 CURVE SMOOTH",
"496 193 OFFCURVE",
"446 126 OFFCURVE",
"368 126 CURVE SMOOTH"
);
}
);
width = 736;
}
);
leftMetricsKey = O;
rightMetricsKey = O;
unicode = 01A0;
},
{
glyphname = Oslash;
layers = (
{
associatedMasterId = "98C086B7-81AA-4491-8494-0C6A76849168";
layerId = "1F2BFBB2-A292-4E8B-BBD8-D7EAE9DDF1C5";
name = b;
width = 780;
},
{
anchors = (
{
name = bottom;
position = "{354, 0}";
},
{
name = top;
position = "{354, 563}";
}
);
components = (
{
name = O;
transform = "{1, 0, 0, 1, 0, -1}";
}
);
layerId = "BE4F947C-73D7-4684-AEED-17801393DA53";
paths = (
{
closed = 1;
nodes = (
"616 569 LINE",
"578 595 LINE",
"103 -10 LINE",
"141 -37 LINE"
);
}
);
width = 690;
},
{
anchors = (
{
name = bottom;
position = "{356, 0}";
},
{
name = top;
position = "{356, 563}";
}
);
components = (
{
name = O;
transform = "{1, 0, 0, 1, 0, -4}";
}
);
layerId = "98C086B7-81AA-4491-8494-0C6A76849168";
paths = (
{
closed = 1;
nodes = (
"603 582 LINE",
"588 593 LINE",
"112 -23 LINE",
"129 -35 LINE"
);
}
);
width = 699;
},
{
anchors = (
{
name = bottom;
position = "{368, 0}";
},
{
name = top;
position = "{368, 583}";
}
);
components = (
{
name = O;
}
);
layerId = "EFCDB4D9-E20B-4A8D-9DB5-150AD166B0AE";
paths = (
{
closed = 1;
nodes = (
"640 566 LINE",
"566 618 LINE",
"98 -3 LINE",
"171 -55 LINE"
);
}
);
width = 736;
},
{
associatedMasterId = "EFCDB4D9-E20B-4A8D-9DB5-150AD166B0AE";
components = (
{
name = O;
}
);
layerId = "4F9D362B-9516-4192-BA6C-2F8D77C3DF7E";
name = "Bold Aug 18 16, 16:59";
paths = (
{
closed = 1;
nodes = (
"665 566 LINE",
"591 618 LINE",
"123 -3 LINE",
"196 -55 LINE"
);
}
);
width = 787;
},
{
associatedMasterId = "BE4F947C-73D7-4684-AEED-17801393DA53";
components = (
{
name = O;
transform = "{1, 0, 0, 1, 1, -1}";
}
);
layerId = "F2DFF036-4E5B-430F-9988-A310ED14BA56";
name = "Regular Aug 18 16, 17:57";
paths = (
{
closed = 1;
nodes = (
"617 569 LINE",
"579 595 LINE",
"104 -10 LINE",
"142 -37 LINE"
);
}
);
width = 729;
},
{
associatedMasterId = "98C086B7-81AA-4491-8494-0C6A76849168";
components = (
{
name = O;
transform = "{1, 0, 0, 1, 3, -4}";
}
);
layerId = "6CC8AC68-C66C-4396-98BD-16AEEB330DCE";
name = "Light Aug 18 16, 17:57";
paths = (
{
closed = 1;
nodes = (
"606 582 LINE",
"591 593 LINE",
"115 -23 LINE",
"132 -35 LINE"
);
}
);
width = 773;
}
);
leftMetricsKey = O;
rightMetricsKey = O;
unicode = 00D8;
userData = {
com.typemytype.robofont.layerData = {
b = {
anchors = (
);
components = (
);
contours = (
);
lib = {
};
name = Oslash;
unicodes = (
);
width = 1598;
};
};
org.robofab.postScriptHintData = {
};
};
},
{
glyphname = OE;
layers = (
{
associatedMasterId = "98C086B7-81AA-4491-8494-0C6A76849168";
layerId = "6ED7BE39-3096-4A6D-91AA-535D6DED8F53";
name = b;
width = 954;
},
{
layerId = "BE4F947C-73D7-4684-AEED-17801393DA53";
paths = (
{
closed = 1;
nodes = (
"895 0 LINE",
"895 174 LINE",
"832 174 LINE",
"832 52 LINE",
"561 52 LINE",
"561 259 LINE",
"738 259 LINE",
"738 193 LINE",
"779 193 LINE",
"779 378 LINE",
"738 378 LINE",
"738 313 LINE",
"561 313 LINE",
"561 510 LINE",
"827 510 LINE",
"827 394 LINE",
"890 394 LINE",
"890 563 LINE",
"353 563 LINE SMOOTH",
"160 563 OFFCURVE",
"40 456 OFFCURVE",
"40 283 CURVE SMOOTH",
"40 108 OFFCURVE",
"160 0 OFFCURVE",
"354 0 CURVE SMOOTH"
);
},
{
closed = 1;
nodes = (
"216 52 OFFCURVE",
"127 141 OFFCURVE",
"127 282 CURVE SMOOTH",
"127 424 OFFCURVE",
"217 510 OFFCURVE",
"359 510 CURVE SMOOTH",
"480 510 LINE",
"480 52 LINE",
"360 52 LINE"
);
}
);
width = 972;
},
{
layerId = "98C086B7-81AA-4491-8494-0C6A76849168";
paths = (
{
closed = 1;
nodes = (
"883 0 LINE",
"883 190 LINE",
"857 190 LINE",
"857 24 LINE",
"512 24 LINE",
"512 264 LINE",
"742 264 LINE",
"742 171 LINE",
"764 171 LINE",
"764 372 LINE",
"742 372 LINE",
"742 288 LINE",
"512 288 LINE",
"512 538 LINE",
"844 538 LINE",
"844 384 LINE",
"869 384 LINE",
"869 563 LINE",
"374 563 LINE SMOOTH",
"176 563 OFFCURVE",
"56 457 OFFCURVE",
"55 279 CURVE SMOOTH",
"56 104 OFFCURVE",
"176 0 OFFCURVE",
"374 0 CURVE SMOOTH"
);
},
{
closed = 1;
nodes = (
"196 24 OFFCURVE",
"85 121 OFFCURVE",
"85 279 CURVE SMOOTH",
"85 443 OFFCURVE",
"198 538 OFFCURVE",
"375 538 CURVE SMOOTH",
"482 538 LINE",
"482 24 LINE",
"375 24 LINE"
);
}
);
width = 985;
},
{
layerId = "EFCDB4D9-E20B-4A8D-9DB5-150AD166B0AE";
paths = (
{
closed = 1;
nodes = (
"993 0 LINE",
"993 224 LINE",
"873 224 LINE",
"873 121 LINE",
"673 121 LINE",
"673 242 LINE",
"733 242 LINE",
"733 187 LINE",
"832 187 LINE",
"832 407 LINE",
"732 407 LINE",
"732 352 LINE",
"673 352 LINE",
"673 463 LINE",
"869 463 LINE",
"869 372 LINE",
"989 372 LINE",
"989 583 LINE",
"388 583 LINE SMOOTH",
"173 583 OFFCURVE",
"32 467 OFFCURVE",
"32 289 CURVE SMOOTH",
"32 111 OFFCURVE",
"173 0 OFFCURVE",
"388 0 CURVE SMOOTH"
);
},
{
closed = 1;
nodes = (
"310 120 OFFCURVE",
"240 189 OFFCURVE",
"240 294 CURVE SMOOTH",
"240 401 OFFCURVE",
"310 462 OFFCURVE",
"418 463 CURVE SMOOTH",
"472 463 LINE",
"472 120 LINE",
"418 120 LINE SMOOTH"
);
}
);
width = 1039;
},
{
associatedMasterId = "EFCDB4D9-E20B-4A8D-9DB5-150AD166B0AE";
layerId = "7BE73F1D-1936-440B-8361-BD4DA771450C";
name = "Bold Aug 18 16, 16:59";
paths = (
{
closed = 1;
nodes = (
"1156 0 LINE",
"1156 188 LINE",
"1012 188 LINE",
"1012 99 LINE",
"831 99 LINE",
"831 257 LINE",
"920 257 LINE",
"920 215 LINE",
"972 215 LINE",
"972 399 LINE",
"920 399 LINE",
"920 376 LINE",
"834 376 LINE",
"834 461 LINE",
"1013 461 LINE",
"1013 375 LINE",
"1149 375 LINE",
"1149 563 LINE",
"575 563 LINE SMOOTH",
"288 564 OFFCURVE",
"136 492 OFFCURVE",
"134 297 CURVE SMOOTH",
"136 83 OFFCURVE",
"289 0 OFFCURVE",
"576 0 CURVE SMOOTH"
);
},
{
closed = 1;
nodes = (
"417 96 OFFCURVE",
"351 163 OFFCURVE",
"349 292 CURVE SMOOTH",
"351 405 OFFCURVE",
"437 460 OFFCURVE",
"542 461 CURVE SMOOTH",
"630 463 LINE",
"630 103 LINE",
"532 99 LINE"
);
}
);
width = 1206;
},
{
associatedMasterId = "BE4F947C-73D7-4684-AEED-17801393DA53";
layerId = "B526D783-045A-4385-888D-8DDD2532589E";
name = "Regular Aug 18 16, 17:57";
paths = (
{
closed = 1;
nodes = (
"930 0 LINE",
"930 174 LINE",
"867 174 LINE",
"867 52 LINE",
"596 52 LINE",
"596 259 LINE",
"773 259 LINE",
"773 193 LINE",
"814 193 LINE",
"814 378 LINE",
"773 378 LINE",
"773 313 LINE",
"596 313 LINE",
"596 510 LINE",
"862 510 LINE",
"862 394 LINE",
"925 394 LINE",
"925 563 LINE",
"388 563 LINE SMOOTH",
"195 563 OFFCURVE",
"75 456 OFFCURVE",
"75 283 CURVE SMOOTH",
"75 108 OFFCURVE",
"195 0 OFFCURVE",
"389 0 CURVE SMOOTH"
);
},
{
closed = 1;
nodes = (
"251 52 OFFCURVE",
"162 141 OFFCURVE",
"162 282 CURVE SMOOTH",
"162 424 OFFCURVE",
"252 510 OFFCURVE",
"394 510 CURVE SMOOTH",
"515 510 LINE",
"515 52 LINE",
"395 52 LINE"
);
}
);
width = 985;
},
{
associatedMasterId = "98C086B7-81AA-4491-8494-0C6A76849168";
layerId = "6099FC6C-FF20-4595-9523-74F62E35A5E7";
name = "Light Aug 18 16, 17:57";
paths = (
{
closed = 1;
nodes = (
"892 0 LINE",
"892 190 LINE",
"866 190 LINE",
"866 24 LINE",
"521 24 LINE",
"521 264 LINE",
"751 264 LINE",
"751 171 LINE",
"773 171 LINE",
"773 372 LINE",
"751 372 LINE",
"751 288 LINE",
"521 288 LINE",
"521 538 LINE",
"853 538 LINE",
"853 384 LINE",
"878 384 LINE",
"878 563 LINE",
"383 563 LINE SMOOTH",
"185 563 OFFCURVE",
"65 457 OFFCURVE",
"64 279 CURVE SMOOTH",
"65 104 OFFCURVE",
"185 0 OFFCURVE",
"383 0 CURVE SMOOTH"
);
},
{
closed = 1;
nodes = (
"205 24 OFFCURVE",
"94 121 OFFCURVE",
"94 279 CURVE SMOOTH",
"94 443 OFFCURVE",
"207 538 OFFCURVE",
"384 538 CURVE SMOOTH",
"491 538 LINE",
"491 24 LINE",
"384 24 LINE"
);
}
);
width = 958;
}
);
leftMetricsKey = O;
rightMetricsKey = E;
unicode = 0152;
userData = {
com.typemytype.robofont.layerData = {
b = {
anchors = (
);
components = (
);
contours = (
);
lib = {
};
name = OE;
unicodes = (
);
width = 1953;
};
};
org.robofab.postScriptHintData = {
};
};
},
{
glyphname = P;
layers = (
{
associatedMasterId = "98C086B7-81AA-4491-8494-0C6A76849168";
layerId = "0A99DEE9-4221-46D3-8A42-95E309669A94";
name = b;
paths = (
{
closed = 1;
nodes = (
"172 535 LINE",
"371 535 LINE SMOOTH",
"457 535 OFFCURVE",
"500 469 OFFCURVE",
"500 402 CURVE SMOOTH",
"500 333 OFFCURVE",
"456 266 OFFCURVE",
"371 266 CURVE SMOOTH",
"172 266 LINE"
);
},
{
closed = 1;
nodes = (
"66 0 LINE",
"250 0 LINE",
"250 28 LINE",
"172 28 LINE",
"172 236 LINE",
"371 236 LINE SMOOTH",
"480 236 OFFCURVE",
"536 320 OFFCURVE",
"536 403 CURVE SMOOTH",
"536 483 OFFCURVE",
"480 563 OFFCURVE",
"371 563 CURVE SMOOTH",
"60 563 LINE",
"60 535 LINE",
"136 535 LINE",
"136 28 LINE",
"66 28 LINE"
);
}
);
width = 599;
},
{
anchors = (
{
name = top;
position = "{287, 563}";
}
);
layerId = "BE4F947C-73D7-4684-AEED-17801393DA53";
paths = (
{
closed = 1;
nodes = (
"273 0 LINE",
"273 53 LINE",
"195 53 LINE",
"195 510 LINE",
"322 510 LINE SMOOTH",
"398 510 OFFCURVE",
"440 472 OFFCURVE",
"440 402 CURVE SMOOTH",
"440 327 OFFCURVE",
"402 286 OFFCURVE",
"305 286 CURVE SMOOTH",
"175 286 LINE",
"175 233 LINE",
"308 233 LINE SMOOTH",
"448 233 OFFCURVE",
"524 293 OFFCURVE",
"524 403 CURVE SMOOTH",
"524 507 OFFCURVE",
"450 563 OFFCURVE",
"313 563 CURVE SMOOTH",
"35 563 LINE",
"35 510 LINE",
"113 510 LINE",
"113 53 LINE",
"35 53 LINE",
"35 0 LINE"
);
}
);
width = 552;
},
{
anchors = (
{
name = top;
position = "{316, 563}";
}
);
layerId = "98C086B7-81AA-4491-8494-0C6A76849168";
paths = (
{
closed = 1;
nodes = (
"250 0 LINE",
"250 22 LINE",
"165 22 LINE",
"165 541 LINE",
"312 541 LINE SMOOTH",
"406 541 OFFCURVE",
"489 504 OFFCURVE",
"489 403 CURVE SMOOTH",
"489 319 OFFCURVE",
"427 264 OFFCURVE",
"325 264 CURVE SMOOTH",
"162 264 LINE",
"161 243 LINE",
"325 243 LINE SMOOTH",
"446 243 OFFCURVE",
"515 304 OFFCURVE",
"515 404 CURVE SMOOTH",
"515 518 OFFCURVE",
"425 563 OFFCURVE",
"311 563 CURVE SMOOTH",
"50 563 LINE",
"50 541 LINE",
"135 541 LINE",
"135 22 LINE",
"50 22 LINE",
"50 0 LINE"
);
}
);
width = 589;
},
{
anchors = (
{
name = top;
position = "{334, 583}";
}
);
layerId = "EFCDB4D9-E20B-4A8D-9DB5-150AD166B0AE";
paths = (
{
closed = 1;
nodes = (
"360 0 LINE",
"360 120 LINE",
"300 120 LINE",
"300 463 LINE",
"367 463 LINE SMOOTH",
"406 463 OFFCURVE",
"430 450 OFFCURVE",
"430 405 CURVE SMOOTH",
"430 357 OFFCURVE",
"411 342 OFFCURVE",
"367 342 CURVE SMOOTH",
"290 342 LINE",
"290 222 LINE",
"397 222 LINE SMOOTH",
"551 222 OFFCURVE",
"636 271 OFFCURVE",
"636 405 CURVE SMOOTH",
"636 536 OFFCURVE",
"544 583 OFFCURVE",
"377 583 CURVE SMOOTH",
"50 583 LINE",
"50 463 LINE",
"100 463 LINE",
"100 120 LINE",
"50 120 LINE",
"50 0 LINE"
);
}
);
width = 654;
},
{
anchors = (
{
name = top;
position = "{302, 563}";
}
);
associatedMasterId = "EFCDB4D9-E20B-4A8D-9DB5-150AD166B0AE";
layerId = "85CA6B95-F169-4BFC-A7A3-63B02DE57AE1";
name = "Bold Aug 18 16, 16:58";
paths = (
{
closed = 1;
nodes = (
"392 0 LINE",
"392 109 LINE",
"307 109 LINE",
"307 453 LINE",
"384 453 LINE SMOOTH",
"410 453 OFFCURVE",
"447 438 OFFCURVE",
"447 395 CURVE SMOOTH",
"447 348 OFFCURVE",
"438 322 OFFCURVE",
"384 322 CURVE SMOOTH",
"346 322 LINE",
"346 220 LINE",
"355 220 LINE SMOOTH",
"604 220 OFFCURVE",
"646 272 OFFCURVE",
"646 394 CURVE SMOOTH",
"646 529 OFFCURVE",
"554 563 OFFCURVE",
"386 563 CURVE SMOOTH",
"21 563 LINE",
"21 453 LINE",
"106 453 LINE",
"106 109 LINE",
"21 109 LINE",
"21 0 LINE"
);
}
);
width = 665;
},
{
anchors = (
{
name = top;
position = "{302, 563}";
}
);
associatedMasterId = "EFCDB4D9-E20B-4A8D-9DB5-150AD166B0AE";
layerId = "CEC9705C-4499-4C79-834F-C4284CE7A189";
name = "Bold Aug 18 16, 16:59";
paths = (
{
closed = 1;
nodes = (
"392 0 LINE",
"392 109 LINE",
"307 109 LINE",
"307 453 LINE",
"384 453 LINE SMOOTH",
"410 453 OFFCURVE",
"447 437 OFFCURVE",
"447 390 CURVE SMOOTH",
"447 346 OFFCURVE",
"438 322 OFFCURVE",
"384 322 CURVE SMOOTH",
"346 322 LINE",
"346 220 LINE",
"355 220 LINE SMOOTH",
"604 220 OFFCURVE",
"646 272 OFFCURVE",
"646 394 CURVE SMOOTH",
"646 529 OFFCURVE",
"554 563 OFFCURVE",
"386 563 CURVE SMOOTH",
"21 563 LINE",
"21 453 LINE",
"106 453 LINE",
"106 109 LINE",
"21 109 LINE",
"21 0 LINE"
);
}
);
width = 665;
},
{
anchors = (
{
name = top;
position = "{291, 563}";
}
);
associatedMasterId = "BE4F947C-73D7-4684-AEED-17801393DA53";
layerId = "45B90F7D-5CDA-45A9-992D-47C05DDD1408";
name = "Regular Aug 18 16, 17:57";
paths = (
{
closed = 1;
nodes = (
"277 0 LINE",
"277 53 LINE",
"199 53 LINE",
"199 510 LINE",
"326 510 LINE SMOOTH",
"402 510 OFFCURVE",
"444 472 OFFCURVE",
"444 402 CURVE SMOOTH",
"444 327 OFFCURVE",
"396 286 OFFCURVE",
"309 286 CURVE SMOOTH",
"237 286 LINE",
"237 233 LINE",
"312 233 LINE SMOOTH",
"452 233 OFFCURVE",
"528 293 OFFCURVE",
"528 403 CURVE SMOOTH",
"528 507 OFFCURVE",
"454 563 OFFCURVE",
"317 563 CURVE SMOOTH",
"39 563 LINE",
"39 510 LINE",
"117 510 LINE",
"117 53 LINE",
"39 53 LINE",
"39 0 LINE"
);
}
);
width = 563;
},
{
anchors = (
{
name = top;
position = "{326, 563}";
}
);
associatedMasterId = "98C086B7-81AA-4491-8494-0C6A76849168";
layerId = "51734866-E883-4707-9E3D-45B519803438";
name = "Light Aug 18 16, 17:57";
paths = (
{
closed = 1;
nodes = (
"260 0 LINE",
"260 22 LINE",
"175 22 LINE",
"175 541 LINE",
"362 541 LINE SMOOTH",
"446 541 OFFCURVE",
"495 494 OFFCURVE",
"495 413 CURVE SMOOTH",
"495 319 OFFCURVE",
"447 264 OFFCURVE",
"365 264 CURVE SMOOTH",
"222 264 LINE",
"221 243 LINE",
"365 243 LINE SMOOTH",
"466 243 OFFCURVE",
"525 306 OFFCURVE",
"525 414 CURVE SMOOTH",
"525 508 OFFCURVE",
"465 563 OFFCURVE",
"361 563 CURVE SMOOTH",
"60 563 LINE",
"60 541 LINE",
"145 541 LINE",
"145 22 LINE",
"60 22 LINE",
"60 0 LINE"
);
}
);
width = 593;
}
);
unicode = 0050;
userData = {
com.typemytype.robofont.layerData = {
b = {
anchors = (
);
components = (
);
contours = (
{
points = (
{
segmentType = line;
smooth = 0;
x = 353;
y = 1095;
},
{
segmentType = line;
smooth = 1;
x = 759;
y = 1095;
},
{
smooth = 0;
x = 936;
y = 1095;
},
{
smooth = 0;
x = 1024;
y = 960;
},
{
segmentType = curve;
smooth = 1;
x = 1024;
y = 823;
},
{
smooth = 0;
x = 1024;
y = 683;
},
{
smooth = 0;
x = 934;
y = 544;
},
{
segmentType = curve;
smooth = 1;
x = 759;
y = 544;
},
{
segmentType = line;
smooth = 0;
x = 353;
y = 544;
}
);
},
{
points = (
{
segmentType = line;
smooth = 0;
x = 135;
y = 0;
},
{
segmentType = line;
smooth = 0;
x = 512;
y = 0;
},
{
segmentType = line;
smooth = 0;
x = 512;
y = 58;
},
{
segmentType = line;
smooth = 0;
x = 353;
y = 58;
},
{
segmentType = line;
smooth = 0;
x = 353;
y = 483;
},
{
segmentType = line;
smooth = 1;
x = 759;
y = 483;
},
{
smooth = 0;
x = 984;
y = 483;
},
{
smooth = 0;
x = 1098;
y = 656;
},
{
segmentType = curve;
smooth = 1;
x = 1098;
y = 826;
},
{
smooth = 0;
x = 1098;
y = 989;
},
{
smooth = 0;
x = 984;
y = 1154;
},
{
segmentType = curve;
smooth = 1;
x = 759;
y = 1154;
},
{
segmentType = line;
smooth = 0;
x = 122;
y = 1154;
},
{
segmentType = line;
smooth = 0;
x = 122;
y = 1095;
},
{
segmentType = line;
smooth = 0;
x = 278;
y = 1095;
},
{
segmentType = line;
smooth = 0;
x = 278;
y = 58;
},
{
segmentType = line;
smooth = 0;
x = 135;
y = 58;
}
);
}
);
lib = {
};
name = P;
unicodes = (
);
width = 1226;
};
};
org.robofab.postScriptHintData = {
};
};
},
{
glyphname = Thorn;
layers = (
{
associatedMasterId = "98C086B7-81AA-4491-8494-0C6A76849168";
layerId = "14B42727-008A-42B0-A22A-E34271F2BC05";
name = b;
width = 599;
},
{
layerId = "BE4F947C-73D7-4684-AEED-17801393DA53";
paths = (
{
closed = 1;
nodes = (
"289 0 LINE",
"289 53 LINE",
"210 53 LINE",
"210 407 LINE",
"194 394 LINE",
"331 394 LINE SMOOTH",
"400 394 OFFCURVE",
"442 361 OFFCURVE",
"442 306 CURVE SMOOTH",
"442 241 OFFCURVE",
"401 208 OFFCURVE",
"333 208 CURVE SMOOTH",
"240 208 LINE",
"240 160 LINE",
"333 160 LINE SMOOTH",
"453 160 OFFCURVE",
"520 211 OFFCURVE",
"520 306 CURVE SMOOTH",
"520 394 OFFCURVE",
"452 446 OFFCURVE",
"331 446 CURVE SMOOTH",
"194 446 LINE",
"210 436 LINE",
"210 510 LINE",
"289 510 LINE",
"289 563 LINE",
"50 563 LINE",
"50 510 LINE",
"128 510 LINE",
"128 53 LINE",
"50 53 LINE",
"50 0 LINE"
);
}
);
width = 555;
},
{
layerId = "98C086B7-81AA-4491-8494-0C6A76849168";
paths = (
{
closed = 1;
nodes = (
"255 0 LINE",
"255 22 LINE",
"170 22 LINE",
"170 432 LINE",
"158 425 LINE",
"353 425 LINE SMOOTH",
"436 425 OFFCURVE",
"484 381 OFFCURVE",
"485 306 CURVE SMOOTH",
"485 231 OFFCURVE",
"438 187 OFFCURVE",
"358 187 CURVE SMOOTH",
"222 187 LINE",
"222 166 LINE",
"358 166 LINE SMOOTH",
"457 166 OFFCURVE",
"515 218 OFFCURVE",
"515 306 CURVE SMOOTH",
"515 394 OFFCURVE",
"455 446 OFFCURVE",
"353 446 CURVE SMOOTH",
"158 446 LINE",
"170 439 LINE",
"170 541 LINE",
"255 541 LINE",
"255 563 LINE",
"55 563 LINE",
"55 541 LINE",
"140 541 LINE",
"140 22 LINE",
"55 22 LINE",
"55 0 LINE"
);
}
);
width = 583;
},
{
layerId = "EFCDB4D9-E20B-4A8D-9DB5-150AD166B0AE";
paths = (
{
closed = 1;
nodes = (
"360 0 LINE",
"360 120 LINE",
"300 120 LINE",
"300 367 LINE",
"265 347 LINE",
"355 347 LINE SMOOTH",
"400 347 OFFCURVE",
"425 327 OFFCURVE",
"425 285 CURVE SMOOTH",
"425 242 OFFCURVE",
"400 223 OFFCURVE",
"355 223 CURVE SMOOTH",
"339 223 LINE",
"339 153 LINE",
"398 153 LINE SMOOTH",
"561 153 OFFCURVE",
"631 187 OFFCURVE",
"631 285 CURVE SMOOTH",
"631 383 OFFCURVE",
"561 420 OFFCURVE",
"398 420 CURVE SMOOTH",
"265 420 LINE",
"300 403 LINE",
"300 463 LINE",
"360 463 LINE",
"360 583 LINE",
"50 583 LINE",
"50 463 LINE",
"100 463 LINE",
"100 120 LINE",
"50 120 LINE",
"50 0 LINE"
);
}
);
width = 649;
},
{
associatedMasterId = "EFCDB4D9-E20B-4A8D-9DB5-150AD166B0AE";
layerId = "CA735C70-9A56-49AB-BBC3-CE79B61E71D1";
name = "Bold Aug 12 16, 15:28";
paths = (
{
closed = 1;
nodes = (
"391 0 LINE",
"391 109 LINE",
"306 109 LINE",
"306 357 LINE",
"271 337 LINE",
"401 337 LINE SMOOTH",
"424 337 OFFCURVE",
"456 326 OFFCURVE",
"456 290 CURVE SMOOTH",
"456 258 OFFCURVE",
"442 234 OFFCURVE",
"370 234 CURVE SMOOTH",
"332 234 LINE",
"332 164 LINE",
"334 164 LINE SMOOTH",
"606 164 OFFCURVE",
"664 206 OFFCURVE",
"664 290 CURVE SMOOTH",
"664 389 OFFCURVE",
"576 410 OFFCURVE",
"408 410 CURVE SMOOTH",
"271 410 LINE",
"306 393 LINE",
"306 453 LINE",
"391 453 LINE",
"391 563 LINE",
"20 563 LINE",
"20 453 LINE",
"104 453 LINE",
"104 109 LINE",
"20 109 LINE",
"20 0 LINE"
);
}
);
width = 671;
},
{
associatedMasterId = "BE4F947C-73D7-4684-AEED-17801393DA53";
layerId = "5E842238-305A-40A6-9B9D-7D555BDB73EE";
name = "Regular Aug 12 16, 15:29";
paths = (
{
closed = 1;
nodes = (
"289 0 LINE",
"289 53 LINE",
"210 53 LINE",
"210 510 LINE",
"289 510 LINE",
"289 563 LINE",
"50 563 LINE",
"50 510 LINE",
"128 510 LINE",
"128 53 LINE",
"50 53 LINE",
"50 0 LINE"
);
},
{
closed = 1;
nodes = (
"333 160 LINE SMOOTH",
"453 160 OFFCURVE",
"520 211 OFFCURVE",
"520 306 CURVE SMOOTH",
"520 394 OFFCURVE",
"452 446 OFFCURVE",
"331 446 CURVE SMOOTH",
"158 446 LINE",
"158 394 LINE",
"331 394 LINE SMOOTH",
"400 394 OFFCURVE",
"442 361 OFFCURVE",
"442 306 CURVE SMOOTH",
"442 241 OFFCURVE",
"401 208 OFFCURVE",
"333 208 CURVE SMOOTH",
"240 208 LINE",
"240 160 LINE"
);
}
);
width = 550;
},
{
associatedMasterId = "98C086B7-81AA-4491-8494-0C6A76849168";
layerId = "EDF03754-7EFF-4805-879A-BA0D4DCAD1AB";
name = "Light Aug 12 16, 15:30";
paths = (
{
closed = 1;
nodes = (
"358 166 LINE SMOOTH",
"457 166 OFFCURVE",
"515 222 OFFCURVE",
"515 317 CURVE SMOOTH",
"515 398 OFFCURVE",
"455 446 OFFCURVE",
"353 446 CURVE SMOOTH",
"164 446 LINE",
"164 425 LINE",
"353 425 LINE SMOOTH",
"436 425 OFFCURVE",
"484 385 OFFCURVE",
"485 317 CURVE SMOOTH",
"485 235 OFFCURVE",
"438 187 OFFCURVE",
"359 187 CURVE SMOOTH",
"222 187 LINE",
"222 166 LINE"
);
},
{
closed = 1;
nodes = (
"255 0 LINE",
"255 22 LINE",
"170 22 LINE",
"170 541 LINE",
"255 541 LINE",
"255 563 LINE",
"55 563 LINE",
"55 541 LINE",
"140 541 LINE",
"140 22 LINE",
"55 22 LINE",
"55 0 LINE"
);
}
);
width = 592;
},
{
associatedMasterId = "EFCDB4D9-E20B-4A8D-9DB5-150AD166B0AE";
layerId = "CB6D9981-FB79-4E90-8CC0-E53CF8456823";
name = "Bold Aug 18 16, 16:59";
paths = (
{
closed = 1;
nodes = (
"391 0 LINE",
"391 109 LINE",
"306 109 LINE",
"306 357 LINE",
"271 337 LINE",
"401 337 LINE SMOOTH",
"439 337 OFFCURVE",
"456 321 OFFCURVE",
"456 285 CURVE SMOOTH",
"456 249 OFFCURVE",
"439 234 OFFCURVE",
"401 234 CURVE SMOOTH",
"332 234 LINE",
"332 164 LINE",
"408 164 LINE SMOOTH",
"587 164 OFFCURVE",
"664 191 OFFCURVE",
"664 285 CURVE SMOOTH",
"664 379 OFFCURVE",
"587 410 OFFCURVE",
"408 410 CURVE SMOOTH",
"271 410 LINE",
"306 393 LINE",
"306 453 LINE",
"391 453 LINE",
"391 563 LINE",
"20 563 LINE",
"20 453 LINE",
"104 453 LINE",
"104 109 LINE",
"20 109 LINE",
"20 0 LINE"
);
}
);
width = 671;
},
{
associatedMasterId = "BE4F947C-73D7-4684-AEED-17801393DA53";
layerId = "B9A81F40-F4E8-4BDD-8529-1B89B828F1C1";
name = "Regular Aug 18 16, 17:57";
paths = (
{
closed = 1;
nodes = (
"289 0 LINE",
"289 53 LINE",
"210 53 LINE",
"210 407 LINE",
"194 394 LINE",
"331 394 LINE SMOOTH",
"400 394 OFFCURVE",
"442 361 OFFCURVE",
"442 306 CURVE SMOOTH",
"442 241 OFFCURVE",
"401 208 OFFCURVE",
"333 208 CURVE SMOOTH",
"240 208 LINE",
"240 160 LINE",
"333 160 LINE SMOOTH",
"453 160 OFFCURVE",
"520 211 OFFCURVE",
"520 306 CURVE SMOOTH",
"520 394 OFFCURVE",
"452 446 OFFCURVE",
"331 446 CURVE SMOOTH",
"194 446 LINE",
"210 436 LINE",
"210 510 LINE",
"289 510 LINE",
"289 563 LINE",
"50 563 LINE",
"50 510 LINE",
"128 510 LINE",
"128 53 LINE",
"50 53 LINE",
"50 0 LINE"
);
}
);
width = 550;
},
{
associatedMasterId = "98C086B7-81AA-4491-8494-0C6A76849168";
layerId = "62953973-474C-42F7-B8DD-A0FC2FEBB832";
name = "Light Aug 18 16, 17:57";
paths = (
{
closed = 1;
nodes = (
"255 0 LINE",
"255 22 LINE",
"170 22 LINE",
"170 432 LINE",
"158 425 LINE",
"353 425 LINE SMOOTH",
"436 425 OFFCURVE",
"484 381 OFFCURVE",
"485 306 CURVE SMOOTH",
"485 231 OFFCURVE",
"438 187 OFFCURVE",
"358 187 CURVE SMOOTH",
"222 187 LINE",
"222 166 LINE",
"358 166 LINE SMOOTH",
"457 166 OFFCURVE",
"515 218 OFFCURVE",
"515 306 CURVE SMOOTH",
"515 394 OFFCURVE",
"455 446 OFFCURVE",
"353 446 CURVE SMOOTH",
"158 446 LINE",
"170 439 LINE",
"170 541 LINE",
"255 541 LINE",
"255 563 LINE",
"55 563 LINE",
"55 541 LINE",
"140 541 LINE",
"140 22 LINE",
"55 22 LINE",
"55 0 LINE"
);
}
);
width = 592;
}
);
unicode = 00DE;
userData = {
com.typemytype.robofont.layerData = {
b = {
anchors = (
);
components = (
);
contours = (
);
lib = {
};
name = Thorn;
unicodes = (
);
width = 1226;
};
};
org.robofab.postScriptHintData = {
};
};
},
{
glyphname = Q;
layers = (
{
associatedMasterId = "98C086B7-81AA-4491-8494-0C6A76849168";
layerId = "52282A1A-0BF6-4A3B-A542-D68AE1C4237C";
name = b;
width = 702;
},
{
layerId = "BE4F947C-73D7-4684-AEED-17801393DA53";
paths = (
{
closed = 1;
nodes = (
"524 -147 OFFCURVE",
"544 -144 OFFCURVE",
"564 -138 CURVE",
"563 -85 LINE",
"542 -90 OFFCURVE",
"523 -93 OFFCURVE",
"506 -93 CURVE SMOOTH",
"447 -93 OFFCURVE",
"418 -60 OFFCURVE",
"389 -8 CURVE",
"551 11 OFFCURVE",
"650 135 OFFCURVE",
"650 280 CURVE SMOOTH",
"650 438 OFFCURVE",
"530 573 OFFCURVE",
"345 573 CURVE SMOOTH",
"160 573 OFFCURVE",
"40 438 OFFCURVE",
"40 280 CURVE SMOOTH",
"40 131 OFFCURVE",
"147 2 OFFCURVE",
"318 -9 CURVE",
"360 -92 OFFCURVE",
"414 -147 OFFCURVE",
"506 -147 CURVE SMOOTH"
);
},
{
closed = 1;
nodes = (
"207 49 OFFCURVE",
"128 151 OFFCURVE",
"128 279 CURVE SMOOTH",
"128 408 OFFCURVE",
"207 514 OFFCURVE",
"345 514 CURVE SMOOTH",
"482 514 OFFCURVE",
"563 408 OFFCURVE",
"563 280 CURVE SMOOTH",
"563 153 OFFCURVE",
"482 49 OFFCURVE",
"345 49 CURVE SMOOTH"
);
}
);
width = 690;
},
{
layerId = "98C086B7-81AA-4491-8494-0C6A76849168";
paths = (
{
closed = 1;
nodes = (
"500 -113 OFFCURVE",
"520 -110 OFFCURVE",
"540 -103 CURVE",
"540 -81 LINE",
"519 -89 OFFCURVE",
"500 -92 OFFCURVE",
"481 -92 CURVE SMOOTH",
"429 -92 OFFCURVE",
"389 -53 OFFCURVE",
"372 -10 CURVE",
"559 0 OFFCURVE",
"644 144 OFFCURVE",
"644 279 CURVE SMOOTH",
"644 419 OFFCURVE",
"550 573 OFFCURVE",
"349 573 CURVE SMOOTH",
"149 573 OFFCURVE",
"55 419 OFFCURVE",
"55 279 CURVE SMOOTH",
"55 142 OFFCURVE",
"144 -7 OFFCURVE",
"341 -11 CURVE",
"367 -65 OFFCURVE",
"416 -113 OFFCURVE",
"480 -113 CURVE SMOOTH"
);
},
{
closed = 1;
nodes = (
"166 13 OFFCURVE",
"85 147 OFFCURVE",
"85 279 CURVE SMOOTH",
"85 406 OFFCURVE",
"168 550 OFFCURVE",
"349 550 CURVE SMOOTH",
"529 550 OFFCURVE",
"614 406 OFFCURVE",
"614 279 CURVE SMOOTH",
"614 151 OFFCURVE",
"529 13 OFFCURVE",
"349 13 CURVE SMOOTH"
);
}
);
width = 699;
},
{
layerId = "EFCDB4D9-E20B-4A8D-9DB5-150AD166B0AE";
paths = (
{
closed = 1;
nodes = (
"563 -195 OFFCURVE",
"605 -187 OFFCURVE",
"629 -174 CURVE",
"629 -58 LINE",
"572 -94 OFFCURVE",
"481 -82 OFFCURVE",
"451 -3 CURVE",
"607 25 OFFCURVE",
"704 132 OFFCURVE",
"704 290 CURVE SMOOTH",
"704 473 OFFCURVE",
"571 593 OFFCURVE",
"368 593 CURVE SMOOTH",
"165 593 OFFCURVE",
"32 473 OFFCURVE",
"32 289 CURVE SMOOTH",
"32 134 OFFCURVE",
"126 28 OFFCURVE",
"277 -2 CURVE",
"318 -113 OFFCURVE",
"419 -195 OFFCURVE",
"524 -195 CURVE SMOOTH"
);
},
{
closed = 1;
nodes = (
"290 126 OFFCURVE",
"240 194 OFFCURVE",
"240 294 CURVE SMOOTH",
"240 397 OFFCURVE",
"290 456 OFFCURVE",
"368 457 CURVE SMOOTH",
"446 458 OFFCURVE",
"496 397 OFFCURVE",
"496 294 CURVE SMOOTH",
"496 194 OFFCURVE",
"446 126 OFFCURVE",
"368 126 CURVE SMOOTH"
);
}
);
width = 736;
},
{
anchors = (
{
name = ogonek;
position = "{406, 0}";
},
{
name = top;
position = "{379, 561}";
}
);
associatedMasterId = "EFCDB4D9-E20B-4A8D-9DB5-150AD166B0AE";
layerId = "3BA458B4-9FD3-4AF5-B683-FD3D82E21335";
name = "Bold Aug 18 16, 16:59";
paths = (
{
closed = 1;
nodes = (
"686 -48 LINE",
"599 -77 OFFCURVE",
"491 -93 OFFCURVE",
"454 -7 CURVE",
"622 13 OFFCURVE",
"729 120 OFFCURVE",
"729 279 CURVE SMOOTH",
"729 457 OFFCURVE",
"592 573 OFFCURVE",
"384 573 CURVE SMOOTH",
"176 573 OFFCURVE",
"39 457 OFFCURVE",
"39 278 CURVE SMOOTH",
"39 132 OFFCURVE",
"130 30 OFFCURVE",
"278 -1 CURVE",
"329 -215 OFFCURVE",
"554 -214 OFFCURVE",
"686 -174 CURVE"
);
},
{
closed = 1;
nodes = (
"294 120 OFFCURVE",
"236 186 OFFCURVE",
"236 285 CURVE SMOOTH",
"236 384 OFFCURVE",
"294 444 OFFCURVE",
"384 442 CURVE SMOOTH",
"474 444 OFFCURVE",
"532 384 OFFCURVE",
"532 285 CURVE SMOOTH",
"532 186 OFFCURVE",
"474 120 OFFCURVE",
"384 120 CURVE SMOOTH"
);
}
);
width = 768;
},
{
associatedMasterId = "BE4F947C-73D7-4684-AEED-17801393DA53";
layerId = "43140FD3-4997-43CF-BB67-03A2350EDED2";
name = "Regular Aug 18 16, 17:57";
paths = (
{
closed = 1;
nodes = (
"543 -134 OFFCURVE",
"563 -131 OFFCURVE",
"583 -125 CURVE",
"582 -72 LINE",
"561 -77 OFFCURVE",
"542 -80 OFFCURVE",
"525 -80 CURVE SMOOTH",
"466 -80 OFFCURVE",
"432 -48 OFFCURVE",
"398 -8 CURVE",
"560 11 OFFCURVE",
"659 135 OFFCURVE",
"659 280 CURVE SMOOTH",
"659 438 OFFCURVE",
"539 573 OFFCURVE",
"354 573 CURVE SMOOTH",
"169 573 OFFCURVE",
"49 438 OFFCURVE",
"49 280 CURVE SMOOTH",
"49 131 OFFCURVE",
"156 2 OFFCURVE",
"327 -9 CURVE",
"378 -86 OFFCURVE",
"443 -134 OFFCURVE",
"525 -134 CURVE SMOOTH"
);
},
{
closed = 1;
nodes = (
"216 49 OFFCURVE",
"137 151 OFFCURVE",
"137 279 CURVE SMOOTH",
"137 408 OFFCURVE",
"216 514 OFFCURVE",
"354 514 CURVE SMOOTH",
"491 514 OFFCURVE",
"572 408 OFFCURVE",
"572 280 CURVE SMOOTH",
"572 153 OFFCURVE",
"491 49 OFFCURVE",
"354 49 CURVE SMOOTH"
);
}
);
width = 706;
},
{
associatedMasterId = "98C086B7-81AA-4491-8494-0C6A76849168";
layerId = "EABB8143-6C2E-42A5-BA1A-21BEE3775FDB";
name = "Light Aug 18 16, 17:57";
paths = (
{
closed = 1;
nodes = (
"523 -103 OFFCURVE",
"542 -99 OFFCURVE",
"566 -91 CURVE",
"562 -71 LINE",
"540 -78 OFFCURVE",
"522 -82 OFFCURVE",
"506 -82 CURVE SMOOTH",
"458 -82 OFFCURVE",
"428 -52 OFFCURVE",
"378 -10 CURVE",
"565 0 OFFCURVE",
"650 144 OFFCURVE",
"650 279 CURVE SMOOTH",
"650 419 OFFCURVE",
"556 573 OFFCURVE",
"355 573 CURVE SMOOTH",
"155 573 OFFCURVE",
"61 419 OFFCURVE",
"61 279 CURVE SMOOTH",
"61 142 OFFCURVE",
"150 -7 OFFCURVE",
"347 -11 CURVE",
"411 -65 OFFCURVE",
"448 -103 OFFCURVE",
"505 -103 CURVE SMOOTH"
);
},
{
closed = 1;
nodes = (
"172 13 OFFCURVE",
"91 147 OFFCURVE",
"91 279 CURVE SMOOTH",
"91 406 OFFCURVE",
"174 550 OFFCURVE",
"355 550 CURVE SMOOTH",
"535 550 OFFCURVE",
"620 406 OFFCURVE",
"620 279 CURVE SMOOTH",
"620 151 OFFCURVE",
"535 13 OFFCURVE",
"355 13 CURVE SMOOTH"
);
}
);
width = 703;
},
{
anchors = (
{
name = top;
position = "{371, 561}";
}
);
associatedMasterId = "EFCDB4D9-E20B-4A8D-9DB5-150AD166B0AE";
layerId = "48F132A9-FFCD-44FF-AF6F-8039D4A7A68E";
name = "Bold Aug 19 16, 13:52";
paths = (
{
closed = 1;
nodes = (
"271 19 LINE",
"362 -116 OFFCURVE",
"449 -195 OFFCURVE",
"572 -195 CURVE SMOOTH",
"619 -195 OFFCURVE",
"654 -188 OFFCURVE",
"687 -174 CURVE",
"687 -51 LINE",
"653 -65 OFFCURVE",
"621 -71 OFFCURVE",
"583 -71 CURVE SMOOTH",
"521 -71 OFFCURVE",
"484 -38 OFFCURVE",
"449 11 CURVE"
);
},
{
closed = 1;
nodes = (
"579 -10 OFFCURVE",
"712 105 OFFCURVE",
"712 290 CURVE SMOOTH",
"712 473 OFFCURVE",
"579 593 OFFCURVE",
"376 593 CURVE SMOOTH",
"173 593 OFFCURVE",
"40 473 OFFCURVE",
"40 289 CURVE SMOOTH",
"40 105 OFFCURVE",
"173 -10 OFFCURVE",
"376 -10 CURVE SMOOTH"
);
},
{
closed = 1;
nodes = (
"298 126 OFFCURVE",
"248 194 OFFCURVE",
"248 294 CURVE SMOOTH",
"248 397 OFFCURVE",
"298 456 OFFCURVE",
"376 457 CURVE SMOOTH",
"454 458 OFFCURVE",
"504 397 OFFCURVE",
"504 294 CURVE SMOOTH",
"504 194 OFFCURVE",
"454 126 OFFCURVE",
"376 126 CURVE SMOOTH"
);
}
);
width = 752;
}
);
leftMetricsKey = O;
rightMetricsKey = O;
unicode = 0051;
userData = {
com.typemytype.robofont.layerData = {
b = {
anchors = (
);
components = (
);
contours = (
);
lib = {
};
name = Q;
unicodes = (
);
width = 1438;
};
};
org.robofab.postScriptHintData = {
};
};
},
{
glyphname = R;
layers = (
{
associatedMasterId = "98C086B7-81AA-4491-8494-0C6A76849168";
layerId = "AD679A57-3218-49CD-BD34-4CA76B9861A3";
name = b;
paths = (
{
closed = 1;
nodes = (
"66 0 LINE",
"250 0 LINE",
"250 28 LINE",
"172 28 LINE",
"172 263 LINE",
"313 263 LINE",
"469 0 LINE",
"575 0 LINE",
"575 28 LINE",
"496 28 LINE",
"352 263 LINE",
"461 263 OFFCURVE",
"517 340 OFFCURVE",
"517 414 CURVE SMOOTH",
"517 488 OFFCURVE",
"461 563 OFFCURVE",
"352 563 CURVE SMOOTH",
"60 563 LINE",
"60 535 LINE",
"136 535 LINE",
"136 28 LINE",
"66 28 LINE"
);
},
{
closed = 1;
nodes = (
"172 535 LINE",
"352 535 LINE SMOOTH",
"438 535 OFFCURVE",
"481 474 OFFCURVE",
"481 413 CURVE SMOOTH",
"481 353 OFFCURVE",
"438 293 OFFCURVE",
"352 293 CURVE SMOOTH",
"172 293 LINE"
);
}
);
width = 633;
},
{
anchors = (
{
name = bottom;
position = "{316, 0}";
},
{
name = top;
position = "{284, 563}";
}
);
layerId = "BE4F947C-73D7-4684-AEED-17801393DA53";
paths = (
{
closed = 1;
nodes = (
"269 0 LINE",
"269 53 LINE",
"191 53 LINE",
"191 510 LINE",
"317 510 LINE SMOOTH",
"403 510 OFFCURVE",
"438 465 OFFCURVE",
"438 404 CURVE SMOOTH",
"438 344 OFFCURVE",
"395 306 OFFCURVE",
"311 306 CURVE SMOOTH",
"179 306 LINE",
"179 251 LINE",
"291 251 LINE",
"439 0 LINE",
"585 0 LINE",
"585 53 LINE",
"502 53 LINE",
"377 256 LINE",
"462 267 OFFCURVE",
"518 325 OFFCURVE",
"518 408 CURVE SMOOTH",
"518 502 OFFCURVE",
"457 562 OFFCURVE",
"323 562 CURVE SMOOTH",
"31 563 LINE",
"31 510 LINE",
"109 510 LINE",
"109 53 LINE",
"31 53 LINE",
"31 0 LINE"
);
}
);
width = 588;
},
{
anchors = (
{
name = bottom;
position = "{332, 0}";
},
{
name = top;
position = "{302, 563}";
}
);
layerId = "98C086B7-81AA-4491-8494-0C6A76849168";
paths = (
{
closed = 1;
nodes = (
"245 0 LINE",
"245 22 LINE",
"160 22 LINE",
"160 541 LINE",
"353 541 LINE SMOOTH",
"450 541 OFFCURVE",
"482 474 OFFCURVE",
"482 413 CURVE SMOOTH",
"482 356 OFFCURVE",
"454 285 OFFCURVE",
"325 285 CURVE SMOOTH",
"144 285 LINE",
"144 263 LINE",
"305 263 LINE",
"468 0 LINE",
"571 0 LINE",
"571 22 LINE",
"488 22 LINE",
"337 264 LINE",
"471 266 OFFCURVE",
"511 340 OFFCURVE",
"511 413 CURVE SMOOTH",
"511 487 OFFCURVE",
"466 563 OFFCURVE",
"351 563 CURVE SMOOTH",
"45 563 LINE",
"45 541 LINE",
"130 541 LINE",
"130 22 LINE",
"45 22 LINE",
"45 0 LINE"
);
}
);
width = 610;
},
{
anchors = (
{
name = bottom;
position = "{375, 0}";
},
{
name = top;
position = "{373, 583}";
}
);
guideLines = (
{
angle = 90;
position = "{429, 506}";
}
);
layerId = "EFCDB4D9-E20B-4A8D-9DB5-150AD166B0AE";
paths = (
{
closed = 1;
nodes = (
"346 0 LINE",
"346 120 LINE",
"300 120 LINE",
"300 463 LINE",
"406 463 LINE SMOOTH",
"446 463 OFFCURVE",
"469 443 OFFCURVE",
"469 409 CURVE SMOOTH",
"469 367 OFFCURVE",
"456 346 OFFCURVE",
"406 346 CURVE SMOOTH",
"293 346 LINE",
"293 226 LINE",
"373 226 LINE",
"500 0 LINE",
"699 0 LINE",
"699 121 LINE",
"649 121 LINE",
"566.885 250.37 LINE",
"633 276 OFFCURVE",
"675 324 OFFCURVE",
"675 403 CURVE SMOOTH",
"675 536 OFFCURVE",
"564 583 OFFCURVE",
"417 583 CURVE SMOOTH",
"50 583 LINE",
"50 463 LINE",
"100 463 LINE",
"100 120 LINE",
"50 120 LINE",
"50 0 LINE"
);
}
);
width = 725;
},
{
anchors = (
{
name = bottom;
position = "{382, 0}";
},
{
name = top;
position = "{297, 563}";
}
);
associatedMasterId = "EFCDB4D9-E20B-4A8D-9DB5-150AD166B0AE";
layerId = "0A393933-8899-4D5C-B5DD-E75A4A6001BF";
name = "Bold Aug 18 16, 16:59";
paths = (
{
closed = 1;
nodes = (
"392 0 LINE",
"392 109 LINE",
"307 109 LINE",
"307 453 LINE",
"425 453 LINE SMOOTH",
"476 453 OFFCURVE",
"496 426 OFFCURVE",
"496 396 CURVE SMOOTH",
"496 356 OFFCURVE",
"477 334 OFFCURVE",
"416 334 CURVE SMOOTH",
"348 334 LINE",
"348 233 LINE",
"385 233 LINE",
"507 0 LINE",
"736 0 LINE",
"736 110 LINE",
"656 110 LINE",
"577 251 LINE",
"616 263 OFFCURVE",
"696 284 OFFCURVE",
"696 407 CURVE SMOOTH",
"696 541 OFFCURVE",
"592 563 OFFCURVE",
"457 563 CURVE SMOOTH",
"21 563 LINE",
"21 453 LINE",
"106 453 LINE",
"106 109 LINE",
"21 109 LINE",
"21 0 LINE"
);
}
);
width = 766;
},
{
anchors = (
{
name = bottom;
position = "{324, 0}";
},
{
name = top;
position = "{292, 563}";
}
);
associatedMasterId = "BE4F947C-73D7-4684-AEED-17801393DA53";
layerId = "18C578D9-1D5D-405A-BDDB-BB6DAD4C88A1";
name = "Regular Aug 18 16, 17:57";
paths = (
{
closed = 1;
nodes = (
"277 0 LINE",
"277 53 LINE",
"199 53 LINE",
"199 510 LINE",
"336 510 LINE SMOOTH",
"412 510 OFFCURVE",
"445 467 OFFCURVE",
"445 415 CURVE SMOOTH",
"445 366 OFFCURVE",
"420 313 OFFCURVE",
"322 313 CURVE SMOOTH",
"234 313 LINE",
"234 258 LINE",
"303 258 LINE",
"454 0 LINE",
"593 0 LINE",
"593 53 LINE",
"510 53 LINE",
"381 266 LINE",
"485 282 OFFCURVE",
"526 338 OFFCURVE",
"526 416 CURVE SMOOTH",
"526 514 OFFCURVE",
"453 563 OFFCURVE",
"335 563 CURVE SMOOTH",
"39 563 LINE",
"39 510 LINE",
"117 510 LINE",
"117 53 LINE",
"39 53 LINE",
"39 0 LINE"
);
}
);
width = 619;
},
{
anchors = (
{
name = bottom;
position = "{347, 0}";
},
{
name = top;
position = "{317, 563}";
}
);
associatedMasterId = "98C086B7-81AA-4491-8494-0C6A76849168";
layerId = "A920C777-A225-4352-BAAF-9E5F6AA491CB";
name = "Light Aug 18 16, 17:57";
paths = (
{
closed = 1;
nodes = (
"260 0 LINE",
"260 22 LINE",
"175 22 LINE",
"175 541 LINE",
"368 541 LINE SMOOTH",
"465 541 OFFCURVE",
"497 474 OFFCURVE",
"497 413 CURVE SMOOTH",
"497 356 OFFCURVE",
"469 285 OFFCURVE",
"340 285 CURVE SMOOTH",
"209 285 LINE",
"209 263 LINE",
"320 263 LINE",
"483 0 LINE",
"586 0 LINE",
"586 22 LINE",
"503 22 LINE",
"352 264 LINE",
"486 266 OFFCURVE",
"526 340 OFFCURVE",
"526 413 CURVE SMOOTH",
"526 487 OFFCURVE",
"481 563 OFFCURVE",
"366 563 CURVE SMOOTH",
"60 563 LINE",
"60 541 LINE",
"145 541 LINE",
"145 22 LINE",
"60 22 LINE",
"60 0 LINE"
);
}
);
width = 631;
},
{
anchors = (
{
name = bottom;
position = "{375, 0}";
},
{
name = top;
position = "{290, 563}";
}
);
associatedMasterId = "EFCDB4D9-E20B-4A8D-9DB5-150AD166B0AE";
guideLines = (
{
angle = 90;
position = "{429, 506}";
}
);
layerId = "22A65023-6016-4FFE-BC0B-35FC2FCE9C58";
name = "Bold Aug 19 16, 13:47";
paths = (
{
closed = 1;
nodes = (
"346 0 LINE",
"346 120 LINE",
"300 120 LINE",
"300 463 LINE",
"406 463 LINE SMOOTH",
"446 463 OFFCURVE",
"469 443 OFFCURVE",
"469 409 CURVE SMOOTH",
"469 367 OFFCURVE",
"446 346 OFFCURVE",
"406 346 CURVE SMOOTH",
"341 346 LINE",
"341 226 LINE",
"373 226 LINE",
"500 0 LINE",
"699 0 LINE",
"699 121 LINE",
"649 121 LINE",
"543 288 LINE",
"412 226 LINE",
"559 226 OFFCURVE",
"669 270 OFFCURVE",
"669 403 CURVE SMOOTH",
"669 536 OFFCURVE",
"561 583 OFFCURVE",
"417 583 CURVE SMOOTH",
"50 583 LINE",
"50 463 LINE",
"100 463 LINE",
"100 120 LINE",
"50 120 LINE",
"50 0 LINE"
);
}
);
width = 735;
}
);
unicode = 0052;
userData = {
com.typemytype.robofont.layerData = {
b = {
anchors = (
);
components = (
);
contours = (
{
points = (
{
segmentType = line;
smooth = 0;
x = 135;
y = 0;
},
{
segmentType = line;
smooth = 0;
x = 512;
y = 0;
},
{
segmentType = line;
smooth = 0;
x = 512;
y = 58;
},
{
segmentType = line;
smooth = 0;
x = 353;
y = 58;
},
{
segmentType = line;
smooth = 0;
x = 353;
y = 539;
},
{
segmentType = line;
smooth = 0;
x = 641;
y = 539;
},
{
segmentType = line;
smooth = 0;
x = 961;
y = 0;
},
{
segmentType = line;
smooth = 0;
x = 1178;
y = 0;
},
{
segmentType = line;
smooth = 0;
x = 1178;
y = 58;
},
{
segmentType = line;
smooth = 0;
x = 1015;
y = 58;
},
{
segmentType = line;
smooth = 0;
x = 721;
y = 539;
},
{
smooth = 0;
x = 945;
y = 539;
},
{
smooth = 0;
x = 1059;
y = 696;
},
{
segmentType = curve;
smooth = 1;
x = 1059;
y = 848;
},
{
smooth = 0;
x = 1059;
y = 1000;
},
{
smooth = 0;
x = 945;
y = 1154;
},
{
segmentType = curve;
smooth = 1;
x = 721;
y = 1154;
},
{
segmentType = line;
smooth = 0;
x = 122;
y = 1154;
},
{
segmentType = line;
smooth = 0;
x = 122;
y = 1095;
},
{
segmentType = line;
smooth = 0;
x = 278;
y = 1095;
},
{
segmentType = line;
smooth = 0;
x = 278;
y = 58;
},
{
segmentType = line;
smooth = 0;
x = 135;
y = 58;
}
);
},
{
points = (
{
segmentType = line;
smooth = 0;
x = 353;
y = 1095;
},
{
segmentType = line;
smooth = 1;
x = 721;
y = 1095;
},
{
smooth = 0;
x = 898;
y = 1095;
},
{
smooth = 0;
x = 985;
y = 971;
},
{
segmentType = curve;
smooth = 1;
x = 985;
y = 845;
},
{
smooth = 0;
x = 985;
y = 723;
},
{
smooth = 0;
x = 896;
y = 600;
},
{
segmentType = curve;
smooth = 1;
x = 721;
y = 600;
},
{
segmentType = line;
smooth = 0;
x = 353;
y = 600;
}
);
}
);
lib = {
};
name = R;
unicodes = (
);
width = 1296;
};
};
org.robofab.postScriptHintData = {
};
};
},
{
color = 0;
glyphname = S;
layers = (
{
associatedMasterId = "98C086B7-81AA-4491-8494-0C6A76849168";
layerId = "1E46E045-873A-41D6-8967-D550FD9CC2B7";
name = b;
paths = (
{
closed = 1;
nodes = (
"311 -11 CURVE SMOOTH",
"454 -11 OFFCURVE",
"501 83 OFFCURVE",
"501 144 CURVE SMOOTH",
"501 265 OFFCURVE",
"405 292 OFFCURVE",
"296 304 CURVE SMOOTH",
"198 314 OFFCURVE",
"131 326 OFFCURVE",
"131 416 CURVE SMOOTH",
"131 487 OFFCURVE",
"176 539 OFFCURVE",
"280 539 CURVE SMOOTH",
"351 539 OFFCURVE",
"432 500 OFFCURVE",
"432 459 CURVE SMOOTH",
"432 410 LINE",
"468 410 LINE",
"468 563 LINE",
"432 563 LINE",
"432 512 LINE",
"404 552 OFFCURVE",
"329 572 OFFCURVE",
"274 572 CURVE SMOOTH",
"176 572 OFFCURVE",
"90 521 OFFCURVE",
"90 421 CURVE SMOOTH",
"90 310 OFFCURVE",
"162 283 OFFCURVE",
"285 270 CURVE SMOOTH",
"393 259 OFFCURVE",
"460 238 OFFCURVE",
"460 146 CURVE SMOOTH",
"460 83 OFFCURVE",
"406 23 OFFCURVE",
"314 23 CURVE SMOOTH",
"219 23 OFFCURVE",
"127 58 OFFCURVE",
"127 121 CURVE SMOOTH",
"127 189 LINE",
"91 189 LINE",
"91 0 LINE",
"127 0 LINE",
"127 60 LINE",
"164 11 OFFCURVE",
"242 -11 OFFCURVE"
);
}
);
width = 558;
},
{
anchors = (
{
name = bottom;
position = "{292, 0}";
},
{
name = top;
position = "{266, 563}";
}
);
layerId = "BE4F947C-73D7-4684-AEED-17801393DA53";
paths = (
{
closed = 1;
nodes = (
"394 -24 OFFCURVE",
"493 27 OFFCURVE",
"498 142 CURVE SMOOTH",
"501 207 OFFCURVE",
"475 290 OFFCURVE",
"337 324 CURVE SMOOTH",
"251 345 LINE SMOOTH",
"182 362 OFFCURVE",
"149 385 OFFCURVE",
"150 433 CURVE SMOOTH",
"151 472 OFFCURVE",
"183 527 OFFCURVE",
"271 523 CURVE SMOOTH",
"359 519 OFFCURVE",
"402 450 OFFCURVE",
"412 404 CURVE",
"474 404 LINE",
"474 563 LINE",
"406 563 LINE",
"406 473 LINE",
"435 444 LINE",
"432 498 OFFCURVE",
"380 566 OFFCURVE",
"276 574 CURVE SMOOTH",
"156 583 OFFCURVE",
"71 509 OFFCURVE",
"71 426 CURVE SMOOTH",
"71 344 OFFCURVE",
"111 291 OFFCURVE",
"212 268 CURVE SMOOTH",
"288 251 LINE SMOOTH",
"405 225 OFFCURVE",
"423 171 OFFCURVE",
"420 126 CURVE SMOOTH",
"416 70 OFFCURVE",
"363 35 OFFCURVE",
"279 46 CURVE SMOOTH",
"176 60 OFFCURVE",
"139 158 OFFCURVE",
"127 190 CURVE",
"64 190 LINE",
"64 0 LINE",
"132 0 LINE",
"132 107 LINE",
"85 158 LINE",
"104 117 OFFCURVE",
"142 10 OFFCURVE",
"275 -8 CURVE SMOOTH"
);
}
);
width = 535;
},
{
anchors = (
{
name = bottom;
position = "{301, 0}";
},
{
name = top;
position = "{271, 563}";
}
);
layerId = "98C086B7-81AA-4491-8494-0C6A76849168";
paths = (
{
closed = 1;
nodes = (
"404 -11 OFFCURVE",
"478 51 OFFCURVE",
"478 142 CURVE SMOOTH",
"478 230 OFFCURVE",
"433 277 OFFCURVE",
"327 291 CURVE SMOOTH",
"245 302 LINE SMOOTH",
"158 314 OFFCURVE",
"101 341 OFFCURVE",
"101 429 CURVE SMOOTH",
"101 501 OFFCURVE",
"155 550 OFFCURVE",
"251 550 CURVE SMOOTH",
"365 550 OFFCURVE",
"412 491 OFFCURVE",
"427 412 CURVE",
"455 412 LINE",
"455 563 LINE",
"427 563 LINE",
"427 468 LINE",
"434 463 LINE",
"423 515 OFFCURVE",
"357 573 OFFCURVE",
"250 573 CURVE SMOOTH",
"136 573 OFFCURVE",
"73 516 OFFCURVE",
"73 428 CURVE SMOOTH",
"73 332 OFFCURVE",
"131 292 OFFCURVE",
"241 277 CURVE SMOOTH",
"322 266 LINE SMOOTH",
"419 253 OFFCURVE",
"450 217 OFFCURVE",
"450 140 CURVE SMOOTH",
"450 63 OFFCURVE",
"386 13 OFFCURVE",
"284 13 CURVE SMOOTH",
"186 13 OFFCURVE",
"105 74 OFFCURVE",
"96 189 CURVE",
"68 189 LINE",
"68 0 LINE",
"96 0 LINE",
"96 113 LINE",
"86 139 LINE",
"90 62 OFFCURVE",
"172 -11 OFFCURVE",
"284 -11 CURVE SMOOTH"
);
}
);
width = 537;
},
{
anchors = (
{
name = bottom;
position = "{319, -14}";
},
{
name = top;
position = "{305, 587}";
}
);
layerId = "EFCDB4D9-E20B-4A8D-9DB5-150AD166B0AE";
paths = (
{
closed = 1;
nodes = (
"507 -10 OFFCURVE",
"581 67 OFFCURVE",
"581 179 CURVE SMOOTH",
"581 261 OFFCURVE",
"531 325 OFFCURVE",
"392 356 CURVE SMOOTH",
"352 365 LINE SMOOTH",
"270 383 OFFCURVE",
"245 406 OFFCURVE",
"245 437 CURVE SMOOTH",
"245 464 OFFCURVE",
"271 484 OFFCURVE",
"305 484 CURVE SMOOTH",
"369 484 OFFCURVE",
"418 449 OFFCURVE",
"442 411 CURVE",
"552 411 LINE",
"552 583 LINE",
"432 583 LINE",
"432 511 LINE",
"456 511 LINE",
"409 569 OFFCURVE",
"344 593 OFFCURVE",
"248 593 CURVE SMOOTH",
"129 593 OFFCURVE",
"50 518 OFFCURVE",
"50 414 CURVE SMOOTH",
"50 329 OFFCURVE",
"117 265 OFFCURVE",
"236 239 CURVE SMOOTH",
"315 222 LINE SMOOTH",
"373 209 OFFCURVE",
"398 188 OFFCURVE",
"398 160 CURVE SMOOTH",
"398 130 OFFCURVE",
"369 113 OFFCURVE",
"324 113 CURVE SMOOTH",
"252 113 OFFCURVE",
"203 140 OFFCURVE",
"160 199 CURVE",
"45 199 LINE",
"45 0 LINE",
"175 0 LINE",
"175 96 LINE",
"149 96 LINE",
"167 22 OFFCURVE",
"280 -10 OFFCURVE",
"364 -10 CURVE SMOOTH"
);
}
);
width = 615;
},
{
anchors = (
{
name = bottom;
position = "{326, 0}";
},
{
name = top;
position = "{285, 561}";
}
);
associatedMasterId = "EFCDB4D9-E20B-4A8D-9DB5-150AD166B0AE";
layerId = "F149BA75-3AD4-4426-BAB0-4AD6C0306E08";
name = "Bold Aug 18 16, 16:59";
paths = (
{
closed = 1;
nodes = (
"497 -11 OFFCURVE",
"547 98 OFFCURVE",
"539 193 CURVE SMOOTH",
"532 269 OFFCURVE",
"514 310 OFFCURVE",
"345 367 CURVE SMOOTH",
"257 396 OFFCURVE",
"254 410 OFFCURVE",
"254 432 CURVE SMOOTH",
"253 449 OFFCURVE",
"268 464 OFFCURVE",
"291 464 CURVE SMOOTH",
"344 464 OFFCURVE",
"387 429 OFFCURVE",
"390 427 CURVE",
"390 391 LINE",
"510 391 LINE",
"510 562 LINE",
"390 562 LINE",
"390 522 LINE",
"378 543 OFFCURVE",
"343 573 OFFCURVE",
"262 573 CURVE SMOOTH",
"93 573 OFFCURVE",
"48 475 OFFCURVE",
"48 411 CURVE SMOOTH",
"49 325 OFFCURVE",
"74 275 OFFCURVE",
"259 217 CURVE SMOOTH",
"332 193 OFFCURVE",
"357 187 OFFCURVE",
"357 148 CURVE SMOOTH",
"357 110 OFFCURVE",
"324 101 OFFCURVE",
"294 101 CURVE SMOOTH",
"246 101 OFFCURVE",
"205 124 OFFCURVE",
"183 138 CURVE",
"183 219 LINE",
"53 219 LINE",
"53 0 LINE",
"183 0 LINE",
"183 34 LINE",
"211 5 OFFCURVE",
"277 -11 OFFCURVE",
"329 -11 CURVE SMOOTH"
);
}
);
width = 589;
},
{
anchors = (
{
name = bottom;
position = "{295, 0}";
},
{
name = top;
position = "{273, 563}";
}
);
associatedMasterId = "BE4F947C-73D7-4684-AEED-17801393DA53";
layerId = "769875B7-C649-4A6B-A64B-6A59ED6E353D";
name = "Regular Aug 18 16, 17:57";
paths = (
{
closed = 1;
nodes = (
"416 -10 OFFCURVE",
"480 67 OFFCURVE",
"480 155 CURVE SMOOTH",
"480 263 OFFCURVE",
"416 301 OFFCURVE",
"285 324 CURVE SMOOTH",
"262 328 LINE SMOOTH",
"183 342 OFFCURVE",
"141 370 OFFCURVE",
"141 428 CURVE SMOOTH",
"141 480 OFFCURVE",
"180 516 OFFCURVE",
"249 516 CURVE SMOOTH",
"358 516 OFFCURVE",
"386 452 OFFCURVE",
"394 404 CURVE",
"453 404 LINE",
"453 563 LINE",
"389 563 LINE",
"389 477 LINE",
"410 477 LINE",
"389 537 OFFCURVE",
"324 574 OFFCURVE",
"245 574 CURVE SMOOTH",
"139 574 OFFCURVE",
"68 519 OFFCURVE",
"68 420 CURVE SMOOTH",
"68 325 OFFCURVE",
"139 274 OFFCURVE",
"247 256 CURVE SMOOTH",
"271 252 LINE SMOOTH",
"371 235 OFFCURVE",
"407 216 OFFCURVE",
"407 143 CURVE SMOOTH",
"407 82 OFFCURVE",
"366 48 OFFCURVE",
"297 48 CURVE SMOOTH",
"201 48 OFFCURVE",
"139 108 OFFCURVE",
"131 190 CURVE",
"71 190 LINE",
"71 0 LINE",
"136 0 LINE",
"136 90 LINE",
"123 90 LINE",
"155 29 OFFCURVE",
"219 -10 OFFCURVE",
"300 -10 CURVE SMOOTH"
);
}
);
width = 522;
},
{
anchors = (
{
name = bottom;
position = "{313, 0}";
},
{
name = top;
position = "{283, 563}";
}
);
associatedMasterId = "98C086B7-81AA-4491-8494-0C6A76849168";
layerId = "77073327-989A-4507-84E4-F16A1AF2C06E";
name = "Light Aug 18 16, 17:57";
paths = (
{
closed = 1;
nodes = (
"472 -11 OFFCURVE",
"500 92 OFFCURVE",
"500 144 CURVE SMOOTH",
"500 275 OFFCURVE",
"405 285 OFFCURVE",
"298 296 CURVE SMOOTH",
"200 306 OFFCURVE",
"113 317 OFFCURVE",
"113 418 CURVE SMOOTH",
"113 491 OFFCURVE",
"162 550 OFFCURVE",
"279 550 CURVE SMOOTH",
"373 550 OFFCURVE",
"437 507 OFFCURVE",
"440 466 CURVE SMOOTH",
"439 412 LINE",
"467 412 LINE",
"467 563 LINE",
"439 563 LINE",
"439 509 LINE",
"415 551 OFFCURVE",
"332 573 OFFCURVE",
"276 573 CURVE SMOOTH",
"170 573 OFFCURVE",
"85 524 OFFCURVE",
"85 419 CURVE SMOOTH",
"85 293 OFFCURVE",
"191 280 OFFCURVE",
"293 271 CURVE SMOOTH",
"401 262 OFFCURVE",
"472 246 OFFCURVE",
"472 147 CURVE SMOOTH",
"472 80 OFFCURVE",
"432 13 OFFCURVE",
"311 13 CURVE SMOOTH",
"194 13 OFFCURVE",
"133 45 OFFCURVE",
"114 115 CURVE",
"114 189 LINE",
"86 189 LINE",
"86 0 LINE",
"114 0 LINE",
"114 72 LINE",
"140 12 OFFCURVE",
"214 -11 OFFCURVE",
"311 -11 CURVE SMOOTH"
);
}
);
width = 553;
},
{
anchors = (
{
name = bottom;
position = "{326, 0}";
},
{
name = top;
position = "{285, 561}";
}
);
associatedMasterId = "EFCDB4D9-E20B-4A8D-9DB5-150AD166B0AE";
layerId = "7ACDFDF1-744F-4727-8C20-6C10F3EED5F7";
name = "Bold Aug 18 16, 18:22";
paths = (
{
closed = 1;
nodes = (
"467 -10 OFFCURVE",
"539 60 OFFCURVE",
"539 168 CURVE SMOOTH",
"539 263 OFFCURVE",
"488 320 OFFCURVE",
"370 355 CURVE SMOOTH",
"330 367 LINE SMOOTH",
"263 387 OFFCURVE",
"244 401 OFFCURVE",
"244 429 CURVE SMOOTH",
"244 452 OFFCURVE",
"260 464 OFFCURVE",
"291 464 CURVE SMOOTH",
"348 464 OFFCURVE",
"386 429 OFFCURVE",
"398 391 CURVE",
"510 391 LINE",
"510 563 LINE",
"390 563 LINE",
"390 496 LINE",
"414 482 LINE",
"377 536 OFFCURVE",
"332 573 OFFCURVE",
"236 573 CURVE SMOOTH",
"116 573 OFFCURVE",
"48 499 OFFCURVE",
"48 411 CURVE SMOOTH",
"48 321 OFFCURVE",
"103 265 OFFCURVE",
"216 227 CURVE SMOOTH",
"294 201 LINE SMOOTH",
"342 185 OFFCURVE",
"357 173 OFFCURVE",
"357 142 CURVE SMOOTH",
"357 115 OFFCURVE",
"338 99 OFFCURVE",
"305 99 CURVE SMOOTH",
"236 99 OFFCURVE",
"190 141 OFFCURVE",
"168 199 CURVE",
"53 199 LINE",
"53 0 LINE",
"183 0 LINE",
"183 98 LINE",
"155 98 LINE",
"171 29 OFFCURVE",
"269 -10 OFFCURVE",
"343 -10 CURVE SMOOTH"
);
}
);
width = 589;
},
{
anchors = (
{
name = bottom;
position = "{295, 0}";
},
{
name = top;
position = "{273, 563}";
}
);
associatedMasterId = "BE4F947C-73D7-4684-AEED-17801393DA53";
layerId = "33492D74-8F55-48BC-BADB-674F83F177E1";
name = "Jun 7 17, 15:02";
paths = (
{
closed = 1;
nodes = (
"408 -10 OFFCURVE",
"481 57 OFFCURVE",
"481 148 CURVE SMOOTH",
"481 224 OFFCURVE",
"457 284 OFFCURVE",
"300 320 CURVE SMOOTH",
"265 328 LINE SMOOTH",
"188 346 OFFCURVE",
"142 370 OFFCURVE",
"142 428 CURVE SMOOTH",
"142 480 OFFCURVE",
"180 516 OFFCURVE",
"249 516 CURVE SMOOTH",
"358 516 OFFCURVE",
"386 452 OFFCURVE",
"394 404 CURVE",
"453 404 LINE",
"453 563 LINE",
"389 563 LINE",
"389 477 LINE",
"410 477 LINE",
"389 537 OFFCURVE",
"324 574 OFFCURVE",
"245 574 CURVE SMOOTH",
"139 574 OFFCURVE",
"69 519 OFFCURVE",
"69 420 CURVE SMOOTH",
"69 338 OFFCURVE",
"109 288 OFFCURVE",
"244 260 CURVE SMOOTH",
"278 253 LINE SMOOTH",
"378 232 OFFCURVE",
"407 197 OFFCURVE",
"407 148 CURVE SMOOTH",
"407 86 OFFCURVE",
"362 48 OFFCURVE",
"297 48 CURVE SMOOTH",
"201 48 OFFCURVE",
"139 108 OFFCURVE",
"131 190 CURVE",
"71 190 LINE",
"71 0 LINE",
"136 0 LINE",
"136 90 LINE",
"123 90 LINE",
"155 29 OFFCURVE",
"219 -10 OFFCURVE",
"300 -10 CURVE SMOOTH"
);
}
);
width = 522;
}
);
unicode = 0053;
userData = {
com.typemytype.robofont.layerData = {
b = {
anchors = (
);
components = (
);
contours = (
{
points = (
{
segmentType = curve;
smooth = 1;
x = 636;
y = "-23";
},
{
smooth = 0;
x = 930;
y = "-23";
},
{
smooth = 0;
x = 1026;
y = 171;
},
{
segmentType = curve;
smooth = 1;
x = 1026;
y = 295;
},
{
smooth = 0;
x = 1026;
y = 543;
},
{
smooth = 0;
x = 829;
y = 599;
},
{
segmentType = curve;
smooth = 1;
x = 606;
y = 622;
},
{
smooth = 0;
x = 405;
y = 643;
},
{
smooth = 0;
x = 269;
y = 667;
},
{
segmentType = curve;
smooth = 1;
x = 269;
y = 851;
},
{
smooth = 0;
x = 269;
y = 998;
},
{
smooth = 0;
x = 360;
y = 1104;
},
{
segmentType = curve;
smooth = 1;
x = 573;
y = 1104;
},
{
smooth = 0;
x = 719;
y = 1104;
},
{
smooth = 0;
x = 885;
y = 1024;
},
{
segmentType = curve;
smooth = 1;
x = 885;
y = 941;
},
{
segmentType = line;
smooth = 0;
x = 885;
y = 839;
},
{
segmentType = line;
smooth = 0;
x = 959;
y = 839;
},
{
segmentType = line;
smooth = 0;
x = 959;
y = 1152;
},
{
segmentType = line;
smooth = 0;
x = 885;
y = 1152;
},
{
segmentType = line;
smooth = 0;
x = 885;
y = 1049;
},
{
smooth = 0;
x = 828;
y = 1131;
},
{
smooth = 0;
x = 673;
y = 1172;
},
{
segmentType = curve;
smooth = 1;
x = 561;
y = 1172;
},
{
smooth = 0;
x = 360;
y = 1172;
},
{
smooth = 0;
x = 184;
y = 1066;
},
{
segmentType = curve;
smooth = 1;
x = 184;
y = 863;
},
{
smooth = 0;
x = 184;
y = 635;
},
{
smooth = 0;
x = 332;
y = 579;
},
{
segmentType = curve;
smooth = 1;
x = 584;
y = 553;
},
{
smooth = 0;
x = 805;
y = 531;
},
{
smooth = 0;
x = 942;
y = 488;
},
{
segmentType = curve;
smooth = 1;
x = 942;
y = 300;
},
{
smooth = 0;
x = 942;
y = 169;
},
{
smooth = 0;
x = 831;
y = 47;
},
{
segmentType = curve;
smooth = 1;
x = 644;
y = 47;
},
{
smooth = 0;
x = 448;
y = 47;
},
{
smooth = 0;
x = 261;
y = 118;
},
{
segmentType = curve;
smooth = 1;
x = 261;
y = 247;
},
{
segmentType = line;
smooth = 0;
x = 261;
y = 387;
},
{
segmentType = line;
smooth = 0;
x = 187;
y = 387;
},
{
segmentType = line;
smooth = 0;
x = 187;
y = "-1";
},
{
segmentType = line;
smooth = 0;
x = 261;
y = "-1";
},
{
segmentType = line;
smooth = 0;
x = 261;
y = 122;
},
{
smooth = 0;
x = 335;
y = 22;
},
{
smooth = 0;
x = 496;
y = "-23";
}
);
}
);
lib = {
};
name = S;
unicodes = (
);
width = 1143;
};
};
org.robofab.postScriptHintData = {
};
};
},
{
color = 0;
glyphname = Germandbls;
layers = (
{
layerId = "98C086B7-81AA-4491-8494-0C6A76849168";
paths = (
{
closed = 1;
nodes = (
"466 -10 OFFCURVE",
"548 49 OFFCURVE",
"548 160 CURVE SMOOTH",
"548 254 OFFCURVE",
"472 321 OFFCURVE",
"334 321 CURVE",
"487 502 LINE",
"487 520 LINE",
"444 548 OFFCURVE",
"388 573 OFFCURVE",
"313 573 CURVE SMOOTH",
"175 573 OFFCURVE",
"100 498 OFFCURVE",
"100 371 CURVE SMOOTH",
"100 22 LINE",
"50 22 LINE",
"50 0 LINE",
"186 0 LINE",
"186 22 LINE",
"130 22 LINE",
"130 373 LINE SMOOTH",
"130 494 OFFCURVE",
"200 550 OFFCURVE",
"314 550 CURVE SMOOTH",
"378 550 OFFCURVE",
"422 533 OFFCURVE",
"461 508 CURVE",
"304 319 LINE",
"304 301 LINE",
"454 301 OFFCURVE",
"518 256 OFFCURVE",
"518 160 CURVE SMOOTH",
"518 62 OFFCURVE",
"452 12 OFFCURVE",
"314 12 CURVE",
"314 -10 LINE"
);
}
);
width = 602;
},
{
layerId = "BE4F947C-73D7-4684-AEED-17801393DA53";
paths = (
{
closed = 1;
nodes = (
"478 -10 OFFCURVE",
"560 49 OFFCURVE",
"560 161 CURVE SMOOTH",
"560 254 OFFCURVE",
"499 309 OFFCURVE",
"388 321 CURVE",
"499 474 LINE",
"499 530 LINE",
"451 554 OFFCURVE",
"396 573 OFFCURVE",
"316 573 CURVE SMOOTH",
"167 573 OFFCURVE",
"86 498 OFFCURVE",
"86 371 CURVE SMOOTH",
"86 53 LINE",
"36 53 LINE",
"36 0 LINE",
"224 0 LINE",
"224 53 LINE",
"168 53 LINE",
"168 373 LINE SMOOTH",
"168 469 OFFCURVE",
"225 513 OFFCURVE",
"317 513 CURVE SMOOTH",
"368 513 OFFCURVE",
"405 506 OFFCURVE",
"439 493 CURVE",
"316 323 LINE",
"316 267 LINE",
"417 267 OFFCURVE",
"472 232 OFFCURVE",
"472 158 CURVE SMOOTH",
"472 86 OFFCURVE",
"425 50 OFFCURVE",
"326 50 CURVE",
"326 -10 LINE"
);
}
);
width = 600;
},
{
layerId = "EFCDB4D9-E20B-4A8D-9DB5-150AD166B0AE";
paths = (
{
closed = 1;
nodes = (
"541 -10 OFFCURVE",
"634 34 OFFCURVE",
"634 157 CURVE SMOOTH",
"634 257 OFFCURVE",
"575 303 OFFCURVE",
"484 323 CURVE",
"573 429 LINE",
"573 543 LINE",
"522 572 OFFCURVE",
"441 593 OFFCURVE",
"355 593 CURVE SMOOTH",
"177 593 OFFCURVE",
"100 517 OFFCURVE",
"100 377 CURVE SMOOTH",
"100 120 LINE",
"50 120 LINE",
"50 0 LINE",
"348 0 LINE",
"348 120 LINE",
"292 120 LINE",
"292 387 LINE SMOOTH",
"292 439 OFFCURVE",
"322 463 OFFCURVE",
"370 463 CURVE SMOOTH",
"393 463 OFFCURVE",
"412 459 OFFCURVE",
"428 454 CURVE",
"320 323 LINE",
"320 267 LINE",
"402 267 OFFCURVE",
"454 242 OFFCURVE",
"454 189 CURVE SMOOTH",
"454 160 OFFCURVE",
"440 136 OFFCURVE",
"400 127 CURVE",
"400 -10 LINE"
);
}
);
width = 664;
}
);
unicode = 1E9E;
},
{
glyphname = Schwa;
layers = (
{
layerId = "BE4F947C-73D7-4684-AEED-17801393DA53";
paths = (
{
closed = 1;
nodes = (
"495 -11 OFFCURVE",
"627 102 OFFCURVE",
"627 283 CURVE SMOOTH",
"627 457 OFFCURVE",
"498 573 OFFCURVE",
"330 573 CURVE SMOOTH",
"206 573 OFFCURVE",
"115 517 OFFCURVE",
"54 461 CURVE",
"86 414 LINE",
"152 473 OFFCURVE",
"230 514 OFFCURVE",
"327 514 CURVE SMOOTH",
"454 514 OFFCURVE",
"540 423 OFFCURVE",
"540 277 CURVE SMOOTH",
"540 136 OFFCURVE",
"450 51 OFFCURVE",
"331 51 CURVE SMOOTH",
"216 51 OFFCURVE",
"130 122 OFFCURVE",
"130 245 CURVE",
"554 245 LINE",
"556 302 LINE",
"44 302 LINE",
"44 275 LINE SMOOTH",
"44 101 OFFCURVE",
"152 -11 OFFCURVE",
"329 -11 CURVE SMOOTH"
);
}
);
width = 677;
},
{
layerId = "98C086B7-81AA-4491-8494-0C6A76849168";
paths = (
{
closed = 1;
nodes = (
"460 -11 OFFCURVE",
"599 87 OFFCURVE",
"599 278 CURVE SMOOTH",
"599 463 OFFCURVE",
"462 573 OFFCURVE",
"312 573 CURVE SMOOTH",
"214 573 OFFCURVE",
"134 534 OFFCURVE",
"63 468 CURVE",
"80 450 LINE",
"139 508 OFFCURVE",
"220 550 OFFCURVE",
"311 550 CURVE SMOOTH",
"457 550 OFFCURVE",
"569 438 OFFCURVE",
"569 277 CURVE SMOOTH",
"569 114 OFFCURVE",
"455 13 OFFCURVE",
"318 13 CURVE SMOOTH",
"198 13 OFFCURVE",
"80 93 OFFCURVE",
"80 268 CURVE",
"575 268 LINE",
"575 291 LINE",
"50 291 LINE",
"50 282 LINE SMOOTH",
"50 80 OFFCURVE",
"175 -11 OFFCURVE",
"318 -11 CURVE SMOOTH"
);
}
);
width = 659;
},
{
layerId = "EFCDB4D9-E20B-4A8D-9DB5-150AD166B0AE";
paths = (
{
closed = 1;
nodes = (
"522 -10 OFFCURVE",
"638 115 OFFCURVE",
"638 290 CURVE SMOOTH",
"638 474 OFFCURVE",
"522 591 OFFCURVE",
"321 591 CURVE SMOOTH",
"209 591 OFFCURVE",
"108 552 OFFCURVE",
"39 503 CURVE",
"104 365 LINE",
"152 393 OFFCURVE",
"212 416 OFFCURVE",
"276 416 CURVE SMOOTH",
"367 416 OFFCURVE",
"430 370 OFFCURVE",
"430 267 CURVE SMOOTH",
"430 178 OFFCURVE",
"407 126 OFFCURVE",
"335 126 CURVE SMOOTH",
"273 126 OFFCURVE",
"244 164 OFFCURVE",
"244 229 CURVE",
"512 229 LINE",
"513 328 LINE",
"36 328 LINE",
"36 283 LINE SMOOTH",
"36 115 OFFCURVE",
"131 -10 OFFCURVE",
"329 -10 CURVE SMOOTH"
);
}
);
width = 670;
},
{
associatedMasterId = "EFCDB4D9-E20B-4A8D-9DB5-150AD166B0AE";
layerId = "8B97491F-5BE5-4D16-9069-CBB7DB7A5B55";
name = "Bold Aug 18 16, 16:59";
width = 293;
},
{
associatedMasterId = "BE4F947C-73D7-4684-AEED-17801393DA53";
layerId = "9F094D11-81D9-4F1B-8C2B-C4BF61D32954";
name = "Regular Aug 18 16, 17:57";
width = 293;
},
{
associatedMasterId = "98C086B7-81AA-4491-8494-0C6A76849168";
layerId = "99466A8F-0EC2-4DD8-8E2D-3036173E3882";
name = "Light Aug 18 16, 17:57";
width = 293;
}
);
unicode = 018F;
userData = {
org.robofab.postScriptHintData = {
};
};
},
{
glyphname = T;
layers = (
{
associatedMasterId = "98C086B7-81AA-4491-8494-0C6A76849168";
layerId = "FA640D9F-518F-4944-B985-6F6C486767D6";
name = b;
width = 560;
},
{
anchors = (
{
name = bottom;
position = "{281, 0}";
},
{
name = mid;
position = "{279, 285}";
},
{
name = top;
position = "{278, 563}";
}
);
layerId = "BE4F947C-73D7-4684-AEED-17801393DA53";
paths = (
{
closed = 1;
nodes = (
"409 0 LINE",
"409 53 LINE",
"321 53 LINE",
"321 510 LINE",
"472 510 LINE",
"472 393 LINE",
"533 393 LINE",
"533 563 LINE",
"25 563 LINE",
"25 393 LINE",
"86 393 LINE",
"86 510 LINE",
"240 510 LINE",
"240 53 LINE",
"152 53 LINE",
"152 0 LINE"
);
}
);
width = 559;
},
{
anchors = (
{
name = bottom;
position = "{302, 0}";
},
{
name = mid;
position = "{303, 278}";
},
{
name = top;
position = "{302, 563}";
}
);
layerId = "98C086B7-81AA-4491-8494-0C6A76849168";
paths = (
{
closed = 1;
nodes = (
"401 0 LINE",
"401 22 LINE",
"317 22 LINE",
"317 541 LINE",
"533 541 LINE",
"533 410 LINE",
"560 410 LINE",
"560 563 LINE",
"50 563 LINE",
"50 410 LINE",
"76 410 LINE",
"76 541 LINE",
"287 541 LINE",
"287 22 LINE",
"202 22 LINE",
"202 0 LINE"
);
}
);
width = 610;
},
{
anchors = (
{
name = bottom;
position = "{324, 0}";
},
{
name = mid;
position = "{324, 279}";
},
{
name = top;
position = "{324, 583}";
}
);
layerId = "EFCDB4D9-E20B-4A8D-9DB5-150AD166B0AE";
paths = (
{
closed = 1;
nodes = (
"484 0 LINE",
"484 120 LINE",
"424 120 LINE",
"424 467 LINE",
"508 467 LINE",
"508 373 LINE",
"634 373 LINE",
"634 583 LINE",
"14 583 LINE",
"14 373 LINE",
"140 373 LINE",
"140 467 LINE",
"224 467 LINE",
"224 120 LINE",
"164 120 LINE",
"164 0 LINE"
);
}
);
width = 648;
},
{
anchors = (
{
name = bottom;
position = "{360, 0}";
},
{
name = mid;
position = "{347, 259}";
},
{
name = top;
position = "{348, 563}";
}
);
associatedMasterId = "EFCDB4D9-E20B-4A8D-9DB5-150AD166B0AE";
layerId = "BFC86BCB-E0B0-4F24-AC63-C8736A2041C9";
name = "Bold Aug 18 16, 16:59";
paths = (
{
closed = 1;
nodes = (
"532 0 LINE",
"532 109 LINE",
"448 109 LINE",
"448 453 LINE",
"563 453 LINE",
"563 306 LINE",
"689 306 LINE",
"689 563 LINE",
"-1 563 LINE",
"-1 306 LINE",
"128 306 LINE",
"128 453 LINE",
"247 453 LINE",
"247 109 LINE",
"162 109 LINE",
"162 0 LINE"
);
}
);
width = 688;
},
{
anchors = (
{
name = bottom;
position = "{281, 0}";
},
{
name = mid;
position = "{279, 315}";
},
{
name = top;
position = "{278, 563}";
}
);
associatedMasterId = "BE4F947C-73D7-4684-AEED-17801393DA53";
layerId = "F7B4626C-E38E-4E5E-AE1E-474A6939493F";
name = "Regular Aug 18 16, 17:57";
paths = (
{
closed = 1;
nodes = (
"399 0 LINE",
"399 53 LINE",
"321 53 LINE",
"321 510 LINE",
"472 510 LINE",
"472 367 LINE",
"533 367 LINE",
"533 563 LINE",
"25 563 LINE",
"25 367 LINE",
"86 367 LINE",
"86 510 LINE",
"240 510 LINE",
"240 53 LINE",
"162 53 LINE",
"162 0 LINE"
);
}
);
width = 559;
},
{
anchors = (
{
name = bottom;
position = "{276, 0}";
},
{
name = mid;
position = "{278, 338}";
},
{
name = top;
position = "{277, 563}";
}
);
associatedMasterId = "98C086B7-81AA-4491-8494-0C6A76849168";
layerId = "838D9DC5-B80C-4744-B6B0-65E344719638";
name = "Light Aug 18 16, 17:57";
paths = (
{
closed = 1;
nodes = (
"376 0 LINE",
"376 22 LINE",
"292 22 LINE",
"292 541 LINE",
"508 541 LINE",
"508 377 LINE",
"535 377 LINE",
"535 563 LINE",
"25 563 LINE",
"25 377 LINE",
"51 377 LINE",
"51 541 LINE",
"262 541 LINE",
"262 22 LINE",
"177 22 LINE",
"177 0 LINE"
);
}
);
width = 560;
}
);
unicode = 0054;
userData = {
com.typemytype.robofont.layerData = {
b = {
anchors = (
);
components = (
);
contours = (
);
lib = {
};
name = T;
unicodes = (
);
width = 1147;
};
};
org.robofab.postScriptHintData = {
};
};
},
{
glyphname = U;
layers = (
{
associatedMasterId = "98C086B7-81AA-4491-8494-0C6A76849168";
layerId = "A6EB9B77-C65C-40EA-B7C7-00898C4AC30D";
name = b;
width = 739;
},
{
anchors = (
{
name = bottom;
position = "{338, 0}";
},
{
name = ogonek;
position = "{363, 0}";
},
{
name = top;
position = "{344, 563}";
},
{
name = topright;
position = "{540, 563}";
}
);
layerId = "BE4F947C-73D7-4684-AEED-17801393DA53";
paths = (
{
closed = 1;
nodes = (
"476 -10 OFFCURVE",
"574 58 OFFCURVE",
"574 197 CURVE SMOOTH",
"574 510 LINE",
"650 510 LINE",
"650 563 LINE",
"431 563 LINE",
"431 510 LINE",
"505 510 LINE",
"505 194 LINE SMOOTH",
"505 104 OFFCURVE",
"444 50 OFFCURVE",
"339 50 CURVE SMOOTH",
"241 50 OFFCURVE",
"183 104 OFFCURVE",
"183 193 CURVE SMOOTH",
"183 510 LINE",
"258 510 LINE",
"258 563 LINE",
"27 563 LINE",
"27 510 LINE",
"102 510 LINE",
"102 204 LINE SMOOTH",
"102 82 OFFCURVE",
"169 -10 OFFCURVE",
"337 -10 CURVE SMOOTH"
);
}
);
width = 670;
},
{
anchors = (
{
name = bottom;
position = "{348, 0}";
},
{
name = ogonek;
position = "{353, 0}";
},
{
name = top;
position = "{354, 563}";
},
{
name = topright;
position = "{587, 563}";
}
);
layerId = "98C086B7-81AA-4491-8494-0C6A76849168";
paths = (
{
closed = 1;
nodes = (
"475 -11 OFFCURVE",
"572 65 OFFCURVE",
"572 182 CURVE SMOOTH",
"572 541 LINE",
"649 541 LINE",
"649 563 LINE",
"470 563 LINE",
"470 541 LINE",
"543 541 LINE",
"543 182 LINE SMOOTH",
"543 81 OFFCURVE",
"460 13 OFFCURVE",
"338 13 CURVE SMOOTH",
"226 13 OFFCURVE",
"139 82 OFFCURVE",
"139 183 CURVE SMOOTH",
"139 541 LINE",
"214 541 LINE",
"214 563 LINE",
"35 563 LINE",
"35 541 LINE",
"109 541 LINE",
"109 183 LINE SMOOTH",
"109 68 OFFCURVE",
"206 -11 OFFCURVE",
"338 -11 CURVE SMOOTH"
);
}
);
width = 686;
},
{
anchors = (
{
name = bottom;
position = "{367, 0}";
},
{
name = ogonek;
position = "{376, 0}";
},
{
name = top;
position = "{367, 583}";
},
{
name = topright;
position = "{561, 583}";
}
);
layerId = "EFCDB4D9-E20B-4A8D-9DB5-150AD166B0AE";
paths = (
{
closed = 1;
nodes = (
"532 -11 OFFCURVE",
"618 69 OFFCURVE",
"618 217 CURVE SMOOTH",
"618 463 LINE",
"668 463 LINE",
"668 583 LINE",
"430 583 LINE",
"430 463 LINE",
"468 463 LINE",
"468 216 LINE SMOOTH",
"468 146 OFFCURVE",
"436 110 OFFCURVE",
"375 110 CURVE SMOOTH",
"315 110 OFFCURVE",
"284 146 OFFCURVE",
"284 216 CURVE SMOOTH",
"284 463 LINE",
"342 463 LINE",
"342 583 LINE",
"34 583 LINE",
"34 463 LINE",
"84 463 LINE",
"84 213 LINE SMOOTH",
"84 62 OFFCURVE",
"183 -11 OFFCURVE",
"358 -11 CURVE SMOOTH"
);
}
);
width = 701;
},
{
anchors = (
{
name = top;
position = "{443, 563}";
}
);
associatedMasterId = "EFCDB4D9-E20B-4A8D-9DB5-150AD166B0AE";
layerId = "8AA9AE57-F8B3-4024-A5CF-C226AFBF98D5";
name = "Bold Aug 18 16, 16:59";
paths = (
{
closed = 1;
nodes = (
"607 -11 OFFCURVE",
"703 78 OFFCURVE",
"703 243 CURVE SMOOTH",
"703 453 LINE",
"790 453 LINE",
"790 563 LINE",
"487 563 LINE",
"487 453 LINE",
"579 453 LINE",
"579 244 LINE SMOOTH",
"579 156 OFFCURVE",
"531 110 OFFCURVE",
"441 110 CURVE SMOOTH",
"356 110 OFFCURVE",
"312 155 OFFCURVE",
"312 244 CURVE SMOOTH",
"312 453 LINE",
"414 453 LINE",
"414 563 LINE",
"23 563 LINE",
"23 453 LINE",
"110 453 LINE",
"110 241 LINE SMOOTH",
"110 71 OFFCURVE",
"220 -11 OFFCURVE",
"414 -11 CURVE SMOOTH"
);
}
);
width = 814;
},
{
anchors = (
{
name = top;
position = "{344, 563}";
}
);
associatedMasterId = "BE4F947C-73D7-4684-AEED-17801393DA53";
layerId = "6216C08E-6A7A-4509-B10D-4BA7E9E26B2D";
name = "Regular Aug 18 16, 17:57";
paths = (
{
closed = 1;
nodes = (
"476 -10 OFFCURVE",
"574 58 OFFCURVE",
"574 197 CURVE SMOOTH",
"574 510 LINE",
"650 510 LINE",
"650 563 LINE",
"431 563 LINE",
"431 510 LINE",
"505 510 LINE",
"505 194 LINE SMOOTH",
"505 104 OFFCURVE",
"444 50 OFFCURVE",
"339 50 CURVE SMOOTH",
"241 50 OFFCURVE",
"183 104 OFFCURVE",
"183 193 CURVE SMOOTH",
"183 510 LINE",
"258 510 LINE",
"258 563 LINE",
"27 563 LINE",
"27 510 LINE",
"102 510 LINE",
"102 204 LINE SMOOTH",
"102 82 OFFCURVE",
"169 -10 OFFCURVE",
"337 -10 CURVE SMOOTH"
);
}
);
width = 670;
},
{
anchors = (
{
name = top;
position = "{366, 563}";
}
);
associatedMasterId = "98C086B7-81AA-4491-8494-0C6A76849168";
layerId = "EAF7F32A-DC0D-473D-A638-B131FA7E84C3";
name = "Light Aug 18 16, 17:57";
paths = (
{
closed = 1;
nodes = (
"512 -11 OFFCURVE",
"619 65 OFFCURVE",
"619 182 CURVE SMOOTH",
"619 541 LINE",
"696 541 LINE",
"696 563 LINE",
"517 563 LINE",
"517 541 LINE",
"590 541 LINE",
"590 182 LINE SMOOTH",
"590 81 OFFCURVE",
"497 13 OFFCURVE",
"360 13 CURVE SMOOTH",
"233 13 OFFCURVE",
"146 82 OFFCURVE",
"146 183 CURVE SMOOTH",
"146 541 LINE",
"221 541 LINE",
"221 563 LINE",
"42 563 LINE",
"42 541 LINE",
"116 541 LINE",
"116 183 LINE SMOOTH",
"116 68 OFFCURVE",
"213 -11 OFFCURVE",
"360 -11 CURVE SMOOTH"
);
}
);
width = 729;
}
);
unicode = 0055;
userData = {
com.typemytype.robofont.layerData = {
b = {
anchors = (
);
components = (
);
contours = (
);
lib = {
};
name = U;
unicodes = (
);
width = 1514;
};
};
org.robofab.postScriptHintData = {
};
};
},
{
glyphname = Uhorn;
layers = (
{
anchors = (
{
name = bottom;
position = "{360, 0}";
},
{
name = top;
position = "{366, 563}";
}
);
layerId = "98C086B7-81AA-4491-8494-0C6A76849168";
paths = (
{
closed = 1;
nodes = (
"512 -11 OFFCURVE",
"619 65 OFFCURVE",
"619 182 CURVE SMOOTH",
"619 563 LINE",
"517 563 LINE",
"517 541 LINE",
"590 541 LINE",
"590 182 LINE SMOOTH",
"590 81 OFFCURVE",
"497 13 OFFCURVE",
"360 13 CURVE SMOOTH",
"233 13 OFFCURVE",
"146 82 OFFCURVE",
"146 183 CURVE SMOOTH",
"146 541 LINE",
"221 541 LINE",
"221 563 LINE",
"42 563 LINE",
"42 541 LINE",
"116 541 LINE",
"116 183 LINE SMOOTH",
"116 68 OFFCURVE",
"213 -11 OFFCURVE",
"360 -11 CURVE SMOOTH"
);
},
{
closed = 1;
nodes = (
"604 546 LINE SMOOTH",
"658 546 OFFCURVE",
"693 577 OFFCURVE",
"700 628 CURVE",
"670 628 LINE",
"666 581 OFFCURVE",
"636 563 OFFCURVE",
"599 563 CURVE SMOOTH",
"593 563 LINE",
"593 546 LINE"
);
}
);
width = 729;
},
{
anchors = (
{
name = bottom;
position = "{338, 0}";
},
{
name = top;
position = "{344, 563}";
}
);
layerId = "BE4F947C-73D7-4684-AEED-17801393DA53";
paths = (
{
closed = 1;
nodes = (
"476 -10 OFFCURVE",
"574 58 OFFCURVE",
"574 197 CURVE SMOOTH",
"574 563 LINE",
"431 563 LINE",
"431 510 LINE",
"505 510 LINE",
"505 194 LINE SMOOTH",
"505 104 OFFCURVE",
"444 50 OFFCURVE",
"339 50 CURVE SMOOTH",
"241 50 OFFCURVE",
"183 104 OFFCURVE",
"183 193 CURVE SMOOTH",
"183 510 LINE",
"258 510 LINE",
"258 563 LINE",
"27 563 LINE",
"27 510 LINE",
"102 510 LINE",
"102 204 LINE SMOOTH",
"102 82 OFFCURVE",
"169 -10 OFFCURVE",
"337 -10 CURVE SMOOTH"
);
},
{
closed = 1;
nodes = (
"532 516 LINE SMOOTH",
"607 516 OFFCURVE",
"658 561 OFFCURVE",
"667 632 CURVE",
"586 632 LINE",
"582 582 OFFCURVE",
"552 563 OFFCURVE",
"515 563 CURVE SMOOTH",
"503 563 LINE",
"503 516 LINE"
);
}
);
width = 670;
},
{
anchors = (
{
name = bottom;
position = "{367, 0}";
},
{
name = top;
position = "{367, 583}";
}
);
layerId = "EFCDB4D9-E20B-4A8D-9DB5-150AD166B0AE";
paths = (
{
closed = 1;
nodes = (
"532 -11 OFFCURVE",
"618 69 OFFCURVE",
"618 217 CURVE SMOOTH",
"618 583 LINE",
"430 583 LINE",
"430 463 LINE",
"468 463 LINE",
"468 216 LINE SMOOTH",
"468 146 OFFCURVE",
"436 110 OFFCURVE",
"375 110 CURVE SMOOTH",
"315 110 OFFCURVE",
"284 146 OFFCURVE",
"284 216 CURVE SMOOTH",
"284 463 LINE",
"342 463 LINE",
"342 583 LINE",
"34 583 LINE",
"34 463 LINE",
"84 463 LINE",
"84 213 LINE SMOOTH",
"84 62 OFFCURVE",
"183 -11 OFFCURVE",
"358 -11 CURVE SMOOTH"
);
},
{
closed = 1;
nodes = (
"539 462 LINE SMOOTH",
"671 462 OFFCURVE",
"717 512 OFFCURVE",
"717 656 CURVE",
"603 656 LINE",
"603 604 OFFCURVE",
"584 583 OFFCURVE",
"531 583 CURVE SMOOTH",
"509 583 LINE",
"509 462 LINE"
);
}
);
width = 701;
}
);
unicode = 01AF;
},
{
glyphname = V;
layers = (
{
associatedMasterId = "98C086B7-81AA-4491-8494-0C6A76849168";
layerId = "AABE73E1-EF53-4A1E-9764-24D1E57A483F";
name = b;
width = 600;
},
{
layerId = "BE4F947C-73D7-4684-AEED-17801393DA53";
paths = (
{
closed = 1;
nodes = (
"353 0 LINE",
"553 510 LINE",
"622 510 LINE",
"622 563 LINE",
"408 563 LINE",
"408 510 LINE",
"480 510 LINE",
"323 89 LINE",
"164 510 LINE",
"238 510 LINE",
"238 563 LINE",
"9 563 LINE",
"9 510 LINE",
"80 510 LINE",
"282 0 LINE"
);
}
);
width = 627;
},
{
layerId = "98C086B7-81AA-4491-8494-0C6A76849168";
paths = (
{
closed = 1;
nodes = (
"309 0 LINE",
"514 541 LINE",
"574 541 LINE",
"574 563 LINE",
"403 563 LINE",
"403 541 LINE",
"479 541 LINE",
"294 37 LINE",
"107 541 LINE",
"185 541 LINE",
"185 563 LINE",
"8 563 LINE",
"8 541 LINE",
"75 541 LINE",
"278 0 LINE"
);
}
);
width = 582;
},
{
layerId = "EFCDB4D9-E20B-4A8D-9DB5-150AD166B0AE";
paths = (
{
closed = 1;
nodes = (
"409 0 LINE",
"618 463 LINE",
"664 463 LINE",
"664 583 LINE",
"389 583 LINE",
"389 463 LINE",
"453 463 LINE",
"358 218 LINE",
"258 463 LINE",
"324 463 LINE",
"324 583 LINE",
"4 583 LINE",
"4 463 LINE",
"50 463 LINE",
"274 0 LINE"
);
}
);
width = 668;
},
{
associatedMasterId = "EFCDB4D9-E20B-4A8D-9DB5-150AD166B0AE";
layerId = "CA83DC86-64A7-42C3-9156-6B64C3BD0D39";
name = "Bold Aug 18 16, 16:59";
paths = (
{
closed = 1;
nodes = (
"463 0 LINE",
"667 453 LINE",
"758 453 LINE",
"758 563 LINE",
"458 563 LINE",
"458 453 LINE",
"539 453 LINE",
"426 207 LINE",
"316 453 LINE",
"393 453 LINE",
"393 563 LINE",
"27 563 LINE",
"27 453 LINE",
"99 453 LINE",
"328 0 LINE"
);
}
);
width = 779;
},
{
associatedMasterId = "BE4F947C-73D7-4684-AEED-17801393DA53";
layerId = "6D6E0934-8107-46B9-93B8-D35C44BC7792";
name = "Regular Aug 18 16, 17:57";
paths = (
{
closed = 1;
nodes = (
"360 0 LINE",
"560 510 LINE",
"629 510 LINE",
"629 563 LINE",
"415 563 LINE",
"415 510 LINE",
"487 510 LINE",
"330 89 LINE",
"171 510 LINE",
"245 510 LINE",
"245 563 LINE",
"16 563 LINE",
"16 510 LINE",
"87 510 LINE",
"289 0 LINE"
);
}
);
width = 646;
},
{
associatedMasterId = "98C086B7-81AA-4491-8494-0C6A76849168";
layerId = "A03A3787-8685-425F-BA41-88A2210F8E92";
name = "Light Aug 18 16, 17:57";
paths = (
{
closed = 1;
nodes = (
"320 0 LINE",
"525 541 LINE",
"585 541 LINE",
"585 563 LINE",
"414 563 LINE",
"414 541 LINE",
"490 541 LINE",
"305 37 LINE",
"118 541 LINE",
"196 541 LINE",
"196 563 LINE",
"19 563 LINE",
"19 541 LINE",
"86 541 LINE",
"289 0 LINE"
);
}
);
width = 606;
}
);
unicode = 0056;
userData = {
com.typemytype.robofont.layerData = {
b = {
anchors = (
);
components = (
);
contours = (
);
lib = {
};
name = V;
unicodes = (
);
width = 1228;
};
};
org.robofab.postScriptHintData = {
};
};
},
{
glyphname = W;
layers = (
{
associatedMasterId = "98C086B7-81AA-4491-8494-0C6A76849168";
layerId = "EE6182E2-4987-40ED-BE67-A56F584A3ACB";
name = b;
width = 958;
},
{
anchors = (
{
name = top;
position = "{448, 553}";
}
);
layerId = "BE4F947C-73D7-4684-AEED-17801393DA53";
paths = (
{
closed = 1;
nodes = (
"303 0 LINE",
"443 426 LINE",
"584 0 LINE",
"654 0 LINE",
"809 510 LINE",
"879 510 LINE",
"879 563 LINE",
"669 563 LINE",
"669 510 LINE",
"742 510 LINE",
"623 104 LINE",
"477 553 LINE",
"418 553 LINE",
"273 104 LINE",
"151 510 LINE",
"224 510 LINE",
"224 563 LINE",
"4 563 LINE",
"4 510 LINE",
"73 510 LINE",
"233 0 LINE"
);
}
);
width = 882;
},
{
anchors = (
{
name = top;
position = "{449, 534}";
}
);
layerId = "98C086B7-81AA-4491-8494-0C6A76849168";
paths = (
{
closed = 1;
nodes = (
"288 0 LINE",
"448 480 LINE",
"606 0 LINE",
"637 0 LINE",
"817 541 LINE",
"888 541 LINE",
"888 563 LINE",
"711 563 LINE",
"711 541 LINE",
"787 541 LINE",
"622 38 LINE",
"460 534 LINE",
"437 534 LINE",
"273 38 LINE",
"105 541 LINE",
"183 541 LINE",
"183 563 LINE",
"5 563 LINE",
"5 541 LINE",
"73 541 LINE",
"256 0 LINE"
);
}
);
width = 898;
},
{
anchors = (
{
name = top;
position = "{453, 563}";
}
);
layerId = "EFCDB4D9-E20B-4A8D-9DB5-150AD166B0AE";
paths = (
{
closed = 1;
nodes = (
"334 0 LINE",
"449 299 LINE",
"564 0 LINE",
"684 0 LINE",
"840 463 LINE",
"886 463 LINE",
"886 583 LINE",
"630 583 LINE",
"630 463 LINE",
"688 463 LINE",
"620 267 LINE",
"513 563 LINE",
"393 563 LINE",
"282 267 LINE",
"222 463 LINE",
"270 463 LINE",
"270 583 LINE",
"4 583 LINE",
"4 463 LINE",
"50 463 LINE",
"214 0 LINE"
);
}
);
width = 888;
},
{
anchors = (
{
name = top;
position = "{549, 563}";
}
);
associatedMasterId = "EFCDB4D9-E20B-4A8D-9DB5-150AD166B0AE";
layerId = "56E323DD-BD7C-42D4-B8E9-2610933F65AE";
name = "Bold Aug 18 16, 16:59";
paths = (
{
closed = 1;
nodes = (
"364 0 LINE",
"504 267 LINE",
"646 0 LINE",
"743 0 LINE",
"899 453 LINE",
"972 453 LINE",
"972 563 LINE",
"713 563 LINE",
"713 453 LINE",
"787 453 LINE",
"713 247 LINE",
"566 543 LINE",
"529 543 LINE",
"371 247 LINE",
"304 453 LINE",
"365 453 LINE",
"365 563 LINE",
"32 563 LINE",
"32 453 LINE",
"103 453 LINE",
"273 0 LINE"
);
}
);
width = 1003;
},
{
anchors = (
{
name = top;
position = "{469, 563}";
}
);
associatedMasterId = "BE4F947C-73D7-4684-AEED-17801393DA53";
layerId = "DAA9F36C-DB70-48C0-9E80-9309538307D9";
name = "Regular Aug 18 16, 17:57";
paths = (
{
closed = 1;
nodes = (
"323 0 LINE",
"463 426 LINE",
"604 0 LINE",
"674 0 LINE",
"829 510 LINE",
"899 510 LINE",
"899 563 LINE",
"689 563 LINE",
"689 510 LINE",
"762 510 LINE",
"643 104 LINE",
"497 553 LINE",
"438 553 LINE",
"293 104 LINE",
"171 510 LINE",
"244 510 LINE",
"244 563 LINE",
"24 563 LINE",
"24 510 LINE",
"93 510 LINE",
"253 0 LINE"
);
}
);
width = 922;
},
{
anchors = (
{
name = top;
position = "{479, 563}";
}
);
associatedMasterId = "98C086B7-81AA-4491-8494-0C6A76849168";
layerId = "95F3F1DC-A17A-4913-8887-A7018BDAA23B";
name = "Light Aug 18 16, 17:57";
paths = (
{
closed = 1;
nodes = (
"318 0 LINE",
"478 480 LINE",
"636 0 LINE",
"667 0 LINE",
"847 541 LINE",
"918 541 LINE",
"918 563 LINE",
"741 563 LINE",
"741 541 LINE",
"817 541 LINE",
"652 38 LINE",
"490 534 LINE",
"467 534 LINE",
"303 38 LINE",
"135 541 LINE",
"213 541 LINE",
"213 563 LINE",
"35 563 LINE",
"35 541 LINE",
"103 541 LINE",
"286 0 LINE"
);
}
);
width = 953;
}
);
unicode = 0057;
userData = {
com.typemytype.robofont.layerData = {
b = {
anchors = (
);
components = (
);
contours = (
);
lib = {
};
name = W;
unicodes = (
);
width = 1962;
};
};
org.robofab.postScriptHintData = {
};
};
},
{
glyphname = X;
layers = (
{
associatedMasterId = "98C086B7-81AA-4491-8494-0C6A76849168";
layerId = "2A356CFA-972F-4E35-A1B9-EC5913808293";
name = b;
width = 631;
},
{
layerId = "BE4F947C-73D7-4684-AEED-17801393DA53";
paths = (
{
closed = 1;
nodes = (
"230 0 LINE",
"230 50 LINE",
"159 50 LINE",
"301 243 LINE",
"444 50 LINE",
"369 50 LINE",
"369 0 LINE",
"610 0 LINE",
"610 50 LINE",
"531 50 LINE",
"349 289 LINE",
"520 512 LINE",
"597 512 LINE",
"597 563 LINE",
"373 563 LINE",
"373 512 LINE",
"447 512 LINE",
"313 334 LINE",
"177 512 LINE",
"245 512 LINE",
"245 563 LINE",
"14 563 LINE",
"14 512 LINE",
"91 512 LINE",
"258 288 LINE",
"85 50 LINE",
"7 50 LINE",
"7 0 LINE"
);
}
);
width = 617;
},
{
layerId = "98C086B7-81AA-4491-8494-0C6A76849168";
paths = (
{
closed = 1;
nodes = (
"221 0 LINE",
"221 21 LINE",
"144 21 LINE",
"330 271 LINE",
"523 21 LINE",
"449 21 LINE",
"449 0 LINE",
"624 0 LINE",
"624 21 LINE",
"551 21 LINE",
"349 286 LINE",
"542 541 LINE",
"614 541 LINE",
"614 563 LINE",
"437 563 LINE",
"437 541 LINE",
"512 541 LINE",
"334 307 LINE",
"153 541 LINE",
"227 541 LINE",
"227 563 LINE",
"53 563 LINE",
"53 541 LINE",
"125 541 LINE",
"316 291 LINE",
"114 21 LINE",
"47 21 LINE",
"47 0 LINE"
);
}
);
width = 665;
},
{
guideLines = (
{
angle = 90;
position = "{34, 463}";
}
);
layerId = "EFCDB4D9-E20B-4A8D-9DB5-150AD166B0AE";
paths = (
{
closed = 1;
nodes = (
"287 0 LINE",
"287 120 LINE",
"250 120 LINE",
"330 217 LINE",
"406 120 LINE",
"370 120 LINE",
"370 0 LINE",
"660 0 LINE",
"660 120 LINE",
"624 120 LINE",
"469 302 LINE",
"613 463 LINE",
"650 463 LINE",
"650 583 LINE",
"378 583 LINE",
"378 463 LINE",
"415 463 LINE",
"345 377 LINE",
"279 463 LINE",
"315 463 LINE",
"315 583 LINE",
"25 583 LINE",
"25 463 LINE",
"61 463 LINE",
"205 291 LINE",
"52 120 LINE",
"15 120 LINE",
"15 0 LINE"
);
}
);
width = 675;
},
{
associatedMasterId = "EFCDB4D9-E20B-4A8D-9DB5-150AD166B0AE";
layerId = "066FE4E3-331B-4ED6-9C21-C394CCCF91B0";
name = "Bold Aug 18 16, 16:59";
paths = (
{
closed = 1;
nodes = (
"316 0 LINE",
"316 110 LINE",
"248 110 LINE",
"347 195 LINE",
"438 110 LINE",
"383 110 LINE",
"383 0 LINE",
"752 0 LINE",
"752 110 LINE",
"680 110 LINE",
"487 299 LINE",
"650 452 LINE",
"732 452 LINE",
"732 563 LINE",
"440 563 LINE",
"440 452 LINE",
"497 452 LINE",
"416 376 LINE",
"334 452 LINE",
"378 452 LINE",
"378 563 LINE",
"27 563 LINE",
"27 452 LINE",
"86 452 LINE",
"274 272 LINE",
"93 110 LINE",
"18 110 LINE",
"18 0 LINE"
);
}
);
width = 769;
},
{
associatedMasterId = "BE4F947C-73D7-4684-AEED-17801393DA53";
layerId = "CCBD552C-B551-4F98-A2D5-19D26D86B8D7";
name = "Regular Aug 18 16, 17:57";
paths = (
{
closed = 1;
nodes = (
"253 0 LINE",
"253 50 LINE",
"182 50 LINE",
"311 243 LINE",
"441 50 LINE",
"371 50 LINE",
"371 0 LINE",
"607 0 LINE",
"607 50 LINE",
"528 50 LINE",
"359 289 LINE",
"517 512 LINE",
"594 512 LINE",
"594 563 LINE",
"375 563 LINE",
"375 512 LINE",
"444 512 LINE",
"323 334 LINE",
"200 512 LINE",
"268 512 LINE",
"268 563 LINE",
"37 563 LINE",
"37 512 LINE",
"114 512 LINE",
"273 288 LINE",
"108 50 LINE",
"30 50 LINE",
"30 0 LINE"
);
}
);
width = 637;
},
{
associatedMasterId = "98C086B7-81AA-4491-8494-0C6A76849168";
layerId = "064E5DEF-991B-4E49-923C-E8A1577A7319";
name = "Light Aug 18 16, 17:57";
paths = (
{
closed = 1;
nodes = (
"228 0 LINE",
"228 21 LINE",
"151 21 LINE",
"314 270 LINE",
"481 21 LINE",
"406 21 LINE",
"406 0 LINE",
"581 0 LINE",
"581 21 LINE",
"508 21 LINE",
"331 286 LINE",
"499 541 LINE",
"571 541 LINE",
"571 563 LINE",
"394 563 LINE",
"394 541 LINE",
"470 541 LINE",
"317 307 LINE",
"160 541 LINE",
"234 541 LINE",
"234 563 LINE",
"60 563 LINE",
"60 541 LINE",
"133 541 LINE",
"301 290 LINE",
"122 21 LINE",
"54 21 LINE",
"54 0 LINE"
);
}
);
width = 632;
},
{
associatedMasterId = "EFCDB4D9-E20B-4A8D-9DB5-150AD166B0AE";
guideLines = (
{
angle = 90;
position = "{67, 463}";
}
);
layerId = "72A03418-8BA3-4779-A098-2F97D3DDBBA6";
name = "Bold Aug 19 16, 11:21";
paths = (
{
closed = 1;
nodes = (
"693 463 LINE",
"693 583 LINE",
"411 583 LINE",
"411 463 LINE"
);
},
{
closed = 1;
nodes = (
"348 463 LINE",
"348 583 LINE",
"48 583 LINE",
"48 463 LINE"
);
},
{
closed = 1;
nodes = (
"38 120 LINE",
"38 0 LINE",
"320 0 LINE",
"320 120 LINE"
);
},
{
closed = 1;
nodes = (
"403 120 LINE",
"403 0 LINE",
"703 0 LINE",
"703 120 LINE"
);
},
{
closed = 1;
nodes = (
"455 99 LINE",
"675 99 LINE",
"296 484 LINE",
"76 484 LINE"
);
},
{
closed = 1;
nodes = (
"475 484 LINE",
"66 99 LINE",
"256 99 LINE",
"665 484 LINE"
);
}
);
width = 741;
},
{
associatedMasterId = "EFCDB4D9-E20B-4A8D-9DB5-150AD166B0AE";
guideLines = (
{
angle = 90;
position = "{67, 463}";
}
);
layerId = "66F7C93A-9662-4EBD-9AEE-FC6A083DB045";
name = "Bold Aug 19 16, 11:23";
paths = (
{
closed = 1;
nodes = (
"673 463 LINE",
"673 583 LINE",
"411 583 LINE",
"411 463 LINE"
);
},
{
closed = 1;
nodes = (
"348 463 LINE",
"348 583 LINE",
"68 583 LINE",
"68 463 LINE"
);
},
{
closed = 1;
nodes = (
"58 120 LINE",
"58 0 LINE",
"320 0 LINE",
"320 120 LINE"
);
},
{
closed = 1;
nodes = (
"403 120 LINE",
"403 0 LINE",
"683 0 LINE",
"683 120 LINE"
);
},
{
closed = 1;
nodes = (
"455 99 LINE",
"675 99 LINE",
"296 484 LINE",
"76 484 LINE"
);
},
{
closed = 1;
nodes = (
"465 484 LINE",
"66 99 LINE",
"266 99 LINE",
"665 484 LINE"
);
}
);
width = 741;
},
{
associatedMasterId = "EFCDB4D9-E20B-4A8D-9DB5-150AD166B0AE";
guideLines = (
{
angle = 90;
position = "{47, 463}";
}
);
layerId = "D033780C-4BAA-4BA2-AAF1-FA74DAE522D0";
name = "Bold Aug 19 16, 11:26";
paths = (
{
closed = 1;
nodes = (
"653 463 LINE",
"653 583 LINE",
"391 583 LINE",
"391 463 LINE"
);
},
{
closed = 1;
nodes = (
"328 463 LINE",
"328 583 LINE",
"48 583 LINE",
"48 463 LINE"
);
},
{
closed = 1;
nodes = (
"38 120 LINE",
"38 0 LINE",
"300 0 LINE",
"300 120 LINE"
);
},
{
closed = 1;
nodes = (
"383 120 LINE",
"383 0 LINE",
"663 0 LINE",
"663 120 LINE"
);
},
{
closed = 1;
nodes = (
"246 99 LINE",
"365 244 LINE",
"321 245 LINE",
"435 99 LINE",
"655 99 LINE",
"464 323 LINE",
"463 280 LINE",
"645 484 LINE",
"445 484 LINE",
"336 349 LINE",
"380 348 LINE",
"276 484 LINE",
"56 484 LINE",
"237 269 LINE",
"238 313 LINE",
"46 99 LINE"
);
}
);
width = 701;
}
);
unicode = 0058;
userData = {
com.typemytype.robofont.layerData = {
b = {
anchors = (
);
components = (
);
contours = (
);
lib = {
};
name = X;
unicodes = (
);
width = 1293;
};
};
org.robofab.postScriptHintData = {
};
};
},
{
glyphname = Y;
layers = (
{
associatedMasterId = "98C086B7-81AA-4491-8494-0C6A76849168";
layerId = "F7EEFDF9-9A99-4B42-A834-ACCD2772A5D9";
name = b;
width = 612;
},
{
anchors = (
{
name = bottom;
position = "{311, 0}";
},
{
name = top;
position = "{315, 563}";
}
);
layerId = "BE4F947C-73D7-4684-AEED-17801393DA53";
paths = (
{
closed = 1;
nodes = (
"434 0 LINE",
"434 53 LINE",
"347 53 LINE",
"347 242 LINE",
"531 510 LINE",
"608 510 LINE",
"608 563 LINE",
"386 563 LINE",
"386 510 LINE",
"463 510 LINE",
"315 291 LINE",
"167 510 LINE",
"241 510 LINE",
"241 563 LINE",
"6 563 LINE",
"6 510 LINE",
"80 510 LINE",
"268 241 LINE",
"268 53 LINE",
"187 53 LINE",
"187 0 LINE"
);
}
);
width = 615;
},
{
anchors = (
{
name = bottom;
position = "{303, 0}";
},
{
name = top;
position = "{307, 563}";
}
);
layerId = "98C086B7-81AA-4491-8494-0C6A76849168";
paths = (
{
closed = 1;
nodes = (
"398 0 LINE",
"398 22 LINE",
"315 22 LINE",
"315 227 LINE",
"524 541 LINE",
"599 541 LINE",
"599 563 LINE",
"415 563 LINE",
"415 541 LINE",
"493 541 LINE",
"302 252 LINE",
"109 541 LINE",
"183 541 LINE",
"183 563 LINE",
"4 563 LINE",
"4 541 LINE",
"79 541 LINE",
"288 227 LINE",
"288 22 LINE",
"206 22 LINE",
"206 0 LINE"
);
}
);
width = 603;
},
{
anchors = (
{
name = bottom;
position = "{339, 0}";
},
{
name = top;
position = "{361, 583}";
}
);
layerId = "EFCDB4D9-E20B-4A8D-9DB5-150AD166B0AE";
paths = (
{
closed = 1;
nodes = (
"492 0 LINE",
"492 120 LINE",
"432 120 LINE",
"432 207 LINE",
"610 463 LINE",
"660 463 LINE",
"660 583 LINE",
"397 583 LINE",
"397 463 LINE",
"456 463 LINE",
"361 326 LINE",
"263 463 LINE",
"325 463 LINE",
"325 583 LINE",
"11 583 LINE",
"11 463 LINE",
"65 463 LINE",
"253 207 LINE",
"253 120 LINE",
"193 120 LINE",
"193 0 LINE"
);
}
);
width = 667;
},
{
anchors = (
{
name = top;
position = "{348, 561}";
}
);
associatedMasterId = "EFCDB4D9-E20B-4A8D-9DB5-150AD166B0AE";
layerId = "5DEBA72B-8C76-496A-91DB-5D6DD06A701E";
name = "Bold Aug 18 16, 16:59";
paths = (
{
closed = 1;
nodes = (
"545 0 LINE",
"545 109 LINE",
"450 109 LINE",
"450 216 LINE",
"628 453 LINE",
"710 453 LINE",
"710 563 LINE",
"414 563 LINE",
"414 453 LINE",
"470 453 LINE",
"374 312 LINE",
"274 453 LINE",
"333 453 LINE",
"333 563 LINE",
"-19 563 LINE",
"-19 453 LINE",
"61 453 LINE",
"249 214 LINE",
"249 109 LINE",
"153 109 LINE",
"153 0 LINE"
);
}
);
width = 715;
},
{
anchors = (
{
name = top;
position = "{322, 563}";
}
);
associatedMasterId = "BE4F947C-73D7-4684-AEED-17801393DA53";
layerId = "2B43B2C7-3289-4BD8-BEF6-BE8355CA3E93";
name = "Regular Aug 18 16, 17:57";
paths = (
{
closed = 1;
nodes = (
"441 0 LINE",
"441 53 LINE",
"358 53 LINE",
"358 242 LINE",
"541 510 LINE",
"618 510 LINE",
"618 563 LINE",
"396 563 LINE",
"396 510 LINE",
"468 510 LINE",
"325 294 LINE",
"177 510 LINE",
"248 510 LINE",
"248 563 LINE",
"14 563 LINE",
"14 510 LINE",
"89 510 LINE",
"277 241 LINE",
"277 53 LINE",
"195 53 LINE",
"195 0 LINE"
);
}
);
width = 632;
},
{
anchors = (
{
name = top;
position = "{311, 563}";
}
);
associatedMasterId = "98C086B7-81AA-4491-8494-0C6A76849168";
layerId = "5731BB58-735E-42EA-A5FD-500686580FE8";
name = "Light Aug 18 16, 17:57";
paths = (
{
closed = 1;
nodes = (
"405 0 LINE",
"405 22 LINE",
"322 22 LINE",
"322 227 LINE",
"531 541 LINE",
"606 541 LINE",
"606 563 LINE",
"422 563 LINE",
"422 541 LINE",
"500 541 LINE",
"309 252 LINE",
"116 541 LINE",
"190 541 LINE",
"190 563 LINE",
"7 563 LINE",
"7 541 LINE",
"83 541 LINE",
"292 227 LINE",
"292 22 LINE",
"210 22 LINE",
"210 0 LINE"
);
}
);
width = 615;
}
);
unicode = 0059;
userData = {
com.typemytype.robofont.layerData = {
b = {
anchors = (
);
components = (
);
contours = (
);
lib = {
};
name = Y;
unicodes = (
);
width = 1254;
};
};
org.robofab.postScriptHintData = {
};
};
},
{
glyphname = Z;
layers = (
{
associatedMasterId = "98C086B7-81AA-4491-8494-0C6A76849168";
layerId = "61F6835A-2EC4-4FAD-8ADE-C2D12E527D9B";
name = b;
width = 606;
},
{
anchors = (
{
name = bottom;
position = "{278, 0}";
},
{
name = top;
position = "{282, 563}";
}
);
layerId = "BE4F947C-73D7-4684-AEED-17801393DA53";
paths = (
{
closed = 1;
nodes = (
"508 0 LINE",
"508 185 LINE",
"448 185 LINE",
"448 53 LINE",
"143 53 LINE",
"501 512 LINE",
"501 563 LINE",
"62 563 LINE",
"62 391 LINE",
"122 391 LINE",
"122 510 LINE",
"402 510 LINE",
"47 57 LINE",
"47 0 LINE"
);
}
);
width = 546;
},
{
anchors = (
{
name = bottom;
position = "{315, 0}";
},
{
name = top;
position = "{316, 563}";
}
);
layerId = "98C086B7-81AA-4491-8494-0C6A76849168";
paths = (
{
closed = 1;
nodes = (
"546 0 LINE",
"546 149 LINE",
"521 149 LINE",
"521 22 LINE",
"118 22 LINE",
"533 541 LINE",
"533 563 LINE",
"98 563 LINE",
"98 412 LINE",
"123 412 LINE",
"123 541 LINE",
"499 541 LINE",
"84 23 LINE",
"84 0 LINE"
);
}
);
width = 613;
},
{
anchors = (
{
name = bottom;
position = "{299, 0}";
},
{
name = top;
position = "{307, 583}";
}
);
layerId = "EFCDB4D9-E20B-4A8D-9DB5-150AD166B0AE";
paths = (
{
closed = 1;
nodes = (
"566 0 LINE",
"566 218 LINE",
"436 218 LINE",
"436 116 LINE",
"279 116 LINE",
"556 493 LINE",
"556 583 LINE",
"37 583 LINE",
"37 373 LINE",
"163 373 LINE",
"163 467 LINE",
"306 467 LINE",
"32 90 LINE",
"32 0 LINE"
);
}
);
width = 598;
},
{
anchors = (
{
name = top;
position = "{324, 563}";
}
);
associatedMasterId = "EFCDB4D9-E20B-4A8D-9DB5-150AD166B0AE";
layerId = "885EA9EE-9255-4E43-86F2-AB53CACCFBE5";
name = "Bold Aug 18 16, 16:59";
paths = (
{
closed = 1;
nodes = (
"612 0 LINE",
"612 313 LINE",
"487 313 LINE",
"487 110 LINE",
"274 110 LINE",
"597 454 LINE",
"597 563 LINE",
"13 563 LINE",
"13 271 LINE",
"140 271 LINE",
"140 453 LINE",
"330 453 LINE",
"23 117 LINE",
"23 0 LINE"
);
}
);
width = 646;
},
{
anchors = (
{
name = top;
position = "{305, 563}";
}
);
associatedMasterId = "BE4F947C-73D7-4684-AEED-17801393DA53";
layerId = "4EE3D455-ACF9-4904-AEF6-404C42FEABBE";
name = "Regular Aug 18 16, 17:57";
paths = (
{
closed = 1;
nodes = (
"523 0 LINE",
"523 195 LINE",
"463 195 LINE",
"463 53 LINE",
"158 53 LINE",
"516 512 LINE",
"516 563 LINE",
"77 563 LINE",
"77 377 LINE",
"137 377 LINE",
"137 510 LINE",
"417 510 LINE",
"62 57 LINE",
"62 0 LINE"
);
}
);
width = 576;
},
{
anchors = (
{
name = top;
position = "{315, 563}";
}
);
associatedMasterId = "98C086B7-81AA-4491-8494-0C6A76849168";
layerId = "91BD0AE1-47A7-4D20-96AF-BC858BACBACD";
name = "Light Aug 18 16, 17:57";
paths = (
{
closed = 1;
nodes = (
"531 0 LINE",
"531 178 LINE",
"506 178 LINE",
"506 22 LINE",
"103 22 LINE",
"518 541 LINE",
"518 563 LINE",
"83 563 LINE",
"83 392 LINE",
"108 392 LINE",
"108 541 LINE",
"484 541 LINE",
"69 23 LINE",
"69 0 LINE"
);
}
);
width = 602;
}
);
unicode = 005A;
userData = {
com.typemytype.robofont.layerData = {
b = {
anchors = (
);
components = (
);
contours = (
);
lib = {
};
name = Z;
unicodes = (
);
width = 1241;
};
};
org.robofab.postScriptHintData = {
};
};
},
{
export = 0;
glyphname = E.alt1;
layers = (
{
anchors = (
{
name = bottom;
position = "{338, 0}";
},
{
name = ogonek;
position = "{485, 0}";
},
{
name = top;
position = "{321, 563}";
}
);
layerId = "BE4F947C-73D7-4684-AEED-17801393DA53";
paths = (
{
closed = 1;
nodes = (
"540 0 LINE",
"540 182 LINE",
"477 182 LINE",
"477 53 LINE",
"210 53 LINE",
"210 262 LINE",
"450 262 LINE",
"450 317 LINE",
"210 317 LINE",
"210 510 LINE",
"477 510 LINE",
"477 393 LINE",
"540 393 LINE",
"540 563 LINE",
"50 563 LINE",
"50 510 LINE",
"128 510 LINE",
"128 53 LINE",
"50 53 LINE",
"50 0 LINE"
);
}
);
width = 617;
},
{
anchors = (
{
name = bottom;
position = "{348, 0}";
},
{
name = ogonek;
position = "{501, 0}";
},
{
name = top;
position = "{337, 563}";
}
);
layerId = "98C086B7-81AA-4491-8494-0C6A76849168";
paths = (
{
closed = 1;
nodes = (
"509 0 LINE",
"509 149 LINE",
"483 149 LINE",
"483 22 LINE",
"165 22 LINE",
"165 280 LINE",
"433 280 LINE",
"432 302 LINE",
"165 302 LINE",
"165 541 LINE",
"483 541 LINE",
"483 412 LINE",
"509 412 LINE",
"509 563 LINE",
"50 563 LINE",
"50 541 LINE",
"135 541 LINE",
"135 22 LINE",
"50 22 LINE",
"50 0 LINE"
);
}
);
width = 611;
},
{
anchors = (
{
name = bottom;
position = "{336, 0}";
},
{
name = ogonek;
position = "{552, 0}";
},
{
name = top;
position = "{356, 583}";
}
);
guideLines = (
{
position = "{312, 235}";
}
);
layerId = "EFCDB4D9-E20B-4A8D-9DB5-150AD166B0AE";
paths = (
{
closed = 1;
nodes = (
"617 0 LINE",
"617 204 LINE",
"497 204 LINE",
"497 121 LINE",
"301 121 LINE",
"301 242 LINE",
"460 242 LINE",
"459 352 LINE",
"301 352 LINE",
"301 463 LINE",
"497 463 LINE",
"497 382 LINE",
"617 382 LINE",
"617 583 LINE",
"50 583 LINE",
"50 463 LINE",
"100 463 LINE",
"100 120 LINE",
"50 120 LINE",
"50 0 LINE"
);
}
);
width = 663;
},
{
anchors = (
{
name = bottom;
position = "{302, 0}";
},
{
name = top;
position = "{342, 563}";
}
);
associatedMasterId = "EFCDB4D9-E20B-4A8D-9DB5-150AD166B0AE";
layerId = "79C3438D-D440-453F-B166-0550B7CC06C2";
name = "Bold Aug 18 16, 16:59";
paths = (
{
closed = 1;
nodes = (
"617 0 LINE",
"617 218 LINE",
"475 218 LINE",
"475 110 LINE",
"307 110 LINE",
"307 242 LINE",
"374 242 LINE",
"374 191 LINE",
"425 191 LINE",
"425 407 LINE",
"373 407 LINE",
"373 347 LINE",
"307 347 LINE",
"307 451 LINE",
"474 453 LINE",
"474 370 LINE",
"613 370 LINE",
"613 563 LINE",
"21 563 LINE",
"21 453 LINE",
"106 453 LINE",
"106 109 LINE",
"21 109 LINE",
"21 0 LINE"
);
}
);
width = 646;
},
{
anchors = (
{
name = bottom;
position = "{309, 0}";
},
{
name = top;
position = "{310, 563}";
}
);
associatedMasterId = "BE4F947C-73D7-4684-AEED-17801393DA53";
layerId = "3292D019-981F-4830-A057-68A45256F1EB";
name = "Regular Aug 18 16, 17:57";
paths = (
{
closed = 1;
nodes = (
"534 0 LINE",
"534 170 LINE",
"471 170 LINE",
"471 53 LINE",
"199 53 LINE",
"199 264 LINE",
"374 264 LINE",
"374 197 LINE",
"415 197 LINE",
"415 385 LINE",
"374 385 LINE",
"374 319 LINE",
"199 319 LINE",
"199 510 LINE",
"466 510 LINE",
"466 396 LINE",
"529 396 LINE",
"529 563 LINE",
"39 563 LINE",
"39 510 LINE",
"117 510 LINE",
"117 53 LINE",
"39 53 LINE",
"39 0 LINE"
);
}
);
width = 582;
},
{
anchors = (
{
name = bottom;
position = "{316, 0}";
},
{
name = top;
position = "{327, 563}";
}
);
associatedMasterId = "98C086B7-81AA-4491-8494-0C6A76849168";
layerId = "EF4C89A6-B1C3-4DD6-9C51-06111BF2D44C";
name = "Light Aug 18 16, 17:57";
paths = (
{
closed = 1;
nodes = (
"531 0 LINE",
"531 163 LINE",
"505 163 LINE",
"505 22 LINE",
"175 22 LINE",
"175 276 LINE",
"381 276 LINE",
"381 187 LINE",
"403 187 LINE",
"403 381 LINE",
"380 381 LINE",
"380 298 LINE",
"175 298 LINE",
"175 541 LINE",
"493 541 LINE",
"493 402 LINE",
"519 402 LINE",
"519 563 LINE",
"60 563 LINE",
"60 541 LINE",
"145 541 LINE",
"145 22 LINE",
"60 22 LINE",
"60 0 LINE"
);
}
);
width = 597;
}
);
leftMetricsKey = E;
rightMetricsKey = E;
userData = {
com.typemytype.robofont.layerData = {
b = {
anchors = (
);
components = (
);
contours = (
);
lib = {
};
name = E;
unicodes = (
);
width = 1227;
};
};
org.robofab.postScriptHintData = {
};
};
},
{
export = 0;
glyphname = F.alt1;
layers = (
{
associatedMasterId = "98C086B7-81AA-4491-8494-0C6A76849168";
layerId = "3ECFE09A-00F6-461D-8ABC-E519FD610BC2";
name = b;
paths = (
{
closed = 1;
nodes = (
"483 530 LINE",
"483 392 LINE",
"519 392 LINE",
"519 563 LINE",
"60 563 LINE",
"60 530 LINE",
"140 530 LINE",
"140 507 LINE",
"177 507 LINE",
"177 530 LINE"
);
},
{
closed = 1;
nodes = (
"140 507 LINE",
"140 331 LINE",
"177 331 LINE",
"177 507 LINE"
);
},
{
closed = 1;
nodes = (
"140 331 LINE",
"140 32 LINE",
"60 32 LINE",
"60 0 LINE",
"270 0 LINE",
"270 32 LINE",
"177 32 LINE",
"177 263 LINE",
"402 263 LINE",
"402 185 LINE",
"433 185 LINE",
"433 373 LINE",
"402 373 LINE",
"402 293 LINE",
"177 293 LINE",
"177 331 LINE"
);
}
);
width = 575;
},
{
anchors = (
{
name = top;
position = "{299, 563}";
}
);
layerId = "BE4F947C-73D7-4684-AEED-17801393DA53";
paths = (
{
closed = 1;
nodes = (
"277 0 LINE",
"277 53 LINE",
"199 53 LINE",
"199 260 LINE",
"399 260 LINE",
"399 317 LINE",
"199 317 LINE",
"199 510 LINE",
"457 510 LINE",
"457 392 LINE",
"520 392 LINE",
"520 563 LINE",
"39 563 LINE",
"39 510 LINE",
"117 510 LINE",
"117 53 LINE",
"39 53 LINE",
"39 0 LINE"
);
}
);
width = 563;
},
{
anchors = (
{
name = top;
position = "{340, 563}";
}
);
guideLines = (
{
position = "{523, 412}";
}
);
layerId = "98C086B7-81AA-4491-8494-0C6A76849168";
paths = (
{
closed = 1;
nodes = (
"260 0 LINE",
"260 22 LINE",
"175 22 LINE",
"175 280 LINE",
"396 280 LINE",
"396 303 LINE",
"175 303 LINE",
"175 541 LINE",
"500 541 LINE",
"500 411 LINE",
"524 411 LINE",
"524 563 LINE",
"60 563 LINE",
"60 541 LINE",
"145 541 LINE",
"145 22 LINE",
"60 22 LINE",
"60 0 LINE"
);
}
);
width = 585;
},
{
anchors = (
{
name = top;
position = "{333, 583}";
}
);
guideLines = (
{
position = "{299, 347}";
}
);
layerId = "EFCDB4D9-E20B-4A8D-9DB5-150AD166B0AE";
paths = (
{
closed = 1;
nodes = (
"360 0 LINE",
"360 120 LINE",
"300 120 LINE",
"300 237 LINE",
"450 237 LINE",
"450 347 LINE",
"300 347 LINE",
"300 463 LINE",
"496 463 LINE",
"496 378 LINE",
"616 378 LINE",
"616 583 LINE",
"50 583 LINE",
"50 463 LINE",
"100 463 LINE",
"100 120 LINE",
"50 120 LINE",
"50 0 LINE"
);
}
);
width = 614;
},
{
anchors = (
{
name = top;
position = "{325, 563}";
}
);
associatedMasterId = "EFCDB4D9-E20B-4A8D-9DB5-150AD166B0AE";
layerId = "D3F829E5-7ACF-49E5-AF0A-740B76BE2409";
name = "Bold Aug 18 16, 16:59";
paths = (
{
closed = 1;
nodes = (
"392 0 LINE",
"392 109 LINE",
"307 109 LINE",
"307 242 LINE",
"391 242 LINE",
"391 191 LINE",
"451 191 LINE",
"451 373 LINE",
"390 373 LINE",
"390 322 LINE",
"307 322 LINE",
"307 453 LINE",
"488 453 LINE",
"488 374 LINE",
"602 374 LINE",
"602 563 LINE",
"21 563 LINE",
"21 453 LINE",
"106 453 LINE",
"106 109 LINE",
"21 109 LINE",
"21 0 LINE"
);
}
);
width = 631;
},
{
anchors = (
{
name = top;
position = "{299, 563}";
}
);
associatedMasterId = "BE4F947C-73D7-4684-AEED-17801393DA53";
layerId = "0D8A457C-F74A-4CB9-82A7-F98812EB30EF";
name = "Regular Aug 18 16, 17:57";
paths = (
{
closed = 1;
nodes = (
"277 0 LINE",
"277 53 LINE",
"199 53 LINE",
"199 264 LINE",
"369 264 LINE",
"369 199 LINE",
"411 199 LINE",
"411 382 LINE",
"369 382 LINE",
"369 321 LINE",
"199 321 LINE",
"199 510 LINE",
"457 510 LINE",
"457 392 LINE",
"520 392 LINE",
"520 563 LINE",
"39 563 LINE",
"39 510 LINE",
"117 510 LINE",
"117 53 LINE",
"39 53 LINE",
"39 0 LINE"
);
}
);
width = 542;
},
{
anchors = (
{
name = top;
position = "{314, 563}";
}
);
associatedMasterId = "98C086B7-81AA-4491-8494-0C6A76849168";
layerId = "6EB6B703-0B34-4A18-AE2D-3A9EF23CEAA1";
name = "Light Aug 18 16, 17:57";
paths = (
{
closed = 1;
nodes = (
"260 0 LINE",
"260 22 LINE",
"175 22 LINE",
"175 278 LINE",
"409 278 LINE",
"409 191 LINE",
"430 191 LINE",
"430 377 LINE",
"409 377 LINE",
"409 301 LINE",
"175 301 LINE",
"175 541 LINE",
"500 541 LINE",
"500 389 LINE",
"524 389 LINE",
"524 563 LINE",
"60 563 LINE",
"60 541 LINE",
"145 541 LINE",
"145 22 LINE",
"60 22 LINE",
"60 0 LINE"
);
}
);
width = 570;
}
);
leftMetricsKey = F;
rightMetricsKey = F;
userData = {
com.typemytype.robofont.layerData = {
b = {
anchors = (
);
components = (
);
contours = (
{
points = (
{
segmentType = line;
smooth = 0;
x = 990;
y = 1086;
},
{
segmentType = line;
smooth = 0;
x = 990;
y = 802;
},
{
segmentType = line;
smooth = 0;
x = 1062;
y = 802;
},
{
segmentType = line;
smooth = 0;
x = 1062;
y = 1152;
},
{
segmentType = line;
smooth = 0;
x = 122;
y = 1152;
},
{
segmentType = line;
smooth = 0;
x = 122;
y = 1086;
},
{
segmentType = line;
smooth = 0;
x = 286;
y = 1086;
},
{
segmentType = line;
smooth = 0;
x = 286;
y = 1039;
},
{
segmentType = line;
smooth = 0;
x = 363;
y = 1039;
},
{
segmentType = line;
smooth = 0;
x = 363;
y = 1086;
}
);
},
{
points = (
{
segmentType = line;
smooth = 0;
x = 286;
y = 1039;
},
{
segmentType = line;
smooth = 0;
x = 286;
y = 677;
},
{
segmentType = line;
smooth = 0;
x = 363;
y = 677;
},
{
segmentType = line;
smooth = 0;
x = 363;
y = 1039;
}
);
},
{
points = (
{
segmentType = line;
smooth = 0;
x = 286;
y = 677;
},
{
segmentType = line;
smooth = 0;
x = 286;
y = 65;
},
{
segmentType = line;
smooth = 0;
x = 122;
y = 65;
},
{
segmentType = line;
smooth = 0;
x = 122;
y = 0;
},
{
segmentType = line;
smooth = 0;
x = 552;
y = 0;
},
{
segmentType = line;
smooth = 0;
x = 552;
y = 65;
},
{
segmentType = line;
smooth = 0;
x = 363;
y = 65;
},
{
segmentType = line;
smooth = 0;
x = 363;
y = 539;
},
{
segmentType = line;
smooth = 0;
x = 824;
y = 539;
},
{
segmentType = line;
smooth = 0;
x = 824;
y = 378;
},
{
segmentType = line;
smooth = 0;
x = 886;
y = 378;
},
{
segmentType = line;
smooth = 0;
x = 886;
y = 764;
},
{
segmentType = line;
smooth = 0;
x = 824;
y = 764;
},
{
segmentType = line;
smooth = 0;
x = 824;
y = 601;
},
{
segmentType = line;
smooth = 0;
x = 363;
y = 601;
},
{
segmentType = line;
smooth = 0;
x = 363;
y = 677;
}
);
}
);
lib = {
};
name = F;
unicodes = (
);
width = 1177;
};
};
org.robofab.postScriptHintData = {
};
};
},
